G04 #@! TF.GenerationSoftware,KiCad,Pcbnew,(5.1.12)-1*
G04 #@! TF.CreationDate,2022-04-07T22:39:11+09:00*
G04 #@! TF.ProjectId,chervil8or,63686572-7669-46c3-986f-722e6b696361,rev?*
G04 #@! TF.SameCoordinates,Original*
G04 #@! TF.FileFunction,Legend,Top*
G04 #@! TF.FilePolarity,Positive*
%FSLAX46Y46*%
G04 Gerber Fmt 4.6, Leading zero omitted, Abs format (unit mm)*
G04 Created by KiCad (PCBNEW (5.1.12)-1) date 2022-04-07 22:39:11*
%MOMM*%
%LPD*%
G01*
G04 APERTURE LIST*
%ADD10C,0.010000*%
%ADD11C,0.150000*%
G04 APERTURE END LIST*
D10*
G36*
X72286244Y-3438996D02*
G01*
X72298293Y-3435672D01*
X72317799Y-3430384D01*
X72344399Y-3423226D01*
X72377731Y-3414295D01*
X72417435Y-3403687D01*
X72463147Y-3391496D01*
X72514506Y-3377819D01*
X72571150Y-3362751D01*
X72632717Y-3346388D01*
X72698846Y-3328825D01*
X72769174Y-3310159D01*
X72843340Y-3290485D01*
X72920982Y-3269899D01*
X73001737Y-3248495D01*
X73085245Y-3226371D01*
X73171143Y-3203622D01*
X73259068Y-3180342D01*
X73348661Y-3156629D01*
X73439557Y-3132577D01*
X73531397Y-3108283D01*
X73623817Y-3083842D01*
X73716456Y-3059349D01*
X73808952Y-3034901D01*
X73900943Y-3010593D01*
X73992067Y-2986520D01*
X74081963Y-2962779D01*
X74170268Y-2939465D01*
X74256621Y-2916674D01*
X74340660Y-2894501D01*
X74422022Y-2873042D01*
X74500347Y-2852392D01*
X74575272Y-2832648D01*
X74646435Y-2813906D01*
X74713474Y-2796260D01*
X74776028Y-2779806D01*
X74833735Y-2764640D01*
X74886232Y-2750859D01*
X74933159Y-2738556D01*
X74974152Y-2727829D01*
X75008850Y-2718772D01*
X75036892Y-2711482D01*
X75057915Y-2706054D01*
X75071558Y-2702584D01*
X75077459Y-2701168D01*
X75077682Y-2701141D01*
X75077841Y-2705453D01*
X75078059Y-2717932D01*
X75078334Y-2738282D01*
X75078664Y-2766202D01*
X75079045Y-2801396D01*
X75079476Y-2843564D01*
X75079953Y-2892407D01*
X75080474Y-2947628D01*
X75081036Y-3008929D01*
X75081637Y-3076010D01*
X75082275Y-3148573D01*
X75082945Y-3226320D01*
X75083647Y-3308953D01*
X75084377Y-3396173D01*
X75085133Y-3487681D01*
X75085912Y-3583180D01*
X75086712Y-3682370D01*
X75087530Y-3784954D01*
X75088363Y-3890633D01*
X75089209Y-3999108D01*
X75090065Y-4110081D01*
X75090929Y-4223255D01*
X75091013Y-4234326D01*
X75091895Y-4350465D01*
X75092774Y-4465713D01*
X75093646Y-4579703D01*
X75094509Y-4692070D01*
X75095360Y-4802448D01*
X75096196Y-4910470D01*
X75097013Y-5015770D01*
X75097810Y-5117984D01*
X75098583Y-5216744D01*
X75099329Y-5311684D01*
X75100045Y-5402439D01*
X75100729Y-5488643D01*
X75101378Y-5569929D01*
X75101988Y-5645933D01*
X75102557Y-5716286D01*
X75103082Y-5780625D01*
X75103560Y-5838582D01*
X75103988Y-5889792D01*
X75104364Y-5933889D01*
X75104683Y-5970506D01*
X75104945Y-5999278D01*
X75105091Y-6014502D01*
X75105482Y-6059515D01*
X75105744Y-6101908D01*
X75105879Y-6140941D01*
X75105891Y-6175874D01*
X75105781Y-6205968D01*
X75105553Y-6230485D01*
X75105207Y-6248684D01*
X75104748Y-6259827D01*
X75104236Y-6263210D01*
X75100004Y-6261154D01*
X75089191Y-6255265D01*
X75072536Y-6245963D01*
X75050781Y-6233668D01*
X75024664Y-6218800D01*
X74994927Y-6201778D01*
X74962308Y-6183022D01*
X74931821Y-6165422D01*
X74913928Y-6155087D01*
X74889046Y-6140734D01*
X74857525Y-6122564D01*
X74819714Y-6100780D01*
X74775965Y-6075581D01*
X74726628Y-6047172D01*
X74672054Y-6015752D01*
X74612592Y-5981524D01*
X74548594Y-5944689D01*
X74480409Y-5905449D01*
X74408388Y-5864006D01*
X74332881Y-5820561D01*
X74254239Y-5775316D01*
X74172812Y-5728472D01*
X74088951Y-5680232D01*
X74003006Y-5630796D01*
X73915327Y-5580367D01*
X73826266Y-5529146D01*
X73736171Y-5477335D01*
X73687457Y-5449322D01*
X73599044Y-5398477D01*
X73512520Y-5348705D01*
X73428172Y-5300174D01*
X73346290Y-5253049D01*
X73267162Y-5207499D01*
X73191077Y-5163689D01*
X73118325Y-5121786D01*
X73049194Y-5081956D01*
X72983973Y-5044367D01*
X72922950Y-5009184D01*
X72866416Y-4976574D01*
X72814658Y-4946705D01*
X72767966Y-4919741D01*
X72726627Y-4895851D01*
X72690933Y-4875200D01*
X72661170Y-4857955D01*
X72637628Y-4844284D01*
X72620596Y-4834351D01*
X72610363Y-4828325D01*
X72607213Y-4826386D01*
X72605689Y-4821791D01*
X72602371Y-4809412D01*
X72597368Y-4789712D01*
X72590793Y-4763157D01*
X72582756Y-4730212D01*
X72573369Y-4691340D01*
X72562742Y-4647006D01*
X72550986Y-4597676D01*
X72538213Y-4543813D01*
X72524533Y-4485883D01*
X72510058Y-4424350D01*
X72494899Y-4359679D01*
X72479166Y-4292334D01*
X72463947Y-4226977D01*
X72447377Y-4155725D01*
X72431054Y-4085568D01*
X72415110Y-4017069D01*
X72399676Y-3950792D01*
X72384883Y-3887300D01*
X72370862Y-3827154D01*
X72357746Y-3770919D01*
X72345664Y-3719157D01*
X72334750Y-3672431D01*
X72325133Y-3631304D01*
X72316945Y-3596339D01*
X72310318Y-3568099D01*
X72305383Y-3547146D01*
X72302994Y-3537069D01*
X72296622Y-3509963D01*
X72291087Y-3485718D01*
X72286644Y-3465507D01*
X72283547Y-3450502D01*
X72282050Y-3441876D01*
X72282013Y-3440259D01*
X72286244Y-3438996D01*
G37*
X72286244Y-3438996D02*
X72298293Y-3435672D01*
X72317799Y-3430384D01*
X72344399Y-3423226D01*
X72377731Y-3414295D01*
X72417435Y-3403687D01*
X72463147Y-3391496D01*
X72514506Y-3377819D01*
X72571150Y-3362751D01*
X72632717Y-3346388D01*
X72698846Y-3328825D01*
X72769174Y-3310159D01*
X72843340Y-3290485D01*
X72920982Y-3269899D01*
X73001737Y-3248495D01*
X73085245Y-3226371D01*
X73171143Y-3203622D01*
X73259068Y-3180342D01*
X73348661Y-3156629D01*
X73439557Y-3132577D01*
X73531397Y-3108283D01*
X73623817Y-3083842D01*
X73716456Y-3059349D01*
X73808952Y-3034901D01*
X73900943Y-3010593D01*
X73992067Y-2986520D01*
X74081963Y-2962779D01*
X74170268Y-2939465D01*
X74256621Y-2916674D01*
X74340660Y-2894501D01*
X74422022Y-2873042D01*
X74500347Y-2852392D01*
X74575272Y-2832648D01*
X74646435Y-2813906D01*
X74713474Y-2796260D01*
X74776028Y-2779806D01*
X74833735Y-2764640D01*
X74886232Y-2750859D01*
X74933159Y-2738556D01*
X74974152Y-2727829D01*
X75008850Y-2718772D01*
X75036892Y-2711482D01*
X75057915Y-2706054D01*
X75071558Y-2702584D01*
X75077459Y-2701168D01*
X75077682Y-2701141D01*
X75077841Y-2705453D01*
X75078059Y-2717932D01*
X75078334Y-2738282D01*
X75078664Y-2766202D01*
X75079045Y-2801396D01*
X75079476Y-2843564D01*
X75079953Y-2892407D01*
X75080474Y-2947628D01*
X75081036Y-3008929D01*
X75081637Y-3076010D01*
X75082275Y-3148573D01*
X75082945Y-3226320D01*
X75083647Y-3308953D01*
X75084377Y-3396173D01*
X75085133Y-3487681D01*
X75085912Y-3583180D01*
X75086712Y-3682370D01*
X75087530Y-3784954D01*
X75088363Y-3890633D01*
X75089209Y-3999108D01*
X75090065Y-4110081D01*
X75090929Y-4223255D01*
X75091013Y-4234326D01*
X75091895Y-4350465D01*
X75092774Y-4465713D01*
X75093646Y-4579703D01*
X75094509Y-4692070D01*
X75095360Y-4802448D01*
X75096196Y-4910470D01*
X75097013Y-5015770D01*
X75097810Y-5117984D01*
X75098583Y-5216744D01*
X75099329Y-5311684D01*
X75100045Y-5402439D01*
X75100729Y-5488643D01*
X75101378Y-5569929D01*
X75101988Y-5645933D01*
X75102557Y-5716286D01*
X75103082Y-5780625D01*
X75103560Y-5838582D01*
X75103988Y-5889792D01*
X75104364Y-5933889D01*
X75104683Y-5970506D01*
X75104945Y-5999278D01*
X75105091Y-6014502D01*
X75105482Y-6059515D01*
X75105744Y-6101908D01*
X75105879Y-6140941D01*
X75105891Y-6175874D01*
X75105781Y-6205968D01*
X75105553Y-6230485D01*
X75105207Y-6248684D01*
X75104748Y-6259827D01*
X75104236Y-6263210D01*
X75100004Y-6261154D01*
X75089191Y-6255265D01*
X75072536Y-6245963D01*
X75050781Y-6233668D01*
X75024664Y-6218800D01*
X74994927Y-6201778D01*
X74962308Y-6183022D01*
X74931821Y-6165422D01*
X74913928Y-6155087D01*
X74889046Y-6140734D01*
X74857525Y-6122564D01*
X74819714Y-6100780D01*
X74775965Y-6075581D01*
X74726628Y-6047172D01*
X74672054Y-6015752D01*
X74612592Y-5981524D01*
X74548594Y-5944689D01*
X74480409Y-5905449D01*
X74408388Y-5864006D01*
X74332881Y-5820561D01*
X74254239Y-5775316D01*
X74172812Y-5728472D01*
X74088951Y-5680232D01*
X74003006Y-5630796D01*
X73915327Y-5580367D01*
X73826266Y-5529146D01*
X73736171Y-5477335D01*
X73687457Y-5449322D01*
X73599044Y-5398477D01*
X73512520Y-5348705D01*
X73428172Y-5300174D01*
X73346290Y-5253049D01*
X73267162Y-5207499D01*
X73191077Y-5163689D01*
X73118325Y-5121786D01*
X73049194Y-5081956D01*
X72983973Y-5044367D01*
X72922950Y-5009184D01*
X72866416Y-4976574D01*
X72814658Y-4946705D01*
X72767966Y-4919741D01*
X72726627Y-4895851D01*
X72690933Y-4875200D01*
X72661170Y-4857955D01*
X72637628Y-4844284D01*
X72620596Y-4834351D01*
X72610363Y-4828325D01*
X72607213Y-4826386D01*
X72605689Y-4821791D01*
X72602371Y-4809412D01*
X72597368Y-4789712D01*
X72590793Y-4763157D01*
X72582756Y-4730212D01*
X72573369Y-4691340D01*
X72562742Y-4647006D01*
X72550986Y-4597676D01*
X72538213Y-4543813D01*
X72524533Y-4485883D01*
X72510058Y-4424350D01*
X72494899Y-4359679D01*
X72479166Y-4292334D01*
X72463947Y-4226977D01*
X72447377Y-4155725D01*
X72431054Y-4085568D01*
X72415110Y-4017069D01*
X72399676Y-3950792D01*
X72384883Y-3887300D01*
X72370862Y-3827154D01*
X72357746Y-3770919D01*
X72345664Y-3719157D01*
X72334750Y-3672431D01*
X72325133Y-3631304D01*
X72316945Y-3596339D01*
X72310318Y-3568099D01*
X72305383Y-3547146D01*
X72302994Y-3537069D01*
X72296622Y-3509963D01*
X72291087Y-3485718D01*
X72286644Y-3465507D01*
X72283547Y-3450502D01*
X72282050Y-3441876D01*
X72282013Y-3440259D01*
X72286244Y-3438996D01*
G36*
X67777992Y-11388009D02*
G01*
X67787994Y-11381480D01*
X67804365Y-11371194D01*
X67826647Y-11357427D01*
X67854382Y-11340457D01*
X67887110Y-11320563D01*
X67924375Y-11298021D01*
X67965717Y-11273110D01*
X68010678Y-11246106D01*
X68058800Y-11217289D01*
X68109626Y-11186935D01*
X68162695Y-11155322D01*
X68176605Y-11147049D01*
X68240588Y-11109028D01*
X68297693Y-11075139D01*
X68348307Y-11045162D01*
X68392815Y-11018878D01*
X68431602Y-10996066D01*
X68465053Y-10976505D01*
X68493553Y-10959976D01*
X68517488Y-10946258D01*
X68537243Y-10935131D01*
X68553203Y-10926374D01*
X68565754Y-10919769D01*
X68575280Y-10915093D01*
X68582166Y-10912127D01*
X68586799Y-10910652D01*
X68589563Y-10910445D01*
X68590145Y-10910625D01*
X68594225Y-10912943D01*
X68605455Y-10919405D01*
X68623660Y-10929910D01*
X68648666Y-10944357D01*
X68680296Y-10962644D01*
X68718377Y-10984671D01*
X68762733Y-11010335D01*
X68813189Y-11039536D01*
X68869571Y-11072172D01*
X68931703Y-11108142D01*
X68999410Y-11147344D01*
X69072518Y-11189677D01*
X69150851Y-11235040D01*
X69234234Y-11283331D01*
X69322493Y-11334449D01*
X69415452Y-11388293D01*
X69512937Y-11444761D01*
X69614773Y-11503752D01*
X69720784Y-11565164D01*
X69830795Y-11628897D01*
X69944633Y-11694848D01*
X70062121Y-11762917D01*
X70183084Y-11833002D01*
X70307349Y-11905002D01*
X70434739Y-11978816D01*
X70565080Y-12054341D01*
X70698196Y-12131478D01*
X70833914Y-12210123D01*
X70972057Y-12290177D01*
X71112451Y-12371537D01*
X71254921Y-12454103D01*
X71399292Y-12537773D01*
X71498824Y-12595457D01*
X74398657Y-14276103D01*
X74400774Y-10917076D01*
X74402890Y-7558050D01*
X74722507Y-7378157D01*
X74771221Y-7350743D01*
X74818383Y-7324208D01*
X74863393Y-7298891D01*
X74905649Y-7275129D01*
X74944552Y-7253260D01*
X74979500Y-7233621D01*
X75009893Y-7216550D01*
X75035131Y-7202384D01*
X75054612Y-7191461D01*
X75067736Y-7184118D01*
X75072815Y-7181291D01*
X75103507Y-7164317D01*
X75103507Y-11387817D01*
X75103506Y-11617491D01*
X75103503Y-11838847D01*
X75103497Y-12052034D01*
X75103488Y-12257203D01*
X75103477Y-12454501D01*
X75103463Y-12644077D01*
X75103445Y-12826082D01*
X75103424Y-13000664D01*
X75103399Y-13167972D01*
X75103370Y-13328155D01*
X75103336Y-13481362D01*
X75103299Y-13627743D01*
X75103256Y-13767446D01*
X75103209Y-13900621D01*
X75103157Y-14027417D01*
X75103099Y-14147982D01*
X75103036Y-14262467D01*
X75102967Y-14371019D01*
X75102893Y-14473788D01*
X75102812Y-14570924D01*
X75102724Y-14662575D01*
X75102630Y-14748890D01*
X75102530Y-14830019D01*
X75102422Y-14906110D01*
X75102307Y-14977313D01*
X75102184Y-15043777D01*
X75102054Y-15105651D01*
X75101916Y-15163083D01*
X75101769Y-15216224D01*
X75101615Y-15265222D01*
X75101451Y-15310226D01*
X75101279Y-15351386D01*
X75101098Y-15388850D01*
X75100908Y-15422767D01*
X75100708Y-15453287D01*
X75100498Y-15480559D01*
X75100279Y-15504732D01*
X75100049Y-15525955D01*
X75099810Y-15544376D01*
X75099559Y-15560146D01*
X75099298Y-15573414D01*
X75099026Y-15584327D01*
X75098742Y-15593036D01*
X75098448Y-15599689D01*
X75098141Y-15604437D01*
X75097823Y-15607426D01*
X75097492Y-15608808D01*
X75097311Y-15608939D01*
X75093365Y-15606725D01*
X75082276Y-15600394D01*
X75064234Y-15590056D01*
X75039428Y-15575820D01*
X75008049Y-15557795D01*
X74970285Y-15536091D01*
X74926328Y-15510818D01*
X74876366Y-15482083D01*
X74820590Y-15449998D01*
X74759188Y-15414670D01*
X74692352Y-15376210D01*
X74620271Y-15334726D01*
X74543134Y-15290328D01*
X74461131Y-15243126D01*
X74374452Y-15193228D01*
X74283287Y-15140745D01*
X74187826Y-15085785D01*
X74088258Y-15028457D01*
X73984774Y-14968872D01*
X73877562Y-14907137D01*
X73766813Y-14843364D01*
X73652717Y-14777660D01*
X73535463Y-14710136D01*
X73415241Y-14640900D01*
X73292241Y-14570063D01*
X73166652Y-14497732D01*
X73038665Y-14424019D01*
X72908469Y-14349031D01*
X72776254Y-14272879D01*
X72642210Y-14195671D01*
X72506526Y-14117517D01*
X72369393Y-14038527D01*
X72230999Y-13958809D01*
X72091536Y-13878473D01*
X71951192Y-13797628D01*
X71810157Y-13716384D01*
X71668622Y-13634850D01*
X71526776Y-13553135D01*
X71384808Y-13471349D01*
X71242909Y-13389600D01*
X71101268Y-13307999D01*
X70960076Y-13226655D01*
X70819521Y-13145676D01*
X70679793Y-13065173D01*
X70541084Y-12985254D01*
X70403581Y-12906029D01*
X70267475Y-12827607D01*
X70132956Y-12750098D01*
X70000214Y-12673611D01*
X69869438Y-12598255D01*
X69740818Y-12524139D01*
X69614544Y-12451374D01*
X69490805Y-12380067D01*
X69369792Y-12310330D01*
X69251694Y-12242270D01*
X69136701Y-12175997D01*
X69025003Y-12111621D01*
X68916789Y-12049250D01*
X68812249Y-11988995D01*
X68711574Y-11930965D01*
X68614953Y-11875268D01*
X68522575Y-11822014D01*
X68434630Y-11771313D01*
X68351309Y-11723274D01*
X68272800Y-11678006D01*
X68199295Y-11635618D01*
X68130982Y-11596220D01*
X68068051Y-11559921D01*
X68010692Y-11526831D01*
X67959095Y-11497059D01*
X67913450Y-11470714D01*
X67873946Y-11447905D01*
X67840774Y-11428742D01*
X67814122Y-11413334D01*
X67794181Y-11401791D01*
X67781141Y-11394221D01*
X67775191Y-11390735D01*
X67774817Y-11390502D01*
X67777992Y-11388009D01*
G37*
X67777992Y-11388009D02*
X67787994Y-11381480D01*
X67804365Y-11371194D01*
X67826647Y-11357427D01*
X67854382Y-11340457D01*
X67887110Y-11320563D01*
X67924375Y-11298021D01*
X67965717Y-11273110D01*
X68010678Y-11246106D01*
X68058800Y-11217289D01*
X68109626Y-11186935D01*
X68162695Y-11155322D01*
X68176605Y-11147049D01*
X68240588Y-11109028D01*
X68297693Y-11075139D01*
X68348307Y-11045162D01*
X68392815Y-11018878D01*
X68431602Y-10996066D01*
X68465053Y-10976505D01*
X68493553Y-10959976D01*
X68517488Y-10946258D01*
X68537243Y-10935131D01*
X68553203Y-10926374D01*
X68565754Y-10919769D01*
X68575280Y-10915093D01*
X68582166Y-10912127D01*
X68586799Y-10910652D01*
X68589563Y-10910445D01*
X68590145Y-10910625D01*
X68594225Y-10912943D01*
X68605455Y-10919405D01*
X68623660Y-10929910D01*
X68648666Y-10944357D01*
X68680296Y-10962644D01*
X68718377Y-10984671D01*
X68762733Y-11010335D01*
X68813189Y-11039536D01*
X68869571Y-11072172D01*
X68931703Y-11108142D01*
X68999410Y-11147344D01*
X69072518Y-11189677D01*
X69150851Y-11235040D01*
X69234234Y-11283331D01*
X69322493Y-11334449D01*
X69415452Y-11388293D01*
X69512937Y-11444761D01*
X69614773Y-11503752D01*
X69720784Y-11565164D01*
X69830795Y-11628897D01*
X69944633Y-11694848D01*
X70062121Y-11762917D01*
X70183084Y-11833002D01*
X70307349Y-11905002D01*
X70434739Y-11978816D01*
X70565080Y-12054341D01*
X70698196Y-12131478D01*
X70833914Y-12210123D01*
X70972057Y-12290177D01*
X71112451Y-12371537D01*
X71254921Y-12454103D01*
X71399292Y-12537773D01*
X71498824Y-12595457D01*
X74398657Y-14276103D01*
X74400774Y-10917076D01*
X74402890Y-7558050D01*
X74722507Y-7378157D01*
X74771221Y-7350743D01*
X74818383Y-7324208D01*
X74863393Y-7298891D01*
X74905649Y-7275129D01*
X74944552Y-7253260D01*
X74979500Y-7233621D01*
X75009893Y-7216550D01*
X75035131Y-7202384D01*
X75054612Y-7191461D01*
X75067736Y-7184118D01*
X75072815Y-7181291D01*
X75103507Y-7164317D01*
X75103507Y-11387817D01*
X75103506Y-11617491D01*
X75103503Y-11838847D01*
X75103497Y-12052034D01*
X75103488Y-12257203D01*
X75103477Y-12454501D01*
X75103463Y-12644077D01*
X75103445Y-12826082D01*
X75103424Y-13000664D01*
X75103399Y-13167972D01*
X75103370Y-13328155D01*
X75103336Y-13481362D01*
X75103299Y-13627743D01*
X75103256Y-13767446D01*
X75103209Y-13900621D01*
X75103157Y-14027417D01*
X75103099Y-14147982D01*
X75103036Y-14262467D01*
X75102967Y-14371019D01*
X75102893Y-14473788D01*
X75102812Y-14570924D01*
X75102724Y-14662575D01*
X75102630Y-14748890D01*
X75102530Y-14830019D01*
X75102422Y-14906110D01*
X75102307Y-14977313D01*
X75102184Y-15043777D01*
X75102054Y-15105651D01*
X75101916Y-15163083D01*
X75101769Y-15216224D01*
X75101615Y-15265222D01*
X75101451Y-15310226D01*
X75101279Y-15351386D01*
X75101098Y-15388850D01*
X75100908Y-15422767D01*
X75100708Y-15453287D01*
X75100498Y-15480559D01*
X75100279Y-15504732D01*
X75100049Y-15525955D01*
X75099810Y-15544376D01*
X75099559Y-15560146D01*
X75099298Y-15573414D01*
X75099026Y-15584327D01*
X75098742Y-15593036D01*
X75098448Y-15599689D01*
X75098141Y-15604437D01*
X75097823Y-15607426D01*
X75097492Y-15608808D01*
X75097311Y-15608939D01*
X75093365Y-15606725D01*
X75082276Y-15600394D01*
X75064234Y-15590056D01*
X75039428Y-15575820D01*
X75008049Y-15557795D01*
X74970285Y-15536091D01*
X74926328Y-15510818D01*
X74876366Y-15482083D01*
X74820590Y-15449998D01*
X74759188Y-15414670D01*
X74692352Y-15376210D01*
X74620271Y-15334726D01*
X74543134Y-15290328D01*
X74461131Y-15243126D01*
X74374452Y-15193228D01*
X74283287Y-15140745D01*
X74187826Y-15085785D01*
X74088258Y-15028457D01*
X73984774Y-14968872D01*
X73877562Y-14907137D01*
X73766813Y-14843364D01*
X73652717Y-14777660D01*
X73535463Y-14710136D01*
X73415241Y-14640900D01*
X73292241Y-14570063D01*
X73166652Y-14497732D01*
X73038665Y-14424019D01*
X72908469Y-14349031D01*
X72776254Y-14272879D01*
X72642210Y-14195671D01*
X72506526Y-14117517D01*
X72369393Y-14038527D01*
X72230999Y-13958809D01*
X72091536Y-13878473D01*
X71951192Y-13797628D01*
X71810157Y-13716384D01*
X71668622Y-13634850D01*
X71526776Y-13553135D01*
X71384808Y-13471349D01*
X71242909Y-13389600D01*
X71101268Y-13307999D01*
X70960076Y-13226655D01*
X70819521Y-13145676D01*
X70679793Y-13065173D01*
X70541084Y-12985254D01*
X70403581Y-12906029D01*
X70267475Y-12827607D01*
X70132956Y-12750098D01*
X70000214Y-12673611D01*
X69869438Y-12598255D01*
X69740818Y-12524139D01*
X69614544Y-12451374D01*
X69490805Y-12380067D01*
X69369792Y-12310330D01*
X69251694Y-12242270D01*
X69136701Y-12175997D01*
X69025003Y-12111621D01*
X68916789Y-12049250D01*
X68812249Y-11988995D01*
X68711574Y-11930965D01*
X68614953Y-11875268D01*
X68522575Y-11822014D01*
X68434630Y-11771313D01*
X68351309Y-11723274D01*
X68272800Y-11678006D01*
X68199295Y-11635618D01*
X68130982Y-11596220D01*
X68068051Y-11559921D01*
X68010692Y-11526831D01*
X67959095Y-11497059D01*
X67913450Y-11470714D01*
X67873946Y-11447905D01*
X67840774Y-11428742D01*
X67814122Y-11413334D01*
X67794181Y-11401791D01*
X67781141Y-11394221D01*
X67775191Y-11390735D01*
X67774817Y-11390502D01*
X67777992Y-11388009D01*
G36*
X71539022Y-789823D02*
G01*
X71549840Y-783300D01*
X71567383Y-772762D01*
X71591381Y-758370D01*
X71621566Y-740286D01*
X71657668Y-718668D01*
X71699418Y-693679D01*
X71746548Y-665479D01*
X71798788Y-634229D01*
X71855869Y-600089D01*
X71917522Y-563221D01*
X71983478Y-523784D01*
X72053468Y-481940D01*
X72127224Y-437850D01*
X72204475Y-391673D01*
X72284953Y-343571D01*
X72368388Y-293705D01*
X72454513Y-242235D01*
X72543057Y-189322D01*
X72633752Y-135126D01*
X72726328Y-79809D01*
X72820517Y-23531D01*
X72916049Y33547D01*
X73012655Y91264D01*
X73110067Y149460D01*
X73208016Y207974D01*
X73306231Y266646D01*
X73404444Y325313D01*
X73502387Y383817D01*
X73599790Y441996D01*
X73696384Y499689D01*
X73791899Y556735D01*
X73886068Y612975D01*
X73978620Y668247D01*
X74069287Y722390D01*
X74157800Y775244D01*
X74243889Y826648D01*
X74327286Y876441D01*
X74407722Y924462D01*
X74484927Y970552D01*
X74558633Y1014549D01*
X74628569Y1056292D01*
X74694469Y1095620D01*
X74756061Y1132374D01*
X74813078Y1166392D01*
X74865249Y1197513D01*
X74912307Y1225577D01*
X74953982Y1250424D01*
X74990005Y1271891D01*
X75020107Y1289819D01*
X75044019Y1304047D01*
X75061471Y1314414D01*
X75072195Y1320760D01*
X75075922Y1322923D01*
X75075923Y1322923D01*
X75076137Y1318749D01*
X75076340Y1306463D01*
X75076531Y1286419D01*
X75076710Y1258974D01*
X75076879Y1224481D01*
X75077035Y1183295D01*
X75077181Y1135772D01*
X75077315Y1082265D01*
X75077439Y1023130D01*
X75077552Y958721D01*
X75077654Y889394D01*
X75077745Y815503D01*
X75077826Y737402D01*
X75077896Y655447D01*
X75077956Y569993D01*
X75078006Y481393D01*
X75078046Y390004D01*
X75078076Y296179D01*
X75078096Y200274D01*
X75078106Y102643D01*
X75078106Y3641D01*
X75078097Y-96376D01*
X75078079Y-197056D01*
X75078051Y-298041D01*
X75078014Y-398979D01*
X75077967Y-499513D01*
X75077912Y-599289D01*
X75077848Y-697953D01*
X75077775Y-795149D01*
X75077694Y-890523D01*
X75077604Y-983721D01*
X75077505Y-1074386D01*
X75077398Y-1162165D01*
X75077283Y-1246702D01*
X75077160Y-1327643D01*
X75077029Y-1404633D01*
X75076890Y-1477318D01*
X75076743Y-1545342D01*
X75076588Y-1608350D01*
X75076426Y-1665989D01*
X75076256Y-1717903D01*
X75076079Y-1763737D01*
X75075895Y-1803136D01*
X75075703Y-1835746D01*
X75075505Y-1861212D01*
X75075299Y-1879180D01*
X75075087Y-1889293D01*
X75074932Y-1891512D01*
X75070658Y-1892746D01*
X75058501Y-1896121D01*
X75038750Y-1901559D01*
X75011691Y-1908981D01*
X74977614Y-1918309D01*
X74936805Y-1929464D01*
X74889553Y-1942369D01*
X74836146Y-1956944D01*
X74776871Y-1973111D01*
X74712016Y-1990793D01*
X74641869Y-2009909D01*
X74566718Y-2030383D01*
X74486851Y-2052135D01*
X74402555Y-2075087D01*
X74314119Y-2099161D01*
X74221830Y-2124278D01*
X74125977Y-2150359D01*
X74026847Y-2177328D01*
X73924727Y-2205103D01*
X73819907Y-2233609D01*
X73712673Y-2262765D01*
X73603314Y-2292494D01*
X73588515Y-2296517D01*
X73454873Y-2332829D01*
X73326616Y-2367650D01*
X73203887Y-2400942D01*
X73086832Y-2432666D01*
X72975593Y-2462782D01*
X72870315Y-2491253D01*
X72771142Y-2518040D01*
X72678218Y-2543103D01*
X72591688Y-2566405D01*
X72511695Y-2587907D01*
X72438384Y-2607569D01*
X72371899Y-2625354D01*
X72312383Y-2641222D01*
X72259982Y-2655135D01*
X72214839Y-2667055D01*
X72177099Y-2676941D01*
X72146905Y-2684757D01*
X72124401Y-2690463D01*
X72109733Y-2694020D01*
X72103043Y-2695390D01*
X72102615Y-2695370D01*
X72101075Y-2690814D01*
X72097264Y-2678604D01*
X72091311Y-2659174D01*
X72083343Y-2632955D01*
X72073490Y-2600382D01*
X72061882Y-2561886D01*
X72048647Y-2517901D01*
X72033915Y-2468859D01*
X72017814Y-2415194D01*
X72000473Y-2357339D01*
X71982023Y-2295725D01*
X71962590Y-2230787D01*
X71942306Y-2162957D01*
X71921298Y-2092667D01*
X71899696Y-2020352D01*
X71877629Y-1946443D01*
X71855226Y-1871373D01*
X71832616Y-1795576D01*
X71809928Y-1719484D01*
X71787292Y-1643531D01*
X71764835Y-1568148D01*
X71742688Y-1493770D01*
X71720978Y-1420828D01*
X71699837Y-1349756D01*
X71679391Y-1280987D01*
X71659772Y-1214953D01*
X71641106Y-1152087D01*
X71623525Y-1092823D01*
X71607156Y-1037593D01*
X71592128Y-986830D01*
X71578572Y-940967D01*
X71566615Y-900436D01*
X71556387Y-865672D01*
X71548017Y-837105D01*
X71541635Y-815171D01*
X71537368Y-800300D01*
X71535346Y-792927D01*
X71535197Y-792170D01*
X71539022Y-789823D01*
G37*
X71539022Y-789823D02*
X71549840Y-783300D01*
X71567383Y-772762D01*
X71591381Y-758370D01*
X71621566Y-740286D01*
X71657668Y-718668D01*
X71699418Y-693679D01*
X71746548Y-665479D01*
X71798788Y-634229D01*
X71855869Y-600089D01*
X71917522Y-563221D01*
X71983478Y-523784D01*
X72053468Y-481940D01*
X72127224Y-437850D01*
X72204475Y-391673D01*
X72284953Y-343571D01*
X72368388Y-293705D01*
X72454513Y-242235D01*
X72543057Y-189322D01*
X72633752Y-135126D01*
X72726328Y-79809D01*
X72820517Y-23531D01*
X72916049Y33547D01*
X73012655Y91264D01*
X73110067Y149460D01*
X73208016Y207974D01*
X73306231Y266646D01*
X73404444Y325313D01*
X73502387Y383817D01*
X73599790Y441996D01*
X73696384Y499689D01*
X73791899Y556735D01*
X73886068Y612975D01*
X73978620Y668247D01*
X74069287Y722390D01*
X74157800Y775244D01*
X74243889Y826648D01*
X74327286Y876441D01*
X74407722Y924462D01*
X74484927Y970552D01*
X74558633Y1014549D01*
X74628569Y1056292D01*
X74694469Y1095620D01*
X74756061Y1132374D01*
X74813078Y1166392D01*
X74865249Y1197513D01*
X74912307Y1225577D01*
X74953982Y1250424D01*
X74990005Y1271891D01*
X75020107Y1289819D01*
X75044019Y1304047D01*
X75061471Y1314414D01*
X75072195Y1320760D01*
X75075922Y1322923D01*
X75075923Y1322923D01*
X75076137Y1318749D01*
X75076340Y1306463D01*
X75076531Y1286419D01*
X75076710Y1258974D01*
X75076879Y1224481D01*
X75077035Y1183295D01*
X75077181Y1135772D01*
X75077315Y1082265D01*
X75077439Y1023130D01*
X75077552Y958721D01*
X75077654Y889394D01*
X75077745Y815503D01*
X75077826Y737402D01*
X75077896Y655447D01*
X75077956Y569993D01*
X75078006Y481393D01*
X75078046Y390004D01*
X75078076Y296179D01*
X75078096Y200274D01*
X75078106Y102643D01*
X75078106Y3641D01*
X75078097Y-96376D01*
X75078079Y-197056D01*
X75078051Y-298041D01*
X75078014Y-398979D01*
X75077967Y-499513D01*
X75077912Y-599289D01*
X75077848Y-697953D01*
X75077775Y-795149D01*
X75077694Y-890523D01*
X75077604Y-983721D01*
X75077505Y-1074386D01*
X75077398Y-1162165D01*
X75077283Y-1246702D01*
X75077160Y-1327643D01*
X75077029Y-1404633D01*
X75076890Y-1477318D01*
X75076743Y-1545342D01*
X75076588Y-1608350D01*
X75076426Y-1665989D01*
X75076256Y-1717903D01*
X75076079Y-1763737D01*
X75075895Y-1803136D01*
X75075703Y-1835746D01*
X75075505Y-1861212D01*
X75075299Y-1879180D01*
X75075087Y-1889293D01*
X75074932Y-1891512D01*
X75070658Y-1892746D01*
X75058501Y-1896121D01*
X75038750Y-1901559D01*
X75011691Y-1908981D01*
X74977614Y-1918309D01*
X74936805Y-1929464D01*
X74889553Y-1942369D01*
X74836146Y-1956944D01*
X74776871Y-1973111D01*
X74712016Y-1990793D01*
X74641869Y-2009909D01*
X74566718Y-2030383D01*
X74486851Y-2052135D01*
X74402555Y-2075087D01*
X74314119Y-2099161D01*
X74221830Y-2124278D01*
X74125977Y-2150359D01*
X74026847Y-2177328D01*
X73924727Y-2205103D01*
X73819907Y-2233609D01*
X73712673Y-2262765D01*
X73603314Y-2292494D01*
X73588515Y-2296517D01*
X73454873Y-2332829D01*
X73326616Y-2367650D01*
X73203887Y-2400942D01*
X73086832Y-2432666D01*
X72975593Y-2462782D01*
X72870315Y-2491253D01*
X72771142Y-2518040D01*
X72678218Y-2543103D01*
X72591688Y-2566405D01*
X72511695Y-2587907D01*
X72438384Y-2607569D01*
X72371899Y-2625354D01*
X72312383Y-2641222D01*
X72259982Y-2655135D01*
X72214839Y-2667055D01*
X72177099Y-2676941D01*
X72146905Y-2684757D01*
X72124401Y-2690463D01*
X72109733Y-2694020D01*
X72103043Y-2695390D01*
X72102615Y-2695370D01*
X72101075Y-2690814D01*
X72097264Y-2678604D01*
X72091311Y-2659174D01*
X72083343Y-2632955D01*
X72073490Y-2600382D01*
X72061882Y-2561886D01*
X72048647Y-2517901D01*
X72033915Y-2468859D01*
X72017814Y-2415194D01*
X72000473Y-2357339D01*
X71982023Y-2295725D01*
X71962590Y-2230787D01*
X71942306Y-2162957D01*
X71921298Y-2092667D01*
X71899696Y-2020352D01*
X71877629Y-1946443D01*
X71855226Y-1871373D01*
X71832616Y-1795576D01*
X71809928Y-1719484D01*
X71787292Y-1643531D01*
X71764835Y-1568148D01*
X71742688Y-1493770D01*
X71720978Y-1420828D01*
X71699837Y-1349756D01*
X71679391Y-1280987D01*
X71659772Y-1214953D01*
X71641106Y-1152087D01*
X71623525Y-1092823D01*
X71607156Y-1037593D01*
X71592128Y-986830D01*
X71578572Y-940967D01*
X71566615Y-900436D01*
X71556387Y-865672D01*
X71548017Y-837105D01*
X71541635Y-815171D01*
X71537368Y-800300D01*
X71535346Y-792927D01*
X71535197Y-792170D01*
X71539022Y-789823D01*
G36*
X68579944Y-4963467D02*
G01*
X68579957Y-4846989D01*
X68579977Y-4732963D01*
X68580004Y-4621673D01*
X68580039Y-4513403D01*
X68580081Y-4408439D01*
X68580129Y-4307065D01*
X68580184Y-4209566D01*
X68580245Y-4116227D01*
X68580312Y-4027333D01*
X68580384Y-3943169D01*
X68580462Y-3864019D01*
X68580544Y-3790168D01*
X68580632Y-3721901D01*
X68580723Y-3659503D01*
X68580819Y-3603259D01*
X68580919Y-3553453D01*
X68581022Y-3510370D01*
X68581129Y-3474295D01*
X68581239Y-3445513D01*
X68581351Y-3424309D01*
X68581466Y-3410967D01*
X68581583Y-3405773D01*
X68581597Y-3405710D01*
X68585311Y-3407803D01*
X68596148Y-3414000D01*
X68613895Y-3424178D01*
X68638341Y-3438215D01*
X68669272Y-3455987D01*
X68706475Y-3477374D01*
X68749737Y-3502252D01*
X68798847Y-3530498D01*
X68853590Y-3561990D01*
X68913755Y-3596606D01*
X68979128Y-3634222D01*
X69049497Y-3674717D01*
X69124648Y-3717968D01*
X69204369Y-3763852D01*
X69288448Y-3812246D01*
X69376671Y-3863029D01*
X69468825Y-3916077D01*
X69564699Y-3971269D01*
X69664078Y-4028480D01*
X69766751Y-4087590D01*
X69872504Y-4148475D01*
X69981124Y-4211013D01*
X70092400Y-4275082D01*
X70206117Y-4340558D01*
X70322064Y-4407319D01*
X70440027Y-4475243D01*
X70559794Y-4544207D01*
X70681152Y-4614088D01*
X70803887Y-4684765D01*
X70927788Y-4756113D01*
X71052642Y-4828012D01*
X71178235Y-4900338D01*
X71304355Y-4972969D01*
X71430789Y-5045782D01*
X71557324Y-5118655D01*
X71683748Y-5191465D01*
X71809847Y-5264089D01*
X71935410Y-5336405D01*
X72060222Y-5408291D01*
X72184072Y-5479624D01*
X72306746Y-5550281D01*
X72428032Y-5620140D01*
X72547717Y-5689078D01*
X72665588Y-5756973D01*
X72781432Y-5823703D01*
X72895037Y-5889143D01*
X73006189Y-5953173D01*
X73114676Y-6015669D01*
X73220286Y-6076510D01*
X73322805Y-6135571D01*
X73422020Y-6192732D01*
X73517719Y-6247869D01*
X73609689Y-6300859D01*
X73697718Y-6351581D01*
X73781591Y-6399911D01*
X73861097Y-6445728D01*
X73936023Y-6488908D01*
X74006156Y-6529329D01*
X74071283Y-6566869D01*
X74131191Y-6601404D01*
X74185668Y-6632813D01*
X74234501Y-6660972D01*
X74277477Y-6685760D01*
X74314382Y-6707053D01*
X74345006Y-6724730D01*
X74369134Y-6738667D01*
X74386553Y-6748743D01*
X74397052Y-6754833D01*
X74400421Y-6756817D01*
X74396319Y-6756908D01*
X74383966Y-6756998D01*
X74363579Y-6757086D01*
X74335373Y-6757174D01*
X74299564Y-6757259D01*
X74256368Y-6757343D01*
X74206001Y-6757425D01*
X74148680Y-6757505D01*
X74084619Y-6757583D01*
X74014035Y-6757658D01*
X73937144Y-6757732D01*
X73854162Y-6757802D01*
X73765304Y-6757871D01*
X73670788Y-6757936D01*
X73570828Y-6757999D01*
X73465640Y-6758058D01*
X73355441Y-6758115D01*
X73240447Y-6758168D01*
X73120874Y-6758218D01*
X72996936Y-6758265D01*
X72868851Y-6758307D01*
X72736835Y-6758347D01*
X72601103Y-6758382D01*
X72461871Y-6758413D01*
X72319355Y-6758440D01*
X72173772Y-6758463D01*
X72025337Y-6758482D01*
X71874265Y-6758496D01*
X71720774Y-6758505D01*
X71565079Y-6758510D01*
X68579940Y-6758510D01*
X68579940Y-5082110D01*
X68579944Y-4963467D01*
G37*
X68579944Y-4963467D02*
X68579957Y-4846989D01*
X68579977Y-4732963D01*
X68580004Y-4621673D01*
X68580039Y-4513403D01*
X68580081Y-4408439D01*
X68580129Y-4307065D01*
X68580184Y-4209566D01*
X68580245Y-4116227D01*
X68580312Y-4027333D01*
X68580384Y-3943169D01*
X68580462Y-3864019D01*
X68580544Y-3790168D01*
X68580632Y-3721901D01*
X68580723Y-3659503D01*
X68580819Y-3603259D01*
X68580919Y-3553453D01*
X68581022Y-3510370D01*
X68581129Y-3474295D01*
X68581239Y-3445513D01*
X68581351Y-3424309D01*
X68581466Y-3410967D01*
X68581583Y-3405773D01*
X68581597Y-3405710D01*
X68585311Y-3407803D01*
X68596148Y-3414000D01*
X68613895Y-3424178D01*
X68638341Y-3438215D01*
X68669272Y-3455987D01*
X68706475Y-3477374D01*
X68749737Y-3502252D01*
X68798847Y-3530498D01*
X68853590Y-3561990D01*
X68913755Y-3596606D01*
X68979128Y-3634222D01*
X69049497Y-3674717D01*
X69124648Y-3717968D01*
X69204369Y-3763852D01*
X69288448Y-3812246D01*
X69376671Y-3863029D01*
X69468825Y-3916077D01*
X69564699Y-3971269D01*
X69664078Y-4028480D01*
X69766751Y-4087590D01*
X69872504Y-4148475D01*
X69981124Y-4211013D01*
X70092400Y-4275082D01*
X70206117Y-4340558D01*
X70322064Y-4407319D01*
X70440027Y-4475243D01*
X70559794Y-4544207D01*
X70681152Y-4614088D01*
X70803887Y-4684765D01*
X70927788Y-4756113D01*
X71052642Y-4828012D01*
X71178235Y-4900338D01*
X71304355Y-4972969D01*
X71430789Y-5045782D01*
X71557324Y-5118655D01*
X71683748Y-5191465D01*
X71809847Y-5264089D01*
X71935410Y-5336405D01*
X72060222Y-5408291D01*
X72184072Y-5479624D01*
X72306746Y-5550281D01*
X72428032Y-5620140D01*
X72547717Y-5689078D01*
X72665588Y-5756973D01*
X72781432Y-5823703D01*
X72895037Y-5889143D01*
X73006189Y-5953173D01*
X73114676Y-6015669D01*
X73220286Y-6076510D01*
X73322805Y-6135571D01*
X73422020Y-6192732D01*
X73517719Y-6247869D01*
X73609689Y-6300859D01*
X73697718Y-6351581D01*
X73781591Y-6399911D01*
X73861097Y-6445728D01*
X73936023Y-6488908D01*
X74006156Y-6529329D01*
X74071283Y-6566869D01*
X74131191Y-6601404D01*
X74185668Y-6632813D01*
X74234501Y-6660972D01*
X74277477Y-6685760D01*
X74314382Y-6707053D01*
X74345006Y-6724730D01*
X74369134Y-6738667D01*
X74386553Y-6748743D01*
X74397052Y-6754833D01*
X74400421Y-6756817D01*
X74396319Y-6756908D01*
X74383966Y-6756998D01*
X74363579Y-6757086D01*
X74335373Y-6757174D01*
X74299564Y-6757259D01*
X74256368Y-6757343D01*
X74206001Y-6757425D01*
X74148680Y-6757505D01*
X74084619Y-6757583D01*
X74014035Y-6757658D01*
X73937144Y-6757732D01*
X73854162Y-6757802D01*
X73765304Y-6757871D01*
X73670788Y-6757936D01*
X73570828Y-6757999D01*
X73465640Y-6758058D01*
X73355441Y-6758115D01*
X73240447Y-6758168D01*
X73120874Y-6758218D01*
X72996936Y-6758265D01*
X72868851Y-6758307D01*
X72736835Y-6758347D01*
X72601103Y-6758382D01*
X72461871Y-6758413D01*
X72319355Y-6758440D01*
X72173772Y-6758463D01*
X72025337Y-6758482D01*
X71874265Y-6758496D01*
X71720774Y-6758505D01*
X71565079Y-6758510D01*
X68579940Y-6758510D01*
X68579940Y-5082110D01*
X68579944Y-4963467D01*
G36*
X68580642Y-8179143D02*
G01*
X68580651Y-8095140D01*
X68580667Y-8016153D01*
X68580692Y-7942468D01*
X68580723Y-7874371D01*
X68580763Y-7812146D01*
X68580809Y-7756081D01*
X68580863Y-7706460D01*
X68580925Y-7663569D01*
X68580994Y-7627693D01*
X68581070Y-7599119D01*
X68581153Y-7578132D01*
X68581243Y-7565016D01*
X68581341Y-7560059D01*
X68581349Y-7560024D01*
X68585623Y-7559949D01*
X68598148Y-7559878D01*
X68618706Y-7559811D01*
X68647082Y-7559749D01*
X68683058Y-7559690D01*
X68726419Y-7559635D01*
X68776949Y-7559585D01*
X68834430Y-7559539D01*
X68898646Y-7559497D01*
X68969381Y-7559460D01*
X69046419Y-7559426D01*
X69129543Y-7559397D01*
X69218536Y-7559372D01*
X69313183Y-7559352D01*
X69413266Y-7559336D01*
X69518570Y-7559325D01*
X69628877Y-7559317D01*
X69743972Y-7559315D01*
X69863638Y-7559317D01*
X69987659Y-7559323D01*
X70115818Y-7559334D01*
X70247899Y-7559349D01*
X70383685Y-7559369D01*
X70522961Y-7559394D01*
X70665508Y-7559423D01*
X70811112Y-7559457D01*
X70959556Y-7559496D01*
X71110623Y-7559539D01*
X71264097Y-7559588D01*
X71419761Y-7559641D01*
X71489804Y-7559666D01*
X74396839Y-7560727D01*
X68582057Y-10903039D01*
X68580993Y-9232241D01*
X68580921Y-9113783D01*
X68580858Y-8997485D01*
X68580803Y-8883633D01*
X68580756Y-8772512D01*
X68580717Y-8664409D01*
X68580686Y-8559608D01*
X68580663Y-8458395D01*
X68580648Y-8361057D01*
X68580641Y-8267877D01*
X68580642Y-8179143D01*
G37*
X68580642Y-8179143D02*
X68580651Y-8095140D01*
X68580667Y-8016153D01*
X68580692Y-7942468D01*
X68580723Y-7874371D01*
X68580763Y-7812146D01*
X68580809Y-7756081D01*
X68580863Y-7706460D01*
X68580925Y-7663569D01*
X68580994Y-7627693D01*
X68581070Y-7599119D01*
X68581153Y-7578132D01*
X68581243Y-7565016D01*
X68581341Y-7560059D01*
X68581349Y-7560024D01*
X68585623Y-7559949D01*
X68598148Y-7559878D01*
X68618706Y-7559811D01*
X68647082Y-7559749D01*
X68683058Y-7559690D01*
X68726419Y-7559635D01*
X68776949Y-7559585D01*
X68834430Y-7559539D01*
X68898646Y-7559497D01*
X68969381Y-7559460D01*
X69046419Y-7559426D01*
X69129543Y-7559397D01*
X69218536Y-7559372D01*
X69313183Y-7559352D01*
X69413266Y-7559336D01*
X69518570Y-7559325D01*
X69628877Y-7559317D01*
X69743972Y-7559315D01*
X69863638Y-7559317D01*
X69987659Y-7559323D01*
X70115818Y-7559334D01*
X70247899Y-7559349D01*
X70383685Y-7559369D01*
X70522961Y-7559394D01*
X70665508Y-7559423D01*
X70811112Y-7559457D01*
X70959556Y-7559496D01*
X71110623Y-7559539D01*
X71264097Y-7559588D01*
X71419761Y-7559641D01*
X71489804Y-7559666D01*
X74396839Y-7560727D01*
X68582057Y-10903039D01*
X68580993Y-9232241D01*
X68580921Y-9113783D01*
X68580858Y-8997485D01*
X68580803Y-8883633D01*
X68580756Y-8772512D01*
X68580717Y-8664409D01*
X68580686Y-8559608D01*
X68580663Y-8458395D01*
X68580648Y-8361057D01*
X68580641Y-8267877D01*
X68580642Y-8179143D01*
G36*
X68536683Y-2477841D02*
G01*
X68540870Y-2475290D01*
X68552103Y-2468862D01*
X68570040Y-2458747D01*
X68594342Y-2445131D01*
X68624668Y-2428203D01*
X68660678Y-2408151D01*
X68702030Y-2385162D01*
X68748385Y-2359424D01*
X68799402Y-2331126D01*
X68854740Y-2300454D01*
X68914060Y-2267598D01*
X68977019Y-2232744D01*
X69043279Y-2196081D01*
X69112498Y-2157797D01*
X69184336Y-2118078D01*
X69258453Y-2077115D01*
X69334508Y-2035093D01*
X69412160Y-1992201D01*
X69491069Y-1948627D01*
X69570895Y-1904558D01*
X69651296Y-1860184D01*
X69731934Y-1815690D01*
X69812466Y-1771266D01*
X69892552Y-1727099D01*
X69971853Y-1683377D01*
X70050027Y-1640288D01*
X70126735Y-1598020D01*
X70201634Y-1556761D01*
X70274386Y-1516698D01*
X70344649Y-1478019D01*
X70412084Y-1440912D01*
X70476349Y-1405566D01*
X70537103Y-1372167D01*
X70594008Y-1340905D01*
X70646721Y-1311966D01*
X70694903Y-1285539D01*
X70738213Y-1261811D01*
X70776311Y-1240970D01*
X70808856Y-1223204D01*
X70835507Y-1208702D01*
X70855924Y-1197650D01*
X70869767Y-1190238D01*
X70876695Y-1186651D01*
X70877466Y-1186336D01*
X70878615Y-1190614D01*
X70881873Y-1202791D01*
X70887162Y-1222586D01*
X70894409Y-1249716D01*
X70903539Y-1283900D01*
X70914475Y-1324858D01*
X70927142Y-1372306D01*
X70941467Y-1425964D01*
X70957373Y-1485550D01*
X70974785Y-1550782D01*
X70993629Y-1621379D01*
X71013828Y-1697060D01*
X71035309Y-1777542D01*
X71057995Y-1862544D01*
X71081811Y-1951785D01*
X71106684Y-2044984D01*
X71132536Y-2141857D01*
X71159294Y-2242125D01*
X71186881Y-2345505D01*
X71215223Y-2451716D01*
X71244246Y-2560476D01*
X71273872Y-2671504D01*
X71293566Y-2745310D01*
X71323560Y-2857715D01*
X71353005Y-2968057D01*
X71381825Y-3076053D01*
X71409945Y-3181420D01*
X71437290Y-3283875D01*
X71463783Y-3383138D01*
X71489350Y-3478924D01*
X71513915Y-3570951D01*
X71537403Y-3658937D01*
X71559738Y-3742598D01*
X71580844Y-3821654D01*
X71600647Y-3895820D01*
X71619071Y-3964814D01*
X71636040Y-4028354D01*
X71651479Y-4086158D01*
X71665313Y-4137942D01*
X71677466Y-4183424D01*
X71687862Y-4222321D01*
X71696426Y-4254351D01*
X71703083Y-4279232D01*
X71707758Y-4296680D01*
X71710374Y-4306414D01*
X71710935Y-4308469D01*
X71711769Y-4314639D01*
X71710872Y-4315877D01*
X71707089Y-4313782D01*
X71696210Y-4307588D01*
X71678473Y-4297430D01*
X71654114Y-4283445D01*
X71623369Y-4265770D01*
X71586474Y-4244541D01*
X71543666Y-4219893D01*
X71495180Y-4191964D01*
X71441253Y-4160888D01*
X71382121Y-4126804D01*
X71318021Y-4089846D01*
X71249188Y-4050152D01*
X71175859Y-4007856D01*
X71098271Y-3963097D01*
X71016658Y-3916009D01*
X70931259Y-3866730D01*
X70842308Y-3815395D01*
X70750042Y-3762140D01*
X70654697Y-3707103D01*
X70556510Y-3650418D01*
X70455717Y-3592223D01*
X70352554Y-3532653D01*
X70247258Y-3471846D01*
X70140063Y-3409936D01*
X70120720Y-3398764D01*
X69999765Y-3328889D01*
X69882332Y-3261021D01*
X69768594Y-3195260D01*
X69658724Y-3131708D01*
X69552896Y-3070465D01*
X69451282Y-3011633D01*
X69354057Y-2955310D01*
X69261393Y-2901600D01*
X69173464Y-2850602D01*
X69090443Y-2802416D01*
X69012504Y-2757145D01*
X68939819Y-2714888D01*
X68872563Y-2675746D01*
X68810908Y-2639821D01*
X68755028Y-2607213D01*
X68705096Y-2578022D01*
X68661285Y-2552349D01*
X68623770Y-2530296D01*
X68592722Y-2511963D01*
X68568316Y-2497451D01*
X68550725Y-2486860D01*
X68540121Y-2480291D01*
X68536680Y-2477845D01*
X68536683Y-2477841D01*
G37*
X68536683Y-2477841D02*
X68540870Y-2475290D01*
X68552103Y-2468862D01*
X68570040Y-2458747D01*
X68594342Y-2445131D01*
X68624668Y-2428203D01*
X68660678Y-2408151D01*
X68702030Y-2385162D01*
X68748385Y-2359424D01*
X68799402Y-2331126D01*
X68854740Y-2300454D01*
X68914060Y-2267598D01*
X68977019Y-2232744D01*
X69043279Y-2196081D01*
X69112498Y-2157797D01*
X69184336Y-2118078D01*
X69258453Y-2077115D01*
X69334508Y-2035093D01*
X69412160Y-1992201D01*
X69491069Y-1948627D01*
X69570895Y-1904558D01*
X69651296Y-1860184D01*
X69731934Y-1815690D01*
X69812466Y-1771266D01*
X69892552Y-1727099D01*
X69971853Y-1683377D01*
X70050027Y-1640288D01*
X70126735Y-1598020D01*
X70201634Y-1556761D01*
X70274386Y-1516698D01*
X70344649Y-1478019D01*
X70412084Y-1440912D01*
X70476349Y-1405566D01*
X70537103Y-1372167D01*
X70594008Y-1340905D01*
X70646721Y-1311966D01*
X70694903Y-1285539D01*
X70738213Y-1261811D01*
X70776311Y-1240970D01*
X70808856Y-1223204D01*
X70835507Y-1208702D01*
X70855924Y-1197650D01*
X70869767Y-1190238D01*
X70876695Y-1186651D01*
X70877466Y-1186336D01*
X70878615Y-1190614D01*
X70881873Y-1202791D01*
X70887162Y-1222586D01*
X70894409Y-1249716D01*
X70903539Y-1283900D01*
X70914475Y-1324858D01*
X70927142Y-1372306D01*
X70941467Y-1425964D01*
X70957373Y-1485550D01*
X70974785Y-1550782D01*
X70993629Y-1621379D01*
X71013828Y-1697060D01*
X71035309Y-1777542D01*
X71057995Y-1862544D01*
X71081811Y-1951785D01*
X71106684Y-2044984D01*
X71132536Y-2141857D01*
X71159294Y-2242125D01*
X71186881Y-2345505D01*
X71215223Y-2451716D01*
X71244246Y-2560476D01*
X71273872Y-2671504D01*
X71293566Y-2745310D01*
X71323560Y-2857715D01*
X71353005Y-2968057D01*
X71381825Y-3076053D01*
X71409945Y-3181420D01*
X71437290Y-3283875D01*
X71463783Y-3383138D01*
X71489350Y-3478924D01*
X71513915Y-3570951D01*
X71537403Y-3658937D01*
X71559738Y-3742598D01*
X71580844Y-3821654D01*
X71600647Y-3895820D01*
X71619071Y-3964814D01*
X71636040Y-4028354D01*
X71651479Y-4086158D01*
X71665313Y-4137942D01*
X71677466Y-4183424D01*
X71687862Y-4222321D01*
X71696426Y-4254351D01*
X71703083Y-4279232D01*
X71707758Y-4296680D01*
X71710374Y-4306414D01*
X71710935Y-4308469D01*
X71711769Y-4314639D01*
X71710872Y-4315877D01*
X71707089Y-4313782D01*
X71696210Y-4307588D01*
X71678473Y-4297430D01*
X71654114Y-4283445D01*
X71623369Y-4265770D01*
X71586474Y-4244541D01*
X71543666Y-4219893D01*
X71495180Y-4191964D01*
X71441253Y-4160888D01*
X71382121Y-4126804D01*
X71318021Y-4089846D01*
X71249188Y-4050152D01*
X71175859Y-4007856D01*
X71098271Y-3963097D01*
X71016658Y-3916009D01*
X70931259Y-3866730D01*
X70842308Y-3815395D01*
X70750042Y-3762140D01*
X70654697Y-3707103D01*
X70556510Y-3650418D01*
X70455717Y-3592223D01*
X70352554Y-3532653D01*
X70247258Y-3471846D01*
X70140063Y-3409936D01*
X70120720Y-3398764D01*
X69999765Y-3328889D01*
X69882332Y-3261021D01*
X69768594Y-3195260D01*
X69658724Y-3131708D01*
X69552896Y-3070465D01*
X69451282Y-3011633D01*
X69354057Y-2955310D01*
X69261393Y-2901600D01*
X69173464Y-2850602D01*
X69090443Y-2802416D01*
X69012504Y-2757145D01*
X68939819Y-2714888D01*
X68872563Y-2675746D01*
X68810908Y-2639821D01*
X68755028Y-2607213D01*
X68705096Y-2578022D01*
X68661285Y-2552349D01*
X68623770Y-2530296D01*
X68592722Y-2511963D01*
X68568316Y-2497451D01*
X68550725Y-2486860D01*
X68540121Y-2480291D01*
X68536680Y-2477845D01*
X68536683Y-2477841D01*
G36*
X45585532Y-10253180D02*
G01*
X45573483Y-10256504D01*
X45553977Y-10261792D01*
X45527377Y-10268950D01*
X45494045Y-10277881D01*
X45454341Y-10288489D01*
X45408629Y-10300680D01*
X45357270Y-10314357D01*
X45300626Y-10329425D01*
X45239059Y-10345788D01*
X45172930Y-10363351D01*
X45102602Y-10382017D01*
X45028436Y-10401691D01*
X44950794Y-10422277D01*
X44870039Y-10443681D01*
X44786531Y-10465805D01*
X44700633Y-10488554D01*
X44612708Y-10511834D01*
X44523115Y-10535547D01*
X44432219Y-10559599D01*
X44340379Y-10583893D01*
X44247959Y-10608334D01*
X44155320Y-10632827D01*
X44062824Y-10657275D01*
X43970833Y-10681583D01*
X43879709Y-10705656D01*
X43789813Y-10729397D01*
X43701508Y-10752711D01*
X43615155Y-10775502D01*
X43531116Y-10797675D01*
X43449754Y-10819134D01*
X43371429Y-10839784D01*
X43296504Y-10859528D01*
X43225341Y-10878270D01*
X43158302Y-10895916D01*
X43095748Y-10912370D01*
X43038041Y-10927536D01*
X42985544Y-10941317D01*
X42938617Y-10953620D01*
X42897624Y-10964347D01*
X42862926Y-10973404D01*
X42834884Y-10980694D01*
X42813861Y-10986122D01*
X42800218Y-10989592D01*
X42794317Y-10991008D01*
X42794094Y-10991035D01*
X42793935Y-10986723D01*
X42793717Y-10974244D01*
X42793442Y-10953894D01*
X42793112Y-10925974D01*
X42792731Y-10890780D01*
X42792300Y-10848612D01*
X42791823Y-10799769D01*
X42791302Y-10744548D01*
X42790740Y-10683247D01*
X42790139Y-10616166D01*
X42789501Y-10543603D01*
X42788831Y-10465856D01*
X42788129Y-10383223D01*
X42787399Y-10296003D01*
X42786643Y-10204495D01*
X42785864Y-10108996D01*
X42785064Y-10009806D01*
X42784246Y-9907222D01*
X42783413Y-9801543D01*
X42782567Y-9693068D01*
X42781711Y-9582095D01*
X42780847Y-9468921D01*
X42780763Y-9457850D01*
X42779881Y-9341711D01*
X42779002Y-9226463D01*
X42778130Y-9112473D01*
X42777267Y-9000106D01*
X42776416Y-8889728D01*
X42775580Y-8781706D01*
X42774763Y-8676406D01*
X42773966Y-8574192D01*
X42773193Y-8475432D01*
X42772447Y-8380492D01*
X42771731Y-8289737D01*
X42771047Y-8203533D01*
X42770398Y-8122247D01*
X42769788Y-8046243D01*
X42769219Y-7975890D01*
X42768694Y-7911551D01*
X42768216Y-7853594D01*
X42767788Y-7802384D01*
X42767412Y-7758287D01*
X42767093Y-7721670D01*
X42766831Y-7692898D01*
X42766685Y-7677674D01*
X42766294Y-7632661D01*
X42766032Y-7590268D01*
X42765897Y-7551235D01*
X42765885Y-7516302D01*
X42765995Y-7486208D01*
X42766223Y-7461691D01*
X42766569Y-7443492D01*
X42767028Y-7432349D01*
X42767540Y-7428966D01*
X42771772Y-7431022D01*
X42782585Y-7436911D01*
X42799240Y-7446213D01*
X42820995Y-7458508D01*
X42847112Y-7473376D01*
X42876849Y-7490398D01*
X42909468Y-7509154D01*
X42939955Y-7526754D01*
X42957848Y-7537089D01*
X42982730Y-7551442D01*
X43014251Y-7569612D01*
X43052062Y-7591396D01*
X43095811Y-7616595D01*
X43145148Y-7645004D01*
X43199722Y-7676424D01*
X43259184Y-7710652D01*
X43323182Y-7747487D01*
X43391367Y-7786727D01*
X43463388Y-7828170D01*
X43538895Y-7871615D01*
X43617537Y-7916860D01*
X43698964Y-7963704D01*
X43782825Y-8011944D01*
X43868770Y-8061380D01*
X43956449Y-8111809D01*
X44045510Y-8163030D01*
X44135605Y-8214841D01*
X44184319Y-8242854D01*
X44272732Y-8293699D01*
X44359256Y-8343471D01*
X44443604Y-8392002D01*
X44525486Y-8439127D01*
X44604614Y-8484677D01*
X44680699Y-8528487D01*
X44753451Y-8570390D01*
X44822582Y-8610220D01*
X44887803Y-8647809D01*
X44948826Y-8682992D01*
X45005360Y-8715602D01*
X45057118Y-8745471D01*
X45103810Y-8772435D01*
X45145149Y-8796325D01*
X45180843Y-8816976D01*
X45210606Y-8834221D01*
X45234148Y-8847892D01*
X45251180Y-8857825D01*
X45261413Y-8863851D01*
X45264563Y-8865790D01*
X45266087Y-8870385D01*
X45269405Y-8882764D01*
X45274408Y-8902464D01*
X45280983Y-8929019D01*
X45289020Y-8961964D01*
X45298407Y-9000836D01*
X45309034Y-9045170D01*
X45320790Y-9094500D01*
X45333563Y-9148363D01*
X45347243Y-9206293D01*
X45361718Y-9267826D01*
X45376877Y-9332497D01*
X45392610Y-9399842D01*
X45407829Y-9465199D01*
X45424399Y-9536451D01*
X45440722Y-9606608D01*
X45456666Y-9675107D01*
X45472100Y-9741384D01*
X45486893Y-9804876D01*
X45500914Y-9865022D01*
X45514030Y-9921257D01*
X45526112Y-9973019D01*
X45537026Y-10019745D01*
X45546643Y-10060872D01*
X45554831Y-10095837D01*
X45561458Y-10124077D01*
X45566393Y-10145030D01*
X45568782Y-10155107D01*
X45575154Y-10182213D01*
X45580689Y-10206458D01*
X45585132Y-10226669D01*
X45588229Y-10241674D01*
X45589726Y-10250300D01*
X45589763Y-10251917D01*
X45585532Y-10253180D01*
G37*
X45585532Y-10253180D02*
X45573483Y-10256504D01*
X45553977Y-10261792D01*
X45527377Y-10268950D01*
X45494045Y-10277881D01*
X45454341Y-10288489D01*
X45408629Y-10300680D01*
X45357270Y-10314357D01*
X45300626Y-10329425D01*
X45239059Y-10345788D01*
X45172930Y-10363351D01*
X45102602Y-10382017D01*
X45028436Y-10401691D01*
X44950794Y-10422277D01*
X44870039Y-10443681D01*
X44786531Y-10465805D01*
X44700633Y-10488554D01*
X44612708Y-10511834D01*
X44523115Y-10535547D01*
X44432219Y-10559599D01*
X44340379Y-10583893D01*
X44247959Y-10608334D01*
X44155320Y-10632827D01*
X44062824Y-10657275D01*
X43970833Y-10681583D01*
X43879709Y-10705656D01*
X43789813Y-10729397D01*
X43701508Y-10752711D01*
X43615155Y-10775502D01*
X43531116Y-10797675D01*
X43449754Y-10819134D01*
X43371429Y-10839784D01*
X43296504Y-10859528D01*
X43225341Y-10878270D01*
X43158302Y-10895916D01*
X43095748Y-10912370D01*
X43038041Y-10927536D01*
X42985544Y-10941317D01*
X42938617Y-10953620D01*
X42897624Y-10964347D01*
X42862926Y-10973404D01*
X42834884Y-10980694D01*
X42813861Y-10986122D01*
X42800218Y-10989592D01*
X42794317Y-10991008D01*
X42794094Y-10991035D01*
X42793935Y-10986723D01*
X42793717Y-10974244D01*
X42793442Y-10953894D01*
X42793112Y-10925974D01*
X42792731Y-10890780D01*
X42792300Y-10848612D01*
X42791823Y-10799769D01*
X42791302Y-10744548D01*
X42790740Y-10683247D01*
X42790139Y-10616166D01*
X42789501Y-10543603D01*
X42788831Y-10465856D01*
X42788129Y-10383223D01*
X42787399Y-10296003D01*
X42786643Y-10204495D01*
X42785864Y-10108996D01*
X42785064Y-10009806D01*
X42784246Y-9907222D01*
X42783413Y-9801543D01*
X42782567Y-9693068D01*
X42781711Y-9582095D01*
X42780847Y-9468921D01*
X42780763Y-9457850D01*
X42779881Y-9341711D01*
X42779002Y-9226463D01*
X42778130Y-9112473D01*
X42777267Y-9000106D01*
X42776416Y-8889728D01*
X42775580Y-8781706D01*
X42774763Y-8676406D01*
X42773966Y-8574192D01*
X42773193Y-8475432D01*
X42772447Y-8380492D01*
X42771731Y-8289737D01*
X42771047Y-8203533D01*
X42770398Y-8122247D01*
X42769788Y-8046243D01*
X42769219Y-7975890D01*
X42768694Y-7911551D01*
X42768216Y-7853594D01*
X42767788Y-7802384D01*
X42767412Y-7758287D01*
X42767093Y-7721670D01*
X42766831Y-7692898D01*
X42766685Y-7677674D01*
X42766294Y-7632661D01*
X42766032Y-7590268D01*
X42765897Y-7551235D01*
X42765885Y-7516302D01*
X42765995Y-7486208D01*
X42766223Y-7461691D01*
X42766569Y-7443492D01*
X42767028Y-7432349D01*
X42767540Y-7428966D01*
X42771772Y-7431022D01*
X42782585Y-7436911D01*
X42799240Y-7446213D01*
X42820995Y-7458508D01*
X42847112Y-7473376D01*
X42876849Y-7490398D01*
X42909468Y-7509154D01*
X42939955Y-7526754D01*
X42957848Y-7537089D01*
X42982730Y-7551442D01*
X43014251Y-7569612D01*
X43052062Y-7591396D01*
X43095811Y-7616595D01*
X43145148Y-7645004D01*
X43199722Y-7676424D01*
X43259184Y-7710652D01*
X43323182Y-7747487D01*
X43391367Y-7786727D01*
X43463388Y-7828170D01*
X43538895Y-7871615D01*
X43617537Y-7916860D01*
X43698964Y-7963704D01*
X43782825Y-8011944D01*
X43868770Y-8061380D01*
X43956449Y-8111809D01*
X44045510Y-8163030D01*
X44135605Y-8214841D01*
X44184319Y-8242854D01*
X44272732Y-8293699D01*
X44359256Y-8343471D01*
X44443604Y-8392002D01*
X44525486Y-8439127D01*
X44604614Y-8484677D01*
X44680699Y-8528487D01*
X44753451Y-8570390D01*
X44822582Y-8610220D01*
X44887803Y-8647809D01*
X44948826Y-8682992D01*
X45005360Y-8715602D01*
X45057118Y-8745471D01*
X45103810Y-8772435D01*
X45145149Y-8796325D01*
X45180843Y-8816976D01*
X45210606Y-8834221D01*
X45234148Y-8847892D01*
X45251180Y-8857825D01*
X45261413Y-8863851D01*
X45264563Y-8865790D01*
X45266087Y-8870385D01*
X45269405Y-8882764D01*
X45274408Y-8902464D01*
X45280983Y-8929019D01*
X45289020Y-8961964D01*
X45298407Y-9000836D01*
X45309034Y-9045170D01*
X45320790Y-9094500D01*
X45333563Y-9148363D01*
X45347243Y-9206293D01*
X45361718Y-9267826D01*
X45376877Y-9332497D01*
X45392610Y-9399842D01*
X45407829Y-9465199D01*
X45424399Y-9536451D01*
X45440722Y-9606608D01*
X45456666Y-9675107D01*
X45472100Y-9741384D01*
X45486893Y-9804876D01*
X45500914Y-9865022D01*
X45514030Y-9921257D01*
X45526112Y-9973019D01*
X45537026Y-10019745D01*
X45546643Y-10060872D01*
X45554831Y-10095837D01*
X45561458Y-10124077D01*
X45566393Y-10145030D01*
X45568782Y-10155107D01*
X45575154Y-10182213D01*
X45580689Y-10206458D01*
X45585132Y-10226669D01*
X45588229Y-10241674D01*
X45589726Y-10250300D01*
X45589763Y-10251917D01*
X45585532Y-10253180D01*
G36*
X50093784Y-2304167D02*
G01*
X50083782Y-2310696D01*
X50067411Y-2320982D01*
X50045129Y-2334749D01*
X50017394Y-2351719D01*
X49984666Y-2371613D01*
X49947401Y-2394155D01*
X49906059Y-2419066D01*
X49861098Y-2446070D01*
X49812976Y-2474887D01*
X49762150Y-2505241D01*
X49709081Y-2536854D01*
X49695171Y-2545127D01*
X49631188Y-2583148D01*
X49574083Y-2617037D01*
X49523469Y-2647014D01*
X49478961Y-2673298D01*
X49440174Y-2696110D01*
X49406723Y-2715671D01*
X49378223Y-2732200D01*
X49354288Y-2745918D01*
X49334533Y-2757045D01*
X49318573Y-2765802D01*
X49306022Y-2772407D01*
X49296496Y-2777083D01*
X49289610Y-2780049D01*
X49284977Y-2781524D01*
X49282213Y-2781731D01*
X49281631Y-2781551D01*
X49277551Y-2779233D01*
X49266321Y-2772771D01*
X49248116Y-2762266D01*
X49223110Y-2747819D01*
X49191480Y-2729532D01*
X49153399Y-2707505D01*
X49109043Y-2681841D01*
X49058587Y-2652640D01*
X49002205Y-2620004D01*
X48940073Y-2584034D01*
X48872366Y-2544832D01*
X48799258Y-2502499D01*
X48720925Y-2457136D01*
X48637542Y-2408845D01*
X48549283Y-2357727D01*
X48456324Y-2303883D01*
X48358839Y-2247415D01*
X48257003Y-2188424D01*
X48150992Y-2127012D01*
X48040981Y-2063279D01*
X47927143Y-1997328D01*
X47809655Y-1929259D01*
X47688692Y-1859174D01*
X47564427Y-1787174D01*
X47437037Y-1713360D01*
X47306696Y-1637835D01*
X47173580Y-1560698D01*
X47037862Y-1482053D01*
X46899719Y-1401999D01*
X46759325Y-1320639D01*
X46616855Y-1238073D01*
X46472484Y-1154403D01*
X46372952Y-1096719D01*
X43473119Y583927D01*
X43471002Y-2775100D01*
X43468886Y-6134126D01*
X43149269Y-6314019D01*
X43100555Y-6341433D01*
X43053393Y-6367968D01*
X43008383Y-6393285D01*
X42966127Y-6417047D01*
X42927224Y-6438916D01*
X42892276Y-6458555D01*
X42861883Y-6475626D01*
X42836645Y-6489792D01*
X42817164Y-6500715D01*
X42804040Y-6508058D01*
X42798961Y-6510885D01*
X42768269Y-6527859D01*
X42768269Y-2304359D01*
X42768270Y-2074685D01*
X42768273Y-1853329D01*
X42768279Y-1640142D01*
X42768288Y-1434973D01*
X42768299Y-1237675D01*
X42768313Y-1048099D01*
X42768331Y-866094D01*
X42768352Y-691512D01*
X42768377Y-524204D01*
X42768406Y-364021D01*
X42768440Y-210814D01*
X42768477Y-64433D01*
X42768520Y75270D01*
X42768567Y208445D01*
X42768619Y335241D01*
X42768677Y455806D01*
X42768740Y570291D01*
X42768809Y678843D01*
X42768883Y781612D01*
X42768964Y878748D01*
X42769052Y970399D01*
X42769146Y1056714D01*
X42769246Y1137843D01*
X42769354Y1213934D01*
X42769469Y1285137D01*
X42769592Y1351601D01*
X42769722Y1413475D01*
X42769860Y1470907D01*
X42770007Y1524048D01*
X42770161Y1573046D01*
X42770325Y1618050D01*
X42770497Y1659210D01*
X42770678Y1696674D01*
X42770868Y1730591D01*
X42771068Y1761111D01*
X42771278Y1788383D01*
X42771497Y1812556D01*
X42771727Y1833779D01*
X42771966Y1852200D01*
X42772217Y1867970D01*
X42772478Y1881238D01*
X42772750Y1892151D01*
X42773034Y1900860D01*
X42773328Y1907513D01*
X42773635Y1912261D01*
X42773953Y1915250D01*
X42774284Y1916632D01*
X42774465Y1916763D01*
X42778411Y1914549D01*
X42789500Y1908218D01*
X42807542Y1897880D01*
X42832348Y1883644D01*
X42863727Y1865619D01*
X42901491Y1843915D01*
X42945448Y1818642D01*
X42995410Y1789907D01*
X43051186Y1757822D01*
X43112588Y1722494D01*
X43179424Y1684034D01*
X43251505Y1642550D01*
X43328642Y1598152D01*
X43410645Y1550950D01*
X43497324Y1501052D01*
X43588489Y1448569D01*
X43683950Y1393609D01*
X43783518Y1336281D01*
X43887002Y1276696D01*
X43994214Y1214961D01*
X44104963Y1151188D01*
X44219059Y1085484D01*
X44336313Y1017960D01*
X44456535Y948724D01*
X44579535Y877887D01*
X44705124Y805556D01*
X44833111Y731843D01*
X44963307Y656855D01*
X45095522Y580703D01*
X45229566Y503495D01*
X45365250Y425341D01*
X45502383Y346351D01*
X45640777Y266633D01*
X45780240Y186297D01*
X45920584Y105452D01*
X46061619Y24208D01*
X46203154Y-57326D01*
X46345000Y-139041D01*
X46486968Y-220827D01*
X46628867Y-302576D01*
X46770508Y-384177D01*
X46911700Y-465521D01*
X47052255Y-546500D01*
X47191983Y-627003D01*
X47330692Y-706922D01*
X47468195Y-786147D01*
X47604301Y-864569D01*
X47738820Y-942078D01*
X47871562Y-1018565D01*
X48002338Y-1093921D01*
X48130958Y-1168037D01*
X48257232Y-1240802D01*
X48380971Y-1312109D01*
X48501984Y-1381846D01*
X48620082Y-1449906D01*
X48735075Y-1516179D01*
X48846773Y-1580555D01*
X48954987Y-1642926D01*
X49059527Y-1703181D01*
X49160202Y-1761211D01*
X49256823Y-1816908D01*
X49349201Y-1870162D01*
X49437146Y-1920863D01*
X49520467Y-1968902D01*
X49598976Y-2014170D01*
X49672481Y-2056558D01*
X49740794Y-2095956D01*
X49803725Y-2132255D01*
X49861084Y-2165345D01*
X49912681Y-2195117D01*
X49958326Y-2221462D01*
X49997830Y-2244271D01*
X50031002Y-2263434D01*
X50057654Y-2278842D01*
X50077595Y-2290385D01*
X50090635Y-2297955D01*
X50096585Y-2301441D01*
X50096959Y-2301674D01*
X50093784Y-2304167D01*
G37*
X50093784Y-2304167D02*
X50083782Y-2310696D01*
X50067411Y-2320982D01*
X50045129Y-2334749D01*
X50017394Y-2351719D01*
X49984666Y-2371613D01*
X49947401Y-2394155D01*
X49906059Y-2419066D01*
X49861098Y-2446070D01*
X49812976Y-2474887D01*
X49762150Y-2505241D01*
X49709081Y-2536854D01*
X49695171Y-2545127D01*
X49631188Y-2583148D01*
X49574083Y-2617037D01*
X49523469Y-2647014D01*
X49478961Y-2673298D01*
X49440174Y-2696110D01*
X49406723Y-2715671D01*
X49378223Y-2732200D01*
X49354288Y-2745918D01*
X49334533Y-2757045D01*
X49318573Y-2765802D01*
X49306022Y-2772407D01*
X49296496Y-2777083D01*
X49289610Y-2780049D01*
X49284977Y-2781524D01*
X49282213Y-2781731D01*
X49281631Y-2781551D01*
X49277551Y-2779233D01*
X49266321Y-2772771D01*
X49248116Y-2762266D01*
X49223110Y-2747819D01*
X49191480Y-2729532D01*
X49153399Y-2707505D01*
X49109043Y-2681841D01*
X49058587Y-2652640D01*
X49002205Y-2620004D01*
X48940073Y-2584034D01*
X48872366Y-2544832D01*
X48799258Y-2502499D01*
X48720925Y-2457136D01*
X48637542Y-2408845D01*
X48549283Y-2357727D01*
X48456324Y-2303883D01*
X48358839Y-2247415D01*
X48257003Y-2188424D01*
X48150992Y-2127012D01*
X48040981Y-2063279D01*
X47927143Y-1997328D01*
X47809655Y-1929259D01*
X47688692Y-1859174D01*
X47564427Y-1787174D01*
X47437037Y-1713360D01*
X47306696Y-1637835D01*
X47173580Y-1560698D01*
X47037862Y-1482053D01*
X46899719Y-1401999D01*
X46759325Y-1320639D01*
X46616855Y-1238073D01*
X46472484Y-1154403D01*
X46372952Y-1096719D01*
X43473119Y583927D01*
X43471002Y-2775100D01*
X43468886Y-6134126D01*
X43149269Y-6314019D01*
X43100555Y-6341433D01*
X43053393Y-6367968D01*
X43008383Y-6393285D01*
X42966127Y-6417047D01*
X42927224Y-6438916D01*
X42892276Y-6458555D01*
X42861883Y-6475626D01*
X42836645Y-6489792D01*
X42817164Y-6500715D01*
X42804040Y-6508058D01*
X42798961Y-6510885D01*
X42768269Y-6527859D01*
X42768269Y-2304359D01*
X42768270Y-2074685D01*
X42768273Y-1853329D01*
X42768279Y-1640142D01*
X42768288Y-1434973D01*
X42768299Y-1237675D01*
X42768313Y-1048099D01*
X42768331Y-866094D01*
X42768352Y-691512D01*
X42768377Y-524204D01*
X42768406Y-364021D01*
X42768440Y-210814D01*
X42768477Y-64433D01*
X42768520Y75270D01*
X42768567Y208445D01*
X42768619Y335241D01*
X42768677Y455806D01*
X42768740Y570291D01*
X42768809Y678843D01*
X42768883Y781612D01*
X42768964Y878748D01*
X42769052Y970399D01*
X42769146Y1056714D01*
X42769246Y1137843D01*
X42769354Y1213934D01*
X42769469Y1285137D01*
X42769592Y1351601D01*
X42769722Y1413475D01*
X42769860Y1470907D01*
X42770007Y1524048D01*
X42770161Y1573046D01*
X42770325Y1618050D01*
X42770497Y1659210D01*
X42770678Y1696674D01*
X42770868Y1730591D01*
X42771068Y1761111D01*
X42771278Y1788383D01*
X42771497Y1812556D01*
X42771727Y1833779D01*
X42771966Y1852200D01*
X42772217Y1867970D01*
X42772478Y1881238D01*
X42772750Y1892151D01*
X42773034Y1900860D01*
X42773328Y1907513D01*
X42773635Y1912261D01*
X42773953Y1915250D01*
X42774284Y1916632D01*
X42774465Y1916763D01*
X42778411Y1914549D01*
X42789500Y1908218D01*
X42807542Y1897880D01*
X42832348Y1883644D01*
X42863727Y1865619D01*
X42901491Y1843915D01*
X42945448Y1818642D01*
X42995410Y1789907D01*
X43051186Y1757822D01*
X43112588Y1722494D01*
X43179424Y1684034D01*
X43251505Y1642550D01*
X43328642Y1598152D01*
X43410645Y1550950D01*
X43497324Y1501052D01*
X43588489Y1448569D01*
X43683950Y1393609D01*
X43783518Y1336281D01*
X43887002Y1276696D01*
X43994214Y1214961D01*
X44104963Y1151188D01*
X44219059Y1085484D01*
X44336313Y1017960D01*
X44456535Y948724D01*
X44579535Y877887D01*
X44705124Y805556D01*
X44833111Y731843D01*
X44963307Y656855D01*
X45095522Y580703D01*
X45229566Y503495D01*
X45365250Y425341D01*
X45502383Y346351D01*
X45640777Y266633D01*
X45780240Y186297D01*
X45920584Y105452D01*
X46061619Y24208D01*
X46203154Y-57326D01*
X46345000Y-139041D01*
X46486968Y-220827D01*
X46628867Y-302576D01*
X46770508Y-384177D01*
X46911700Y-465521D01*
X47052255Y-546500D01*
X47191983Y-627003D01*
X47330692Y-706922D01*
X47468195Y-786147D01*
X47604301Y-864569D01*
X47738820Y-942078D01*
X47871562Y-1018565D01*
X48002338Y-1093921D01*
X48130958Y-1168037D01*
X48257232Y-1240802D01*
X48380971Y-1312109D01*
X48501984Y-1381846D01*
X48620082Y-1449906D01*
X48735075Y-1516179D01*
X48846773Y-1580555D01*
X48954987Y-1642926D01*
X49059527Y-1703181D01*
X49160202Y-1761211D01*
X49256823Y-1816908D01*
X49349201Y-1870162D01*
X49437146Y-1920863D01*
X49520467Y-1968902D01*
X49598976Y-2014170D01*
X49672481Y-2056558D01*
X49740794Y-2095956D01*
X49803725Y-2132255D01*
X49861084Y-2165345D01*
X49912681Y-2195117D01*
X49958326Y-2221462D01*
X49997830Y-2244271D01*
X50031002Y-2263434D01*
X50057654Y-2278842D01*
X50077595Y-2290385D01*
X50090635Y-2297955D01*
X50096585Y-2301441D01*
X50096959Y-2301674D01*
X50093784Y-2304167D01*
G36*
X46332754Y-12902353D02*
G01*
X46321936Y-12908876D01*
X46304393Y-12919414D01*
X46280395Y-12933806D01*
X46250210Y-12951890D01*
X46214108Y-12973508D01*
X46172358Y-12998497D01*
X46125228Y-13026697D01*
X46072988Y-13057947D01*
X46015907Y-13092087D01*
X45954254Y-13128955D01*
X45888298Y-13168392D01*
X45818308Y-13210236D01*
X45744552Y-13254326D01*
X45667301Y-13300503D01*
X45586823Y-13348605D01*
X45503388Y-13398471D01*
X45417263Y-13449941D01*
X45328719Y-13502854D01*
X45238024Y-13557050D01*
X45145448Y-13612367D01*
X45051259Y-13668645D01*
X44955727Y-13725723D01*
X44859121Y-13783440D01*
X44761709Y-13841636D01*
X44663760Y-13900150D01*
X44565545Y-13958822D01*
X44467332Y-14017489D01*
X44369389Y-14075993D01*
X44271986Y-14134172D01*
X44175392Y-14191865D01*
X44079877Y-14248911D01*
X43985708Y-14305151D01*
X43893156Y-14360423D01*
X43802489Y-14414566D01*
X43713976Y-14467420D01*
X43627887Y-14518824D01*
X43544490Y-14568617D01*
X43464054Y-14616638D01*
X43386849Y-14662728D01*
X43313143Y-14706725D01*
X43243207Y-14748468D01*
X43177307Y-14787796D01*
X43115715Y-14824550D01*
X43058698Y-14858568D01*
X43006527Y-14889689D01*
X42959469Y-14917753D01*
X42917794Y-14942600D01*
X42881771Y-14964067D01*
X42851669Y-14981995D01*
X42827757Y-14996223D01*
X42810305Y-15006590D01*
X42799581Y-15012936D01*
X42795854Y-15015099D01*
X42795853Y-15015099D01*
X42795639Y-15010925D01*
X42795436Y-14998639D01*
X42795245Y-14978595D01*
X42795066Y-14951150D01*
X42794897Y-14916657D01*
X42794741Y-14875471D01*
X42794595Y-14827948D01*
X42794461Y-14774441D01*
X42794337Y-14715306D01*
X42794224Y-14650897D01*
X42794122Y-14581570D01*
X42794031Y-14507679D01*
X42793950Y-14429578D01*
X42793880Y-14347623D01*
X42793820Y-14262169D01*
X42793770Y-14173569D01*
X42793730Y-14082180D01*
X42793700Y-13988355D01*
X42793680Y-13892450D01*
X42793670Y-13794819D01*
X42793670Y-13695817D01*
X42793679Y-13595800D01*
X42793697Y-13495120D01*
X42793725Y-13394135D01*
X42793762Y-13293197D01*
X42793809Y-13192663D01*
X42793864Y-13092887D01*
X42793928Y-12994223D01*
X42794001Y-12897027D01*
X42794082Y-12801653D01*
X42794172Y-12708455D01*
X42794271Y-12617790D01*
X42794378Y-12530011D01*
X42794493Y-12445474D01*
X42794616Y-12364533D01*
X42794747Y-12287543D01*
X42794886Y-12214858D01*
X42795033Y-12146834D01*
X42795188Y-12083826D01*
X42795350Y-12026187D01*
X42795520Y-11974273D01*
X42795697Y-11928439D01*
X42795881Y-11889040D01*
X42796073Y-11856430D01*
X42796271Y-11830964D01*
X42796477Y-11812996D01*
X42796689Y-11802883D01*
X42796844Y-11800664D01*
X42801118Y-11799430D01*
X42813275Y-11796055D01*
X42833026Y-11790617D01*
X42860085Y-11783195D01*
X42894162Y-11773867D01*
X42934971Y-11762712D01*
X42982223Y-11749807D01*
X43035630Y-11735232D01*
X43094905Y-11719065D01*
X43159760Y-11701383D01*
X43229907Y-11682267D01*
X43305058Y-11661793D01*
X43384925Y-11640041D01*
X43469221Y-11617089D01*
X43557657Y-11593015D01*
X43649946Y-11567898D01*
X43745799Y-11541817D01*
X43844929Y-11514848D01*
X43947049Y-11487073D01*
X44051869Y-11458567D01*
X44159103Y-11429411D01*
X44268462Y-11399682D01*
X44283261Y-11395659D01*
X44416903Y-11359347D01*
X44545160Y-11324526D01*
X44667889Y-11291234D01*
X44784944Y-11259510D01*
X44896183Y-11229394D01*
X45001461Y-11200923D01*
X45100634Y-11174136D01*
X45193558Y-11149073D01*
X45280088Y-11125771D01*
X45360081Y-11104269D01*
X45433392Y-11084607D01*
X45499877Y-11066822D01*
X45559393Y-11050954D01*
X45611794Y-11037041D01*
X45656937Y-11025121D01*
X45694677Y-11015235D01*
X45724871Y-11007419D01*
X45747375Y-11001713D01*
X45762043Y-10998156D01*
X45768733Y-10996786D01*
X45769161Y-10996806D01*
X45770701Y-11001362D01*
X45774512Y-11013572D01*
X45780465Y-11033002D01*
X45788433Y-11059221D01*
X45798286Y-11091794D01*
X45809894Y-11130290D01*
X45823129Y-11174275D01*
X45837861Y-11223317D01*
X45853962Y-11276982D01*
X45871303Y-11334837D01*
X45889753Y-11396451D01*
X45909186Y-11461389D01*
X45929470Y-11529219D01*
X45950478Y-11599509D01*
X45972080Y-11671824D01*
X45994147Y-11745733D01*
X46016550Y-11820803D01*
X46039160Y-11896600D01*
X46061848Y-11972692D01*
X46084484Y-12048645D01*
X46106941Y-12124028D01*
X46129088Y-12198406D01*
X46150798Y-12271348D01*
X46171939Y-12342420D01*
X46192385Y-12411189D01*
X46212004Y-12477223D01*
X46230670Y-12540089D01*
X46248251Y-12599353D01*
X46264620Y-12654583D01*
X46279648Y-12705346D01*
X46293204Y-12751209D01*
X46305161Y-12791740D01*
X46315389Y-12826504D01*
X46323759Y-12855071D01*
X46330141Y-12877005D01*
X46334408Y-12891876D01*
X46336430Y-12899249D01*
X46336579Y-12900006D01*
X46332754Y-12902353D01*
G37*
X46332754Y-12902353D02*
X46321936Y-12908876D01*
X46304393Y-12919414D01*
X46280395Y-12933806D01*
X46250210Y-12951890D01*
X46214108Y-12973508D01*
X46172358Y-12998497D01*
X46125228Y-13026697D01*
X46072988Y-13057947D01*
X46015907Y-13092087D01*
X45954254Y-13128955D01*
X45888298Y-13168392D01*
X45818308Y-13210236D01*
X45744552Y-13254326D01*
X45667301Y-13300503D01*
X45586823Y-13348605D01*
X45503388Y-13398471D01*
X45417263Y-13449941D01*
X45328719Y-13502854D01*
X45238024Y-13557050D01*
X45145448Y-13612367D01*
X45051259Y-13668645D01*
X44955727Y-13725723D01*
X44859121Y-13783440D01*
X44761709Y-13841636D01*
X44663760Y-13900150D01*
X44565545Y-13958822D01*
X44467332Y-14017489D01*
X44369389Y-14075993D01*
X44271986Y-14134172D01*
X44175392Y-14191865D01*
X44079877Y-14248911D01*
X43985708Y-14305151D01*
X43893156Y-14360423D01*
X43802489Y-14414566D01*
X43713976Y-14467420D01*
X43627887Y-14518824D01*
X43544490Y-14568617D01*
X43464054Y-14616638D01*
X43386849Y-14662728D01*
X43313143Y-14706725D01*
X43243207Y-14748468D01*
X43177307Y-14787796D01*
X43115715Y-14824550D01*
X43058698Y-14858568D01*
X43006527Y-14889689D01*
X42959469Y-14917753D01*
X42917794Y-14942600D01*
X42881771Y-14964067D01*
X42851669Y-14981995D01*
X42827757Y-14996223D01*
X42810305Y-15006590D01*
X42799581Y-15012936D01*
X42795854Y-15015099D01*
X42795853Y-15015099D01*
X42795639Y-15010925D01*
X42795436Y-14998639D01*
X42795245Y-14978595D01*
X42795066Y-14951150D01*
X42794897Y-14916657D01*
X42794741Y-14875471D01*
X42794595Y-14827948D01*
X42794461Y-14774441D01*
X42794337Y-14715306D01*
X42794224Y-14650897D01*
X42794122Y-14581570D01*
X42794031Y-14507679D01*
X42793950Y-14429578D01*
X42793880Y-14347623D01*
X42793820Y-14262169D01*
X42793770Y-14173569D01*
X42793730Y-14082180D01*
X42793700Y-13988355D01*
X42793680Y-13892450D01*
X42793670Y-13794819D01*
X42793670Y-13695817D01*
X42793679Y-13595800D01*
X42793697Y-13495120D01*
X42793725Y-13394135D01*
X42793762Y-13293197D01*
X42793809Y-13192663D01*
X42793864Y-13092887D01*
X42793928Y-12994223D01*
X42794001Y-12897027D01*
X42794082Y-12801653D01*
X42794172Y-12708455D01*
X42794271Y-12617790D01*
X42794378Y-12530011D01*
X42794493Y-12445474D01*
X42794616Y-12364533D01*
X42794747Y-12287543D01*
X42794886Y-12214858D01*
X42795033Y-12146834D01*
X42795188Y-12083826D01*
X42795350Y-12026187D01*
X42795520Y-11974273D01*
X42795697Y-11928439D01*
X42795881Y-11889040D01*
X42796073Y-11856430D01*
X42796271Y-11830964D01*
X42796477Y-11812996D01*
X42796689Y-11802883D01*
X42796844Y-11800664D01*
X42801118Y-11799430D01*
X42813275Y-11796055D01*
X42833026Y-11790617D01*
X42860085Y-11783195D01*
X42894162Y-11773867D01*
X42934971Y-11762712D01*
X42982223Y-11749807D01*
X43035630Y-11735232D01*
X43094905Y-11719065D01*
X43159760Y-11701383D01*
X43229907Y-11682267D01*
X43305058Y-11661793D01*
X43384925Y-11640041D01*
X43469221Y-11617089D01*
X43557657Y-11593015D01*
X43649946Y-11567898D01*
X43745799Y-11541817D01*
X43844929Y-11514848D01*
X43947049Y-11487073D01*
X44051869Y-11458567D01*
X44159103Y-11429411D01*
X44268462Y-11399682D01*
X44283261Y-11395659D01*
X44416903Y-11359347D01*
X44545160Y-11324526D01*
X44667889Y-11291234D01*
X44784944Y-11259510D01*
X44896183Y-11229394D01*
X45001461Y-11200923D01*
X45100634Y-11174136D01*
X45193558Y-11149073D01*
X45280088Y-11125771D01*
X45360081Y-11104269D01*
X45433392Y-11084607D01*
X45499877Y-11066822D01*
X45559393Y-11050954D01*
X45611794Y-11037041D01*
X45656937Y-11025121D01*
X45694677Y-11015235D01*
X45724871Y-11007419D01*
X45747375Y-11001713D01*
X45762043Y-10998156D01*
X45768733Y-10996786D01*
X45769161Y-10996806D01*
X45770701Y-11001362D01*
X45774512Y-11013572D01*
X45780465Y-11033002D01*
X45788433Y-11059221D01*
X45798286Y-11091794D01*
X45809894Y-11130290D01*
X45823129Y-11174275D01*
X45837861Y-11223317D01*
X45853962Y-11276982D01*
X45871303Y-11334837D01*
X45889753Y-11396451D01*
X45909186Y-11461389D01*
X45929470Y-11529219D01*
X45950478Y-11599509D01*
X45972080Y-11671824D01*
X45994147Y-11745733D01*
X46016550Y-11820803D01*
X46039160Y-11896600D01*
X46061848Y-11972692D01*
X46084484Y-12048645D01*
X46106941Y-12124028D01*
X46129088Y-12198406D01*
X46150798Y-12271348D01*
X46171939Y-12342420D01*
X46192385Y-12411189D01*
X46212004Y-12477223D01*
X46230670Y-12540089D01*
X46248251Y-12599353D01*
X46264620Y-12654583D01*
X46279648Y-12705346D01*
X46293204Y-12751209D01*
X46305161Y-12791740D01*
X46315389Y-12826504D01*
X46323759Y-12855071D01*
X46330141Y-12877005D01*
X46334408Y-12891876D01*
X46336430Y-12899249D01*
X46336579Y-12900006D01*
X46332754Y-12902353D01*
G36*
X49291832Y-8728709D02*
G01*
X49291819Y-8845187D01*
X49291799Y-8959213D01*
X49291772Y-9070503D01*
X49291737Y-9178773D01*
X49291695Y-9283737D01*
X49291647Y-9385111D01*
X49291592Y-9482610D01*
X49291531Y-9575949D01*
X49291464Y-9664843D01*
X49291392Y-9749007D01*
X49291314Y-9828157D01*
X49291232Y-9902008D01*
X49291144Y-9970275D01*
X49291053Y-10032673D01*
X49290957Y-10088917D01*
X49290857Y-10138723D01*
X49290754Y-10181806D01*
X49290647Y-10217881D01*
X49290537Y-10246663D01*
X49290425Y-10267867D01*
X49290310Y-10281209D01*
X49290193Y-10286403D01*
X49290179Y-10286466D01*
X49286465Y-10284373D01*
X49275628Y-10278176D01*
X49257881Y-10267998D01*
X49233435Y-10253961D01*
X49202504Y-10236189D01*
X49165301Y-10214802D01*
X49122039Y-10189924D01*
X49072929Y-10161678D01*
X49018186Y-10130186D01*
X48958021Y-10095570D01*
X48892648Y-10057954D01*
X48822279Y-10017459D01*
X48747128Y-9974208D01*
X48667407Y-9928324D01*
X48583328Y-9879930D01*
X48495105Y-9829147D01*
X48402951Y-9776099D01*
X48307077Y-9720907D01*
X48207698Y-9663696D01*
X48105025Y-9604586D01*
X47999272Y-9543701D01*
X47890652Y-9481163D01*
X47779376Y-9417094D01*
X47665659Y-9351618D01*
X47549712Y-9284857D01*
X47431749Y-9216933D01*
X47311982Y-9147969D01*
X47190624Y-9078088D01*
X47067889Y-9007411D01*
X46943988Y-8936063D01*
X46819134Y-8864164D01*
X46693541Y-8791838D01*
X46567421Y-8719207D01*
X46440987Y-8646394D01*
X46314452Y-8573521D01*
X46188028Y-8500711D01*
X46061929Y-8428087D01*
X45936366Y-8355771D01*
X45811554Y-8283885D01*
X45687704Y-8212552D01*
X45565030Y-8141895D01*
X45443744Y-8072036D01*
X45324059Y-8003098D01*
X45206188Y-7935203D01*
X45090344Y-7868473D01*
X44976739Y-7803033D01*
X44865587Y-7739003D01*
X44757100Y-7676507D01*
X44651490Y-7615666D01*
X44548971Y-7556605D01*
X44449756Y-7499444D01*
X44354057Y-7444307D01*
X44262087Y-7391317D01*
X44174058Y-7340595D01*
X44090185Y-7292265D01*
X44010679Y-7246448D01*
X43935753Y-7203268D01*
X43865620Y-7162847D01*
X43800493Y-7125307D01*
X43740585Y-7090772D01*
X43686108Y-7059363D01*
X43637275Y-7031204D01*
X43594299Y-7006416D01*
X43557394Y-6985123D01*
X43526770Y-6967446D01*
X43502642Y-6953509D01*
X43485223Y-6943433D01*
X43474724Y-6937343D01*
X43471355Y-6935359D01*
X43475457Y-6935268D01*
X43487810Y-6935178D01*
X43508197Y-6935090D01*
X43536403Y-6935002D01*
X43572212Y-6934917D01*
X43615408Y-6934833D01*
X43665775Y-6934751D01*
X43723096Y-6934671D01*
X43787157Y-6934593D01*
X43857741Y-6934518D01*
X43934632Y-6934444D01*
X44017614Y-6934374D01*
X44106472Y-6934305D01*
X44200988Y-6934240D01*
X44300948Y-6934177D01*
X44406136Y-6934118D01*
X44516335Y-6934061D01*
X44631329Y-6934008D01*
X44750902Y-6933958D01*
X44874840Y-6933911D01*
X45002925Y-6933869D01*
X45134941Y-6933829D01*
X45270673Y-6933794D01*
X45409905Y-6933763D01*
X45552421Y-6933736D01*
X45698004Y-6933713D01*
X45846439Y-6933694D01*
X45997511Y-6933680D01*
X46151002Y-6933671D01*
X46306697Y-6933666D01*
X49291836Y-6933666D01*
X49291836Y-8610066D01*
X49291832Y-8728709D01*
G37*
X49291832Y-8728709D02*
X49291819Y-8845187D01*
X49291799Y-8959213D01*
X49291772Y-9070503D01*
X49291737Y-9178773D01*
X49291695Y-9283737D01*
X49291647Y-9385111D01*
X49291592Y-9482610D01*
X49291531Y-9575949D01*
X49291464Y-9664843D01*
X49291392Y-9749007D01*
X49291314Y-9828157D01*
X49291232Y-9902008D01*
X49291144Y-9970275D01*
X49291053Y-10032673D01*
X49290957Y-10088917D01*
X49290857Y-10138723D01*
X49290754Y-10181806D01*
X49290647Y-10217881D01*
X49290537Y-10246663D01*
X49290425Y-10267867D01*
X49290310Y-10281209D01*
X49290193Y-10286403D01*
X49290179Y-10286466D01*
X49286465Y-10284373D01*
X49275628Y-10278176D01*
X49257881Y-10267998D01*
X49233435Y-10253961D01*
X49202504Y-10236189D01*
X49165301Y-10214802D01*
X49122039Y-10189924D01*
X49072929Y-10161678D01*
X49018186Y-10130186D01*
X48958021Y-10095570D01*
X48892648Y-10057954D01*
X48822279Y-10017459D01*
X48747128Y-9974208D01*
X48667407Y-9928324D01*
X48583328Y-9879930D01*
X48495105Y-9829147D01*
X48402951Y-9776099D01*
X48307077Y-9720907D01*
X48207698Y-9663696D01*
X48105025Y-9604586D01*
X47999272Y-9543701D01*
X47890652Y-9481163D01*
X47779376Y-9417094D01*
X47665659Y-9351618D01*
X47549712Y-9284857D01*
X47431749Y-9216933D01*
X47311982Y-9147969D01*
X47190624Y-9078088D01*
X47067889Y-9007411D01*
X46943988Y-8936063D01*
X46819134Y-8864164D01*
X46693541Y-8791838D01*
X46567421Y-8719207D01*
X46440987Y-8646394D01*
X46314452Y-8573521D01*
X46188028Y-8500711D01*
X46061929Y-8428087D01*
X45936366Y-8355771D01*
X45811554Y-8283885D01*
X45687704Y-8212552D01*
X45565030Y-8141895D01*
X45443744Y-8072036D01*
X45324059Y-8003098D01*
X45206188Y-7935203D01*
X45090344Y-7868473D01*
X44976739Y-7803033D01*
X44865587Y-7739003D01*
X44757100Y-7676507D01*
X44651490Y-7615666D01*
X44548971Y-7556605D01*
X44449756Y-7499444D01*
X44354057Y-7444307D01*
X44262087Y-7391317D01*
X44174058Y-7340595D01*
X44090185Y-7292265D01*
X44010679Y-7246448D01*
X43935753Y-7203268D01*
X43865620Y-7162847D01*
X43800493Y-7125307D01*
X43740585Y-7090772D01*
X43686108Y-7059363D01*
X43637275Y-7031204D01*
X43594299Y-7006416D01*
X43557394Y-6985123D01*
X43526770Y-6967446D01*
X43502642Y-6953509D01*
X43485223Y-6943433D01*
X43474724Y-6937343D01*
X43471355Y-6935359D01*
X43475457Y-6935268D01*
X43487810Y-6935178D01*
X43508197Y-6935090D01*
X43536403Y-6935002D01*
X43572212Y-6934917D01*
X43615408Y-6934833D01*
X43665775Y-6934751D01*
X43723096Y-6934671D01*
X43787157Y-6934593D01*
X43857741Y-6934518D01*
X43934632Y-6934444D01*
X44017614Y-6934374D01*
X44106472Y-6934305D01*
X44200988Y-6934240D01*
X44300948Y-6934177D01*
X44406136Y-6934118D01*
X44516335Y-6934061D01*
X44631329Y-6934008D01*
X44750902Y-6933958D01*
X44874840Y-6933911D01*
X45002925Y-6933869D01*
X45134941Y-6933829D01*
X45270673Y-6933794D01*
X45409905Y-6933763D01*
X45552421Y-6933736D01*
X45698004Y-6933713D01*
X45846439Y-6933694D01*
X45997511Y-6933680D01*
X46151002Y-6933671D01*
X46306697Y-6933666D01*
X49291836Y-6933666D01*
X49291836Y-8610066D01*
X49291832Y-8728709D01*
G36*
X49291134Y-5513033D02*
G01*
X49291125Y-5597036D01*
X49291109Y-5676023D01*
X49291084Y-5749708D01*
X49291053Y-5817805D01*
X49291013Y-5880030D01*
X49290967Y-5936095D01*
X49290913Y-5985716D01*
X49290851Y-6028607D01*
X49290782Y-6064483D01*
X49290706Y-6093057D01*
X49290623Y-6114044D01*
X49290533Y-6127160D01*
X49290435Y-6132117D01*
X49290427Y-6132152D01*
X49286153Y-6132227D01*
X49273628Y-6132298D01*
X49253070Y-6132365D01*
X49224694Y-6132427D01*
X49188718Y-6132486D01*
X49145357Y-6132541D01*
X49094827Y-6132591D01*
X49037346Y-6132637D01*
X48973130Y-6132679D01*
X48902395Y-6132716D01*
X48825357Y-6132750D01*
X48742233Y-6132779D01*
X48653240Y-6132804D01*
X48558593Y-6132824D01*
X48458510Y-6132840D01*
X48353206Y-6132851D01*
X48242899Y-6132859D01*
X48127804Y-6132861D01*
X48008138Y-6132859D01*
X47884117Y-6132853D01*
X47755958Y-6132842D01*
X47623877Y-6132827D01*
X47488091Y-6132807D01*
X47348815Y-6132782D01*
X47206268Y-6132753D01*
X47060664Y-6132719D01*
X46912220Y-6132680D01*
X46761153Y-6132637D01*
X46607679Y-6132588D01*
X46452015Y-6132535D01*
X46381972Y-6132510D01*
X43474937Y-6131449D01*
X49289719Y-2789137D01*
X49290783Y-4459935D01*
X49290855Y-4578393D01*
X49290918Y-4694691D01*
X49290973Y-4808543D01*
X49291020Y-4919664D01*
X49291059Y-5027767D01*
X49291090Y-5132568D01*
X49291113Y-5233781D01*
X49291128Y-5331119D01*
X49291135Y-5424299D01*
X49291134Y-5513033D01*
G37*
X49291134Y-5513033D02*
X49291125Y-5597036D01*
X49291109Y-5676023D01*
X49291084Y-5749708D01*
X49291053Y-5817805D01*
X49291013Y-5880030D01*
X49290967Y-5936095D01*
X49290913Y-5985716D01*
X49290851Y-6028607D01*
X49290782Y-6064483D01*
X49290706Y-6093057D01*
X49290623Y-6114044D01*
X49290533Y-6127160D01*
X49290435Y-6132117D01*
X49290427Y-6132152D01*
X49286153Y-6132227D01*
X49273628Y-6132298D01*
X49253070Y-6132365D01*
X49224694Y-6132427D01*
X49188718Y-6132486D01*
X49145357Y-6132541D01*
X49094827Y-6132591D01*
X49037346Y-6132637D01*
X48973130Y-6132679D01*
X48902395Y-6132716D01*
X48825357Y-6132750D01*
X48742233Y-6132779D01*
X48653240Y-6132804D01*
X48558593Y-6132824D01*
X48458510Y-6132840D01*
X48353206Y-6132851D01*
X48242899Y-6132859D01*
X48127804Y-6132861D01*
X48008138Y-6132859D01*
X47884117Y-6132853D01*
X47755958Y-6132842D01*
X47623877Y-6132827D01*
X47488091Y-6132807D01*
X47348815Y-6132782D01*
X47206268Y-6132753D01*
X47060664Y-6132719D01*
X46912220Y-6132680D01*
X46761153Y-6132637D01*
X46607679Y-6132588D01*
X46452015Y-6132535D01*
X46381972Y-6132510D01*
X43474937Y-6131449D01*
X49289719Y-2789137D01*
X49290783Y-4459935D01*
X49290855Y-4578393D01*
X49290918Y-4694691D01*
X49290973Y-4808543D01*
X49291020Y-4919664D01*
X49291059Y-5027767D01*
X49291090Y-5132568D01*
X49291113Y-5233781D01*
X49291128Y-5331119D01*
X49291135Y-5424299D01*
X49291134Y-5513033D01*
G36*
X49335093Y-11214335D02*
G01*
X49330906Y-11216886D01*
X49319673Y-11223314D01*
X49301736Y-11233429D01*
X49277434Y-11247045D01*
X49247108Y-11263973D01*
X49211098Y-11284025D01*
X49169746Y-11307014D01*
X49123391Y-11332752D01*
X49072374Y-11361050D01*
X49017036Y-11391722D01*
X48957716Y-11424578D01*
X48894757Y-11459432D01*
X48828497Y-11496095D01*
X48759278Y-11534379D01*
X48687440Y-11574098D01*
X48613323Y-11615061D01*
X48537268Y-11657083D01*
X48459616Y-11699975D01*
X48380707Y-11743549D01*
X48300881Y-11787618D01*
X48220480Y-11831992D01*
X48139842Y-11876486D01*
X48059310Y-11920910D01*
X47979224Y-11965077D01*
X47899923Y-12008799D01*
X47821749Y-12051888D01*
X47745041Y-12094156D01*
X47670142Y-12135415D01*
X47597390Y-12175478D01*
X47527127Y-12214157D01*
X47459692Y-12251264D01*
X47395427Y-12286610D01*
X47334673Y-12320009D01*
X47277768Y-12351271D01*
X47225055Y-12380210D01*
X47176873Y-12406637D01*
X47133563Y-12430365D01*
X47095465Y-12451206D01*
X47062920Y-12468972D01*
X47036269Y-12483474D01*
X47015852Y-12494526D01*
X47002009Y-12501938D01*
X46995081Y-12505525D01*
X46994310Y-12505840D01*
X46993161Y-12501562D01*
X46989903Y-12489385D01*
X46984614Y-12469590D01*
X46977367Y-12442460D01*
X46968237Y-12408276D01*
X46957301Y-12367318D01*
X46944634Y-12319870D01*
X46930309Y-12266212D01*
X46914403Y-12206626D01*
X46896991Y-12141394D01*
X46878147Y-12070797D01*
X46857948Y-11995116D01*
X46836467Y-11914634D01*
X46813781Y-11829632D01*
X46789965Y-11740391D01*
X46765092Y-11647192D01*
X46739240Y-11550319D01*
X46712482Y-11450051D01*
X46684895Y-11346671D01*
X46656553Y-11240460D01*
X46627530Y-11131700D01*
X46597904Y-11020672D01*
X46578210Y-10946866D01*
X46548216Y-10834461D01*
X46518771Y-10724119D01*
X46489951Y-10616123D01*
X46461831Y-10510756D01*
X46434486Y-10408301D01*
X46407993Y-10309038D01*
X46382426Y-10213252D01*
X46357861Y-10121225D01*
X46334373Y-10033239D01*
X46312038Y-9949578D01*
X46290932Y-9870522D01*
X46271129Y-9796356D01*
X46252705Y-9727362D01*
X46235736Y-9663822D01*
X46220297Y-9606018D01*
X46206463Y-9554234D01*
X46194310Y-9508752D01*
X46183914Y-9469855D01*
X46175350Y-9437825D01*
X46168693Y-9412944D01*
X46164018Y-9395496D01*
X46161402Y-9385762D01*
X46160841Y-9383707D01*
X46160007Y-9377537D01*
X46160904Y-9376299D01*
X46164687Y-9378394D01*
X46175566Y-9384588D01*
X46193303Y-9394746D01*
X46217662Y-9408731D01*
X46248407Y-9426406D01*
X46285302Y-9447635D01*
X46328110Y-9472283D01*
X46376596Y-9500212D01*
X46430523Y-9531288D01*
X46489655Y-9565372D01*
X46553755Y-9602330D01*
X46622588Y-9642024D01*
X46695917Y-9684320D01*
X46773505Y-9729079D01*
X46855118Y-9776167D01*
X46940517Y-9825446D01*
X47029468Y-9876781D01*
X47121734Y-9930036D01*
X47217079Y-9985073D01*
X47315266Y-10041758D01*
X47416059Y-10099953D01*
X47519222Y-10159523D01*
X47624518Y-10220330D01*
X47731713Y-10282240D01*
X47751056Y-10293412D01*
X47872011Y-10363287D01*
X47989444Y-10431155D01*
X48103182Y-10496916D01*
X48213052Y-10560468D01*
X48318880Y-10621711D01*
X48420494Y-10680543D01*
X48517719Y-10736866D01*
X48610383Y-10790576D01*
X48698312Y-10841574D01*
X48781333Y-10889760D01*
X48859272Y-10935031D01*
X48931957Y-10977288D01*
X48999213Y-11016430D01*
X49060868Y-11052355D01*
X49116748Y-11084963D01*
X49166680Y-11114154D01*
X49210491Y-11139827D01*
X49248006Y-11161880D01*
X49279054Y-11180213D01*
X49303460Y-11194725D01*
X49321051Y-11205316D01*
X49331655Y-11211885D01*
X49335096Y-11214331D01*
X49335093Y-11214335D01*
G37*
X49335093Y-11214335D02*
X49330906Y-11216886D01*
X49319673Y-11223314D01*
X49301736Y-11233429D01*
X49277434Y-11247045D01*
X49247108Y-11263973D01*
X49211098Y-11284025D01*
X49169746Y-11307014D01*
X49123391Y-11332752D01*
X49072374Y-11361050D01*
X49017036Y-11391722D01*
X48957716Y-11424578D01*
X48894757Y-11459432D01*
X48828497Y-11496095D01*
X48759278Y-11534379D01*
X48687440Y-11574098D01*
X48613323Y-11615061D01*
X48537268Y-11657083D01*
X48459616Y-11699975D01*
X48380707Y-11743549D01*
X48300881Y-11787618D01*
X48220480Y-11831992D01*
X48139842Y-11876486D01*
X48059310Y-11920910D01*
X47979224Y-11965077D01*
X47899923Y-12008799D01*
X47821749Y-12051888D01*
X47745041Y-12094156D01*
X47670142Y-12135415D01*
X47597390Y-12175478D01*
X47527127Y-12214157D01*
X47459692Y-12251264D01*
X47395427Y-12286610D01*
X47334673Y-12320009D01*
X47277768Y-12351271D01*
X47225055Y-12380210D01*
X47176873Y-12406637D01*
X47133563Y-12430365D01*
X47095465Y-12451206D01*
X47062920Y-12468972D01*
X47036269Y-12483474D01*
X47015852Y-12494526D01*
X47002009Y-12501938D01*
X46995081Y-12505525D01*
X46994310Y-12505840D01*
X46993161Y-12501562D01*
X46989903Y-12489385D01*
X46984614Y-12469590D01*
X46977367Y-12442460D01*
X46968237Y-12408276D01*
X46957301Y-12367318D01*
X46944634Y-12319870D01*
X46930309Y-12266212D01*
X46914403Y-12206626D01*
X46896991Y-12141394D01*
X46878147Y-12070797D01*
X46857948Y-11995116D01*
X46836467Y-11914634D01*
X46813781Y-11829632D01*
X46789965Y-11740391D01*
X46765092Y-11647192D01*
X46739240Y-11550319D01*
X46712482Y-11450051D01*
X46684895Y-11346671D01*
X46656553Y-11240460D01*
X46627530Y-11131700D01*
X46597904Y-11020672D01*
X46578210Y-10946866D01*
X46548216Y-10834461D01*
X46518771Y-10724119D01*
X46489951Y-10616123D01*
X46461831Y-10510756D01*
X46434486Y-10408301D01*
X46407993Y-10309038D01*
X46382426Y-10213252D01*
X46357861Y-10121225D01*
X46334373Y-10033239D01*
X46312038Y-9949578D01*
X46290932Y-9870522D01*
X46271129Y-9796356D01*
X46252705Y-9727362D01*
X46235736Y-9663822D01*
X46220297Y-9606018D01*
X46206463Y-9554234D01*
X46194310Y-9508752D01*
X46183914Y-9469855D01*
X46175350Y-9437825D01*
X46168693Y-9412944D01*
X46164018Y-9395496D01*
X46161402Y-9385762D01*
X46160841Y-9383707D01*
X46160007Y-9377537D01*
X46160904Y-9376299D01*
X46164687Y-9378394D01*
X46175566Y-9384588D01*
X46193303Y-9394746D01*
X46217662Y-9408731D01*
X46248407Y-9426406D01*
X46285302Y-9447635D01*
X46328110Y-9472283D01*
X46376596Y-9500212D01*
X46430523Y-9531288D01*
X46489655Y-9565372D01*
X46553755Y-9602330D01*
X46622588Y-9642024D01*
X46695917Y-9684320D01*
X46773505Y-9729079D01*
X46855118Y-9776167D01*
X46940517Y-9825446D01*
X47029468Y-9876781D01*
X47121734Y-9930036D01*
X47217079Y-9985073D01*
X47315266Y-10041758D01*
X47416059Y-10099953D01*
X47519222Y-10159523D01*
X47624518Y-10220330D01*
X47731713Y-10282240D01*
X47751056Y-10293412D01*
X47872011Y-10363287D01*
X47989444Y-10431155D01*
X48103182Y-10496916D01*
X48213052Y-10560468D01*
X48318880Y-10621711D01*
X48420494Y-10680543D01*
X48517719Y-10736866D01*
X48610383Y-10790576D01*
X48698312Y-10841574D01*
X48781333Y-10889760D01*
X48859272Y-10935031D01*
X48931957Y-10977288D01*
X48999213Y-11016430D01*
X49060868Y-11052355D01*
X49116748Y-11084963D01*
X49166680Y-11114154D01*
X49210491Y-11139827D01*
X49248006Y-11161880D01*
X49279054Y-11180213D01*
X49303460Y-11194725D01*
X49321051Y-11205316D01*
X49331655Y-11211885D01*
X49335096Y-11214331D01*
X49335093Y-11214335D01*
D11*
X67369450Y-53181250D02*
X68163200Y-53181250D01*
X67369450Y-52387500D02*
X67369450Y-53181250D01*
X67369450Y-42068750D02*
X67369450Y-42862500D01*
X68163200Y-42068750D02*
X67369450Y-42068750D01*
X78481950Y-53181250D02*
X78481950Y-52387500D01*
X77688200Y-53181250D02*
X78481950Y-53181250D01*
X78481950Y-42068750D02*
X78481950Y-42862500D01*
X77688200Y-42068750D02*
X78481950Y-42068750D01*
X50800050Y-42068750D02*
X50006300Y-42068750D01*
X50800050Y-42862500D02*
X50800050Y-42068750D01*
X50800050Y-53181250D02*
X50800050Y-52387500D01*
X50006300Y-53181250D02*
X50800050Y-53181250D01*
X39687550Y-42068750D02*
X39687550Y-42862500D01*
X40481300Y-42068750D02*
X39687550Y-42068750D01*
X39687550Y-53181250D02*
X39687550Y-52387500D01*
X40481300Y-53181250D02*
X39687550Y-53181250D01*
X66595600Y-30440300D02*
X76755600Y-30440300D01*
X66595600Y-27900300D02*
X76755600Y-27900300D01*
X76755600Y-27900300D02*
X76755600Y-30440300D01*
X66595600Y-30440300D02*
X66595600Y-27900300D01*
X41294800Y-30440300D02*
X51454800Y-30440300D01*
X41294800Y-27900300D02*
X51454800Y-27900300D01*
X51454800Y-27900300D02*
X51454800Y-30440300D01*
X41294800Y-30440300D02*
X41294800Y-27900300D01*
X70213219Y-26522680D02*
X70403695Y-26522680D01*
X70498933Y-26570300D01*
X70594171Y-26665538D01*
X70641790Y-26856014D01*
X70641790Y-27189347D01*
X70594171Y-27379823D01*
X70498933Y-27475061D01*
X70403695Y-27522680D01*
X70213219Y-27522680D01*
X70117980Y-27475061D01*
X70022742Y-27379823D01*
X69975123Y-27189347D01*
X69975123Y-26856014D01*
X70022742Y-26665538D01*
X70117980Y-26570300D01*
X70213219Y-26522680D01*
X71546552Y-27522680D02*
X71070361Y-27522680D01*
X71070361Y-26522680D01*
X71879885Y-26998871D02*
X72213219Y-26998871D01*
X72356076Y-27522680D02*
X71879885Y-27522680D01*
X71879885Y-26522680D01*
X72356076Y-26522680D01*
X72784647Y-27522680D02*
X72784647Y-26522680D01*
X73022742Y-26522680D01*
X73165600Y-26570300D01*
X73260838Y-26665538D01*
X73308457Y-26760776D01*
X73356076Y-26951252D01*
X73356076Y-27094109D01*
X73308457Y-27284585D01*
X73260838Y-27379823D01*
X73165600Y-27475061D01*
X73022742Y-27522680D01*
X72784647Y-27522680D01*
X44912419Y-26522680D02*
X45102895Y-26522680D01*
X45198133Y-26570300D01*
X45293371Y-26665538D01*
X45340990Y-26856014D01*
X45340990Y-27189347D01*
X45293371Y-27379823D01*
X45198133Y-27475061D01*
X45102895Y-27522680D01*
X44912419Y-27522680D01*
X44817180Y-27475061D01*
X44721942Y-27379823D01*
X44674323Y-27189347D01*
X44674323Y-26856014D01*
X44721942Y-26665538D01*
X44817180Y-26570300D01*
X44912419Y-26522680D01*
X46245752Y-27522680D02*
X45769561Y-27522680D01*
X45769561Y-26522680D01*
X46579085Y-26998871D02*
X46912419Y-26998871D01*
X47055276Y-27522680D02*
X46579085Y-27522680D01*
X46579085Y-26522680D01*
X47055276Y-26522680D01*
X47483847Y-27522680D02*
X47483847Y-26522680D01*
X47721942Y-26522680D01*
X47864800Y-26570300D01*
X47960038Y-26665538D01*
X48007657Y-26760776D01*
X48055276Y-26951252D01*
X48055276Y-27094109D01*
X48007657Y-27284585D01*
X47960038Y-27379823D01*
X47864800Y-27475061D01*
X47721942Y-27522680D01*
X47483847Y-27522680D01*
X95726661Y6660119D02*
X95250471Y6660119D01*
X95250471Y7660119D01*
X96059995Y6660119D02*
X96059995Y7326785D01*
X96059995Y7660119D02*
X96012376Y7612500D01*
X96059995Y7564880D01*
X96107614Y7612500D01*
X96059995Y7660119D01*
X96059995Y7564880D01*
X96964757Y7326785D02*
X96964757Y6517261D01*
X96917138Y6422023D01*
X96869519Y6374404D01*
X96774280Y6326785D01*
X96631423Y6326785D01*
X96536185Y6374404D01*
X96964757Y6707738D02*
X96869519Y6660119D01*
X96679042Y6660119D01*
X96583804Y6707738D01*
X96536185Y6755357D01*
X96488566Y6850595D01*
X96488566Y7136309D01*
X96536185Y7231547D01*
X96583804Y7279166D01*
X96679042Y7326785D01*
X96869519Y7326785D01*
X96964757Y7279166D01*
X97440947Y6660119D02*
X97440947Y7660119D01*
X97869519Y6660119D02*
X97869519Y7183928D01*
X97821900Y7279166D01*
X97726661Y7326785D01*
X97583804Y7326785D01*
X97488566Y7279166D01*
X97440947Y7231547D01*
X98202852Y7326785D02*
X98583804Y7326785D01*
X98345709Y7660119D02*
X98345709Y6802976D01*
X98393328Y6707738D01*
X98488566Y6660119D01*
X98583804Y6660119D01*
X99631423Y6707738D02*
X99774280Y6660119D01*
X100012376Y6660119D01*
X100107614Y6707738D01*
X100155233Y6755357D01*
X100202852Y6850595D01*
X100202852Y6945833D01*
X100155233Y7041071D01*
X100107614Y7088690D01*
X100012376Y7136309D01*
X99821900Y7183928D01*
X99726661Y7231547D01*
X99679042Y7279166D01*
X99631423Y7374404D01*
X99631423Y7469642D01*
X99679042Y7564880D01*
X99726661Y7612500D01*
X99821900Y7660119D01*
X100059995Y7660119D01*
X100202852Y7612500D01*
X100631423Y6660119D02*
X100631423Y7326785D01*
X100631423Y7660119D02*
X100583804Y7612500D01*
X100631423Y7564880D01*
X100679042Y7612500D01*
X100631423Y7660119D01*
X100631423Y7564880D01*
X101536185Y6660119D02*
X101536185Y7660119D01*
X101536185Y6707738D02*
X101440947Y6660119D01*
X101250471Y6660119D01*
X101155233Y6707738D01*
X101107614Y6755357D01*
X101059995Y6850595D01*
X101059995Y7136309D01*
X101107614Y7231547D01*
X101155233Y7279166D01*
X101250471Y7326785D01*
X101440947Y7326785D01*
X101536185Y7279166D01*
X102393328Y6707738D02*
X102298090Y6660119D01*
X102107614Y6660119D01*
X102012376Y6707738D01*
X101964757Y6802976D01*
X101964757Y7183928D01*
X102012376Y7279166D01*
X102107614Y7326785D01*
X102298090Y7326785D01*
X102393328Y7279166D01*
X102440947Y7183928D01*
X102440947Y7088690D01*
X101964757Y6993452D01*
X95726661Y-12389880D02*
X95250471Y-12389880D01*
X95250471Y-11389880D01*
X96059995Y-12389880D02*
X96059995Y-11723214D01*
X96059995Y-11389880D02*
X96012376Y-11437500D01*
X96059995Y-11485119D01*
X96107614Y-11437500D01*
X96059995Y-11389880D01*
X96059995Y-11485119D01*
X96964757Y-11723214D02*
X96964757Y-12532738D01*
X96917138Y-12627976D01*
X96869519Y-12675595D01*
X96774280Y-12723214D01*
X96631423Y-12723214D01*
X96536185Y-12675595D01*
X96964757Y-12342261D02*
X96869519Y-12389880D01*
X96679042Y-12389880D01*
X96583804Y-12342261D01*
X96536185Y-12294642D01*
X96488566Y-12199404D01*
X96488566Y-11913690D01*
X96536185Y-11818452D01*
X96583804Y-11770833D01*
X96679042Y-11723214D01*
X96869519Y-11723214D01*
X96964757Y-11770833D01*
X97440947Y-12389880D02*
X97440947Y-11389880D01*
X97869519Y-12389880D02*
X97869519Y-11866071D01*
X97821900Y-11770833D01*
X97726661Y-11723214D01*
X97583804Y-11723214D01*
X97488566Y-11770833D01*
X97440947Y-11818452D01*
X98202852Y-11723214D02*
X98583804Y-11723214D01*
X98345709Y-11389880D02*
X98345709Y-12247023D01*
X98393328Y-12342261D01*
X98488566Y-12389880D01*
X98583804Y-12389880D01*
X99631423Y-12342261D02*
X99774280Y-12389880D01*
X100012376Y-12389880D01*
X100107614Y-12342261D01*
X100155233Y-12294642D01*
X100202852Y-12199404D01*
X100202852Y-12104166D01*
X100155233Y-12008928D01*
X100107614Y-11961309D01*
X100012376Y-11913690D01*
X99821900Y-11866071D01*
X99726661Y-11818452D01*
X99679042Y-11770833D01*
X99631423Y-11675595D01*
X99631423Y-11580357D01*
X99679042Y-11485119D01*
X99726661Y-11437500D01*
X99821900Y-11389880D01*
X100059995Y-11389880D01*
X100202852Y-11437500D01*
X100631423Y-12389880D02*
X100631423Y-11723214D01*
X100631423Y-11389880D02*
X100583804Y-11437500D01*
X100631423Y-11485119D01*
X100679042Y-11437500D01*
X100631423Y-11389880D01*
X100631423Y-11485119D01*
X101536185Y-12389880D02*
X101536185Y-11389880D01*
X101536185Y-12342261D02*
X101440947Y-12389880D01*
X101250471Y-12389880D01*
X101155233Y-12342261D01*
X101107614Y-12294642D01*
X101059995Y-12199404D01*
X101059995Y-11913690D01*
X101107614Y-11818452D01*
X101155233Y-11770833D01*
X101250471Y-11723214D01*
X101440947Y-11723214D01*
X101536185Y-11770833D01*
X102393328Y-12342261D02*
X102298090Y-12389880D01*
X102107614Y-12389880D01*
X102012376Y-12342261D01*
X101964757Y-12247023D01*
X101964757Y-11866071D01*
X102012376Y-11770833D01*
X102107614Y-11723214D01*
X102298090Y-11723214D01*
X102393328Y-11770833D01*
X102440947Y-11866071D01*
X102440947Y-11961309D01*
X101964757Y-12056547D01*
X95726661Y-31439880D02*
X95250471Y-31439880D01*
X95250471Y-30439880D01*
X96059995Y-31439880D02*
X96059995Y-30773214D01*
X96059995Y-30439880D02*
X96012376Y-30487500D01*
X96059995Y-30535119D01*
X96107614Y-30487500D01*
X96059995Y-30439880D01*
X96059995Y-30535119D01*
X96964757Y-30773214D02*
X96964757Y-31582738D01*
X96917138Y-31677976D01*
X96869519Y-31725595D01*
X96774280Y-31773214D01*
X96631423Y-31773214D01*
X96536185Y-31725595D01*
X96964757Y-31392261D02*
X96869519Y-31439880D01*
X96679042Y-31439880D01*
X96583804Y-31392261D01*
X96536185Y-31344642D01*
X96488566Y-31249404D01*
X96488566Y-30963690D01*
X96536185Y-30868452D01*
X96583804Y-30820833D01*
X96679042Y-30773214D01*
X96869519Y-30773214D01*
X96964757Y-30820833D01*
X97440947Y-31439880D02*
X97440947Y-30439880D01*
X97869519Y-31439880D02*
X97869519Y-30916071D01*
X97821900Y-30820833D01*
X97726661Y-30773214D01*
X97583804Y-30773214D01*
X97488566Y-30820833D01*
X97440947Y-30868452D01*
X98202852Y-30773214D02*
X98583804Y-30773214D01*
X98345709Y-30439880D02*
X98345709Y-31297023D01*
X98393328Y-31392261D01*
X98488566Y-31439880D01*
X98583804Y-31439880D01*
X99631423Y-31392261D02*
X99774280Y-31439880D01*
X100012376Y-31439880D01*
X100107614Y-31392261D01*
X100155233Y-31344642D01*
X100202852Y-31249404D01*
X100202852Y-31154166D01*
X100155233Y-31058928D01*
X100107614Y-31011309D01*
X100012376Y-30963690D01*
X99821900Y-30916071D01*
X99726661Y-30868452D01*
X99679042Y-30820833D01*
X99631423Y-30725595D01*
X99631423Y-30630357D01*
X99679042Y-30535119D01*
X99726661Y-30487500D01*
X99821900Y-30439880D01*
X100059995Y-30439880D01*
X100202852Y-30487500D01*
X100631423Y-31439880D02*
X100631423Y-30773214D01*
X100631423Y-30439880D02*
X100583804Y-30487500D01*
X100631423Y-30535119D01*
X100679042Y-30487500D01*
X100631423Y-30439880D01*
X100631423Y-30535119D01*
X101536185Y-31439880D02*
X101536185Y-30439880D01*
X101536185Y-31392261D02*
X101440947Y-31439880D01*
X101250471Y-31439880D01*
X101155233Y-31392261D01*
X101107614Y-31344642D01*
X101059995Y-31249404D01*
X101059995Y-30963690D01*
X101107614Y-30868452D01*
X101155233Y-30820833D01*
X101250471Y-30773214D01*
X101440947Y-30773214D01*
X101536185Y-30820833D01*
X102393328Y-31392261D02*
X102298090Y-31439880D01*
X102107614Y-31439880D01*
X102012376Y-31392261D01*
X101964757Y-31297023D01*
X101964757Y-30916071D01*
X102012376Y-30820833D01*
X102107614Y-30773214D01*
X102298090Y-30773214D01*
X102393328Y-30820833D01*
X102440947Y-30916071D01*
X102440947Y-31011309D01*
X101964757Y-31106547D01*
X95726661Y-50489880D02*
X95250471Y-50489880D01*
X95250471Y-49489880D01*
X96059995Y-50489880D02*
X96059995Y-49823214D01*
X96059995Y-49489880D02*
X96012376Y-49537500D01*
X96059995Y-49585119D01*
X96107614Y-49537500D01*
X96059995Y-49489880D01*
X96059995Y-49585119D01*
X96964757Y-49823214D02*
X96964757Y-50632738D01*
X96917138Y-50727976D01*
X96869519Y-50775595D01*
X96774280Y-50823214D01*
X96631423Y-50823214D01*
X96536185Y-50775595D01*
X96964757Y-50442261D02*
X96869519Y-50489880D01*
X96679042Y-50489880D01*
X96583804Y-50442261D01*
X96536185Y-50394642D01*
X96488566Y-50299404D01*
X96488566Y-50013690D01*
X96536185Y-49918452D01*
X96583804Y-49870833D01*
X96679042Y-49823214D01*
X96869519Y-49823214D01*
X96964757Y-49870833D01*
X97440947Y-50489880D02*
X97440947Y-49489880D01*
X97869519Y-50489880D02*
X97869519Y-49966071D01*
X97821900Y-49870833D01*
X97726661Y-49823214D01*
X97583804Y-49823214D01*
X97488566Y-49870833D01*
X97440947Y-49918452D01*
X98202852Y-49823214D02*
X98583804Y-49823214D01*
X98345709Y-49489880D02*
X98345709Y-50347023D01*
X98393328Y-50442261D01*
X98488566Y-50489880D01*
X98583804Y-50489880D01*
X99631423Y-50442261D02*
X99774280Y-50489880D01*
X100012376Y-50489880D01*
X100107614Y-50442261D01*
X100155233Y-50394642D01*
X100202852Y-50299404D01*
X100202852Y-50204166D01*
X100155233Y-50108928D01*
X100107614Y-50061309D01*
X100012376Y-50013690D01*
X99821900Y-49966071D01*
X99726661Y-49918452D01*
X99679042Y-49870833D01*
X99631423Y-49775595D01*
X99631423Y-49680357D01*
X99679042Y-49585119D01*
X99726661Y-49537500D01*
X99821900Y-49489880D01*
X100059995Y-49489880D01*
X100202852Y-49537500D01*
X100631423Y-50489880D02*
X100631423Y-49823214D01*
X100631423Y-49489880D02*
X100583804Y-49537500D01*
X100631423Y-49585119D01*
X100679042Y-49537500D01*
X100631423Y-49489880D01*
X100631423Y-49585119D01*
X101536185Y-50489880D02*
X101536185Y-49489880D01*
X101536185Y-50442261D02*
X101440947Y-50489880D01*
X101250471Y-50489880D01*
X101155233Y-50442261D01*
X101107614Y-50394642D01*
X101059995Y-50299404D01*
X101059995Y-50013690D01*
X101107614Y-49918452D01*
X101155233Y-49870833D01*
X101250471Y-49823214D01*
X101440947Y-49823214D01*
X101536185Y-49870833D01*
X102393328Y-50442261D02*
X102298090Y-50489880D01*
X102107614Y-50489880D01*
X102012376Y-50442261D01*
X101964757Y-50347023D01*
X101964757Y-49966071D01*
X102012376Y-49870833D01*
X102107614Y-49823214D01*
X102298090Y-49823214D01*
X102393328Y-49870833D01*
X102440947Y-49966071D01*
X102440947Y-50061309D01*
X101964757Y-50156547D01*
X114776761Y-50489880D02*
X114300571Y-50489880D01*
X114300571Y-49489880D01*
X115110095Y-50489880D02*
X115110095Y-49823214D01*
X115110095Y-49489880D02*
X115062476Y-49537500D01*
X115110095Y-49585119D01*
X115157714Y-49537500D01*
X115110095Y-49489880D01*
X115110095Y-49585119D01*
X116014857Y-49823214D02*
X116014857Y-50632738D01*
X115967238Y-50727976D01*
X115919619Y-50775595D01*
X115824380Y-50823214D01*
X115681523Y-50823214D01*
X115586285Y-50775595D01*
X116014857Y-50442261D02*
X115919619Y-50489880D01*
X115729142Y-50489880D01*
X115633904Y-50442261D01*
X115586285Y-50394642D01*
X115538666Y-50299404D01*
X115538666Y-50013690D01*
X115586285Y-49918452D01*
X115633904Y-49870833D01*
X115729142Y-49823214D01*
X115919619Y-49823214D01*
X116014857Y-49870833D01*
X116491047Y-50489880D02*
X116491047Y-49489880D01*
X116919619Y-50489880D02*
X116919619Y-49966071D01*
X116872000Y-49870833D01*
X116776761Y-49823214D01*
X116633904Y-49823214D01*
X116538666Y-49870833D01*
X116491047Y-49918452D01*
X117252952Y-49823214D02*
X117633904Y-49823214D01*
X117395809Y-49489880D02*
X117395809Y-50347023D01*
X117443428Y-50442261D01*
X117538666Y-50489880D01*
X117633904Y-50489880D01*
X118681523Y-50442261D02*
X118824380Y-50489880D01*
X119062476Y-50489880D01*
X119157714Y-50442261D01*
X119205333Y-50394642D01*
X119252952Y-50299404D01*
X119252952Y-50204166D01*
X119205333Y-50108928D01*
X119157714Y-50061309D01*
X119062476Y-50013690D01*
X118872000Y-49966071D01*
X118776761Y-49918452D01*
X118729142Y-49870833D01*
X118681523Y-49775595D01*
X118681523Y-49680357D01*
X118729142Y-49585119D01*
X118776761Y-49537500D01*
X118872000Y-49489880D01*
X119110095Y-49489880D01*
X119252952Y-49537500D01*
X119681523Y-50489880D02*
X119681523Y-49823214D01*
X119681523Y-49489880D02*
X119633904Y-49537500D01*
X119681523Y-49585119D01*
X119729142Y-49537500D01*
X119681523Y-49489880D01*
X119681523Y-49585119D01*
X120586285Y-50489880D02*
X120586285Y-49489880D01*
X120586285Y-50442261D02*
X120491047Y-50489880D01*
X120300571Y-50489880D01*
X120205333Y-50442261D01*
X120157714Y-50394642D01*
X120110095Y-50299404D01*
X120110095Y-50013690D01*
X120157714Y-49918452D01*
X120205333Y-49870833D01*
X120300571Y-49823214D01*
X120491047Y-49823214D01*
X120586285Y-49870833D01*
X121443428Y-50442261D02*
X121348190Y-50489880D01*
X121157714Y-50489880D01*
X121062476Y-50442261D01*
X121014857Y-50347023D01*
X121014857Y-49966071D01*
X121062476Y-49870833D01*
X121157714Y-49823214D01*
X121348190Y-49823214D01*
X121443428Y-49870833D01*
X121491047Y-49966071D01*
X121491047Y-50061309D01*
X121014857Y-50156547D01*
X114776761Y-31439880D02*
X114300571Y-31439880D01*
X114300571Y-30439880D01*
X115110095Y-31439880D02*
X115110095Y-30773214D01*
X115110095Y-30439880D02*
X115062476Y-30487500D01*
X115110095Y-30535119D01*
X115157714Y-30487500D01*
X115110095Y-30439880D01*
X115110095Y-30535119D01*
X116014857Y-30773214D02*
X116014857Y-31582738D01*
X115967238Y-31677976D01*
X115919619Y-31725595D01*
X115824380Y-31773214D01*
X115681523Y-31773214D01*
X115586285Y-31725595D01*
X116014857Y-31392261D02*
X115919619Y-31439880D01*
X115729142Y-31439880D01*
X115633904Y-31392261D01*
X115586285Y-31344642D01*
X115538666Y-31249404D01*
X115538666Y-30963690D01*
X115586285Y-30868452D01*
X115633904Y-30820833D01*
X115729142Y-30773214D01*
X115919619Y-30773214D01*
X116014857Y-30820833D01*
X116491047Y-31439880D02*
X116491047Y-30439880D01*
X116919619Y-31439880D02*
X116919619Y-30916071D01*
X116872000Y-30820833D01*
X116776761Y-30773214D01*
X116633904Y-30773214D01*
X116538666Y-30820833D01*
X116491047Y-30868452D01*
X117252952Y-30773214D02*
X117633904Y-30773214D01*
X117395809Y-30439880D02*
X117395809Y-31297023D01*
X117443428Y-31392261D01*
X117538666Y-31439880D01*
X117633904Y-31439880D01*
X118681523Y-31392261D02*
X118824380Y-31439880D01*
X119062476Y-31439880D01*
X119157714Y-31392261D01*
X119205333Y-31344642D01*
X119252952Y-31249404D01*
X119252952Y-31154166D01*
X119205333Y-31058928D01*
X119157714Y-31011309D01*
X119062476Y-30963690D01*
X118872000Y-30916071D01*
X118776761Y-30868452D01*
X118729142Y-30820833D01*
X118681523Y-30725595D01*
X118681523Y-30630357D01*
X118729142Y-30535119D01*
X118776761Y-30487500D01*
X118872000Y-30439880D01*
X119110095Y-30439880D01*
X119252952Y-30487500D01*
X119681523Y-31439880D02*
X119681523Y-30773214D01*
X119681523Y-30439880D02*
X119633904Y-30487500D01*
X119681523Y-30535119D01*
X119729142Y-30487500D01*
X119681523Y-30439880D01*
X119681523Y-30535119D01*
X120586285Y-31439880D02*
X120586285Y-30439880D01*
X120586285Y-31392261D02*
X120491047Y-31439880D01*
X120300571Y-31439880D01*
X120205333Y-31392261D01*
X120157714Y-31344642D01*
X120110095Y-31249404D01*
X120110095Y-30963690D01*
X120157714Y-30868452D01*
X120205333Y-30820833D01*
X120300571Y-30773214D01*
X120491047Y-30773214D01*
X120586285Y-30820833D01*
X121443428Y-31392261D02*
X121348190Y-31439880D01*
X121157714Y-31439880D01*
X121062476Y-31392261D01*
X121014857Y-31297023D01*
X121014857Y-30916071D01*
X121062476Y-30820833D01*
X121157714Y-30773214D01*
X121348190Y-30773214D01*
X121443428Y-30820833D01*
X121491047Y-30916071D01*
X121491047Y-31011309D01*
X121014857Y-31106547D01*
X114776761Y-12389880D02*
X114300571Y-12389880D01*
X114300571Y-11389880D01*
X115110095Y-12389880D02*
X115110095Y-11723214D01*
X115110095Y-11389880D02*
X115062476Y-11437500D01*
X115110095Y-11485119D01*
X115157714Y-11437500D01*
X115110095Y-11389880D01*
X115110095Y-11485119D01*
X116014857Y-11723214D02*
X116014857Y-12532738D01*
X115967238Y-12627976D01*
X115919619Y-12675595D01*
X115824380Y-12723214D01*
X115681523Y-12723214D01*
X115586285Y-12675595D01*
X116014857Y-12342261D02*
X115919619Y-12389880D01*
X115729142Y-12389880D01*
X115633904Y-12342261D01*
X115586285Y-12294642D01*
X115538666Y-12199404D01*
X115538666Y-11913690D01*
X115586285Y-11818452D01*
X115633904Y-11770833D01*
X115729142Y-11723214D01*
X115919619Y-11723214D01*
X116014857Y-11770833D01*
X116491047Y-12389880D02*
X116491047Y-11389880D01*
X116919619Y-12389880D02*
X116919619Y-11866071D01*
X116872000Y-11770833D01*
X116776761Y-11723214D01*
X116633904Y-11723214D01*
X116538666Y-11770833D01*
X116491047Y-11818452D01*
X117252952Y-11723214D02*
X117633904Y-11723214D01*
X117395809Y-11389880D02*
X117395809Y-12247023D01*
X117443428Y-12342261D01*
X117538666Y-12389880D01*
X117633904Y-12389880D01*
X118681523Y-12342261D02*
X118824380Y-12389880D01*
X119062476Y-12389880D01*
X119157714Y-12342261D01*
X119205333Y-12294642D01*
X119252952Y-12199404D01*
X119252952Y-12104166D01*
X119205333Y-12008928D01*
X119157714Y-11961309D01*
X119062476Y-11913690D01*
X118872000Y-11866071D01*
X118776761Y-11818452D01*
X118729142Y-11770833D01*
X118681523Y-11675595D01*
X118681523Y-11580357D01*
X118729142Y-11485119D01*
X118776761Y-11437500D01*
X118872000Y-11389880D01*
X119110095Y-11389880D01*
X119252952Y-11437500D01*
X119681523Y-12389880D02*
X119681523Y-11723214D01*
X119681523Y-11389880D02*
X119633904Y-11437500D01*
X119681523Y-11485119D01*
X119729142Y-11437500D01*
X119681523Y-11389880D01*
X119681523Y-11485119D01*
X120586285Y-12389880D02*
X120586285Y-11389880D01*
X120586285Y-12342261D02*
X120491047Y-12389880D01*
X120300571Y-12389880D01*
X120205333Y-12342261D01*
X120157714Y-12294642D01*
X120110095Y-12199404D01*
X120110095Y-11913690D01*
X120157714Y-11818452D01*
X120205333Y-11770833D01*
X120300571Y-11723214D01*
X120491047Y-11723214D01*
X120586285Y-11770833D01*
X121443428Y-12342261D02*
X121348190Y-12389880D01*
X121157714Y-12389880D01*
X121062476Y-12342261D01*
X121014857Y-12247023D01*
X121014857Y-11866071D01*
X121062476Y-11770833D01*
X121157714Y-11723214D01*
X121348190Y-11723214D01*
X121443428Y-11770833D01*
X121491047Y-11866071D01*
X121491047Y-11961309D01*
X121014857Y-12056547D01*
X114776761Y6660119D02*
X114300571Y6660119D01*
X114300571Y7660119D01*
X115110095Y6660119D02*
X115110095Y7326785D01*
X115110095Y7660119D02*
X115062476Y7612500D01*
X115110095Y7564880D01*
X115157714Y7612500D01*
X115110095Y7660119D01*
X115110095Y7564880D01*
X116014857Y7326785D02*
X116014857Y6517261D01*
X115967238Y6422023D01*
X115919619Y6374404D01*
X115824380Y6326785D01*
X115681523Y6326785D01*
X115586285Y6374404D01*
X116014857Y6707738D02*
X115919619Y6660119D01*
X115729142Y6660119D01*
X115633904Y6707738D01*
X115586285Y6755357D01*
X115538666Y6850595D01*
X115538666Y7136309D01*
X115586285Y7231547D01*
X115633904Y7279166D01*
X115729142Y7326785D01*
X115919619Y7326785D01*
X116014857Y7279166D01*
X116491047Y6660119D02*
X116491047Y7660119D01*
X116919619Y6660119D02*
X116919619Y7183928D01*
X116872000Y7279166D01*
X116776761Y7326785D01*
X116633904Y7326785D01*
X116538666Y7279166D01*
X116491047Y7231547D01*
X117252952Y7326785D02*
X117633904Y7326785D01*
X117395809Y7660119D02*
X117395809Y6802976D01*
X117443428Y6707738D01*
X117538666Y6660119D01*
X117633904Y6660119D01*
X118681523Y6707738D02*
X118824380Y6660119D01*
X119062476Y6660119D01*
X119157714Y6707738D01*
X119205333Y6755357D01*
X119252952Y6850595D01*
X119252952Y6945833D01*
X119205333Y7041071D01*
X119157714Y7088690D01*
X119062476Y7136309D01*
X118872000Y7183928D01*
X118776761Y7231547D01*
X118729142Y7279166D01*
X118681523Y7374404D01*
X118681523Y7469642D01*
X118729142Y7564880D01*
X118776761Y7612500D01*
X118872000Y7660119D01*
X119110095Y7660119D01*
X119252952Y7612500D01*
X119681523Y6660119D02*
X119681523Y7326785D01*
X119681523Y7660119D02*
X119633904Y7612500D01*
X119681523Y7564880D01*
X119729142Y7612500D01*
X119681523Y7660119D01*
X119681523Y7564880D01*
X120586285Y6660119D02*
X120586285Y7660119D01*
X120586285Y6707738D02*
X120491047Y6660119D01*
X120300571Y6660119D01*
X120205333Y6707738D01*
X120157714Y6755357D01*
X120110095Y6850595D01*
X120110095Y7136309D01*
X120157714Y7231547D01*
X120205333Y7279166D01*
X120300571Y7326785D01*
X120491047Y7326785D01*
X120586285Y7279166D01*
X121443428Y6707738D02*
X121348190Y6660119D01*
X121157714Y6660119D01*
X121062476Y6707738D01*
X121014857Y6802976D01*
X121014857Y7183928D01*
X121062476Y7279166D01*
X121157714Y7326785D01*
X121348190Y7326785D01*
X121443428Y7279166D01*
X121491047Y7183928D01*
X121491047Y7088690D01*
X121014857Y6993452D01*
X-3095238Y6660119D02*
X-3571428Y6660119D01*
X-3571428Y7660119D01*
X-2761904Y6660119D02*
X-2761904Y7326785D01*
X-2761904Y7660119D02*
X-2809523Y7612500D01*
X-2761904Y7564880D01*
X-2714285Y7612500D01*
X-2761904Y7660119D01*
X-2761904Y7564880D01*
X-1857142Y7326785D02*
X-1857142Y6517261D01*
X-1904761Y6422023D01*
X-1952380Y6374404D01*
X-2047619Y6326785D01*
X-2190476Y6326785D01*
X-2285714Y6374404D01*
X-1857142Y6707738D02*
X-1952380Y6660119D01*
X-2142857Y6660119D01*
X-2238095Y6707738D01*
X-2285714Y6755357D01*
X-2333333Y6850595D01*
X-2333333Y7136309D01*
X-2285714Y7231547D01*
X-2238095Y7279166D01*
X-2142857Y7326785D01*
X-1952380Y7326785D01*
X-1857142Y7279166D01*
X-1380952Y6660119D02*
X-1380952Y7660119D01*
X-952380Y6660119D02*
X-952380Y7183928D01*
X-999999Y7279166D01*
X-1095238Y7326785D01*
X-1238095Y7326785D01*
X-1333333Y7279166D01*
X-1380952Y7231547D01*
X-619047Y7326785D02*
X-238095Y7326785D01*
X-476190Y7660119D02*
X-476190Y6802976D01*
X-428571Y6707738D01*
X-333333Y6660119D01*
X-238095Y6660119D01*
X809523Y6707738D02*
X952380Y6660119D01*
X1190476Y6660119D01*
X1285714Y6707738D01*
X1333333Y6755357D01*
X1380952Y6850595D01*
X1380952Y6945833D01*
X1333333Y7041071D01*
X1285714Y7088690D01*
X1190476Y7136309D01*
X1000000Y7183928D01*
X904761Y7231547D01*
X857142Y7279166D01*
X809523Y7374404D01*
X809523Y7469642D01*
X857142Y7564880D01*
X904761Y7612500D01*
X1000000Y7660119D01*
X1238095Y7660119D01*
X1380952Y7612500D01*
X1809523Y6660119D02*
X1809523Y7326785D01*
X1809523Y7660119D02*
X1761904Y7612500D01*
X1809523Y7564880D01*
X1857142Y7612500D01*
X1809523Y7660119D01*
X1809523Y7564880D01*
X2714285Y6660119D02*
X2714285Y7660119D01*
X2714285Y6707738D02*
X2619047Y6660119D01*
X2428571Y6660119D01*
X2333333Y6707738D01*
X2285714Y6755357D01*
X2238095Y6850595D01*
X2238095Y7136309D01*
X2285714Y7231547D01*
X2333333Y7279166D01*
X2428571Y7326785D01*
X2619047Y7326785D01*
X2714285Y7279166D01*
X3571428Y6707738D02*
X3476190Y6660119D01*
X3285714Y6660119D01*
X3190476Y6707738D01*
X3142857Y6802976D01*
X3142857Y7183928D01*
X3190476Y7279166D01*
X3285714Y7326785D01*
X3476190Y7326785D01*
X3571428Y7279166D01*
X3619047Y7183928D01*
X3619047Y7088690D01*
X3142857Y6993452D01*
X-3095238Y-12389880D02*
X-3571428Y-12389880D01*
X-3571428Y-11389880D01*
X-2761904Y-12389880D02*
X-2761904Y-11723214D01*
X-2761904Y-11389880D02*
X-2809523Y-11437500D01*
X-2761904Y-11485119D01*
X-2714285Y-11437500D01*
X-2761904Y-11389880D01*
X-2761904Y-11485119D01*
X-1857142Y-11723214D02*
X-1857142Y-12532738D01*
X-1904761Y-12627976D01*
X-1952380Y-12675595D01*
X-2047619Y-12723214D01*
X-2190476Y-12723214D01*
X-2285714Y-12675595D01*
X-1857142Y-12342261D02*
X-1952380Y-12389880D01*
X-2142857Y-12389880D01*
X-2238095Y-12342261D01*
X-2285714Y-12294642D01*
X-2333333Y-12199404D01*
X-2333333Y-11913690D01*
X-2285714Y-11818452D01*
X-2238095Y-11770833D01*
X-2142857Y-11723214D01*
X-1952380Y-11723214D01*
X-1857142Y-11770833D01*
X-1380952Y-12389880D02*
X-1380952Y-11389880D01*
X-952380Y-12389880D02*
X-952380Y-11866071D01*
X-999999Y-11770833D01*
X-1095238Y-11723214D01*
X-1238095Y-11723214D01*
X-1333333Y-11770833D01*
X-1380952Y-11818452D01*
X-619047Y-11723214D02*
X-238095Y-11723214D01*
X-476190Y-11389880D02*
X-476190Y-12247023D01*
X-428571Y-12342261D01*
X-333333Y-12389880D01*
X-238095Y-12389880D01*
X809523Y-12342261D02*
X952380Y-12389880D01*
X1190476Y-12389880D01*
X1285714Y-12342261D01*
X1333333Y-12294642D01*
X1380952Y-12199404D01*
X1380952Y-12104166D01*
X1333333Y-12008928D01*
X1285714Y-11961309D01*
X1190476Y-11913690D01*
X1000000Y-11866071D01*
X904761Y-11818452D01*
X857142Y-11770833D01*
X809523Y-11675595D01*
X809523Y-11580357D01*
X857142Y-11485119D01*
X904761Y-11437500D01*
X1000000Y-11389880D01*
X1238095Y-11389880D01*
X1380952Y-11437500D01*
X1809523Y-12389880D02*
X1809523Y-11723214D01*
X1809523Y-11389880D02*
X1761904Y-11437500D01*
X1809523Y-11485119D01*
X1857142Y-11437500D01*
X1809523Y-11389880D01*
X1809523Y-11485119D01*
X2714285Y-12389880D02*
X2714285Y-11389880D01*
X2714285Y-12342261D02*
X2619047Y-12389880D01*
X2428571Y-12389880D01*
X2333333Y-12342261D01*
X2285714Y-12294642D01*
X2238095Y-12199404D01*
X2238095Y-11913690D01*
X2285714Y-11818452D01*
X2333333Y-11770833D01*
X2428571Y-11723214D01*
X2619047Y-11723214D01*
X2714285Y-11770833D01*
X3571428Y-12342261D02*
X3476190Y-12389880D01*
X3285714Y-12389880D01*
X3190476Y-12342261D01*
X3142857Y-12247023D01*
X3142857Y-11866071D01*
X3190476Y-11770833D01*
X3285714Y-11723214D01*
X3476190Y-11723214D01*
X3571428Y-11770833D01*
X3619047Y-11866071D01*
X3619047Y-11961309D01*
X3142857Y-12056547D01*
X-3095238Y-31439880D02*
X-3571428Y-31439880D01*
X-3571428Y-30439880D01*
X-2761904Y-31439880D02*
X-2761904Y-30773214D01*
X-2761904Y-30439880D02*
X-2809523Y-30487500D01*
X-2761904Y-30535119D01*
X-2714285Y-30487500D01*
X-2761904Y-30439880D01*
X-2761904Y-30535119D01*
X-1857142Y-30773214D02*
X-1857142Y-31582738D01*
X-1904761Y-31677976D01*
X-1952380Y-31725595D01*
X-2047619Y-31773214D01*
X-2190476Y-31773214D01*
X-2285714Y-31725595D01*
X-1857142Y-31392261D02*
X-1952380Y-31439880D01*
X-2142857Y-31439880D01*
X-2238095Y-31392261D01*
X-2285714Y-31344642D01*
X-2333333Y-31249404D01*
X-2333333Y-30963690D01*
X-2285714Y-30868452D01*
X-2238095Y-30820833D01*
X-2142857Y-30773214D01*
X-1952380Y-30773214D01*
X-1857142Y-30820833D01*
X-1380952Y-31439880D02*
X-1380952Y-30439880D01*
X-952380Y-31439880D02*
X-952380Y-30916071D01*
X-999999Y-30820833D01*
X-1095238Y-30773214D01*
X-1238095Y-30773214D01*
X-1333333Y-30820833D01*
X-1380952Y-30868452D01*
X-619047Y-30773214D02*
X-238095Y-30773214D01*
X-476190Y-30439880D02*
X-476190Y-31297023D01*
X-428571Y-31392261D01*
X-333333Y-31439880D01*
X-238095Y-31439880D01*
X809523Y-31392261D02*
X952380Y-31439880D01*
X1190476Y-31439880D01*
X1285714Y-31392261D01*
X1333333Y-31344642D01*
X1380952Y-31249404D01*
X1380952Y-31154166D01*
X1333333Y-31058928D01*
X1285714Y-31011309D01*
X1190476Y-30963690D01*
X1000000Y-30916071D01*
X904761Y-30868452D01*
X857142Y-30820833D01*
X809523Y-30725595D01*
X809523Y-30630357D01*
X857142Y-30535119D01*
X904761Y-30487500D01*
X1000000Y-30439880D01*
X1238095Y-30439880D01*
X1380952Y-30487500D01*
X1809523Y-31439880D02*
X1809523Y-30773214D01*
X1809523Y-30439880D02*
X1761904Y-30487500D01*
X1809523Y-30535119D01*
X1857142Y-30487500D01*
X1809523Y-30439880D01*
X1809523Y-30535119D01*
X2714285Y-31439880D02*
X2714285Y-30439880D01*
X2714285Y-31392261D02*
X2619047Y-31439880D01*
X2428571Y-31439880D01*
X2333333Y-31392261D01*
X2285714Y-31344642D01*
X2238095Y-31249404D01*
X2238095Y-30963690D01*
X2285714Y-30868452D01*
X2333333Y-30820833D01*
X2428571Y-30773214D01*
X2619047Y-30773214D01*
X2714285Y-30820833D01*
X3571428Y-31392261D02*
X3476190Y-31439880D01*
X3285714Y-31439880D01*
X3190476Y-31392261D01*
X3142857Y-31297023D01*
X3142857Y-30916071D01*
X3190476Y-30820833D01*
X3285714Y-30773214D01*
X3476190Y-30773214D01*
X3571428Y-30820833D01*
X3619047Y-30916071D01*
X3619047Y-31011309D01*
X3142857Y-31106547D01*
X-3095238Y-50489880D02*
X-3571428Y-50489880D01*
X-3571428Y-49489880D01*
X-2761904Y-50489880D02*
X-2761904Y-49823214D01*
X-2761904Y-49489880D02*
X-2809523Y-49537500D01*
X-2761904Y-49585119D01*
X-2714285Y-49537500D01*
X-2761904Y-49489880D01*
X-2761904Y-49585119D01*
X-1857142Y-49823214D02*
X-1857142Y-50632738D01*
X-1904761Y-50727976D01*
X-1952380Y-50775595D01*
X-2047619Y-50823214D01*
X-2190476Y-50823214D01*
X-2285714Y-50775595D01*
X-1857142Y-50442261D02*
X-1952380Y-50489880D01*
X-2142857Y-50489880D01*
X-2238095Y-50442261D01*
X-2285714Y-50394642D01*
X-2333333Y-50299404D01*
X-2333333Y-50013690D01*
X-2285714Y-49918452D01*
X-2238095Y-49870833D01*
X-2142857Y-49823214D01*
X-1952380Y-49823214D01*
X-1857142Y-49870833D01*
X-1380952Y-50489880D02*
X-1380952Y-49489880D01*
X-952380Y-50489880D02*
X-952380Y-49966071D01*
X-999999Y-49870833D01*
X-1095238Y-49823214D01*
X-1238095Y-49823214D01*
X-1333333Y-49870833D01*
X-1380952Y-49918452D01*
X-619047Y-49823214D02*
X-238095Y-49823214D01*
X-476190Y-49489880D02*
X-476190Y-50347023D01*
X-428571Y-50442261D01*
X-333333Y-50489880D01*
X-238095Y-50489880D01*
X809523Y-50442261D02*
X952380Y-50489880D01*
X1190476Y-50489880D01*
X1285714Y-50442261D01*
X1333333Y-50394642D01*
X1380952Y-50299404D01*
X1380952Y-50204166D01*
X1333333Y-50108928D01*
X1285714Y-50061309D01*
X1190476Y-50013690D01*
X1000000Y-49966071D01*
X904761Y-49918452D01*
X857142Y-49870833D01*
X809523Y-49775595D01*
X809523Y-49680357D01*
X857142Y-49585119D01*
X904761Y-49537500D01*
X1000000Y-49489880D01*
X1238095Y-49489880D01*
X1380952Y-49537500D01*
X1809523Y-50489880D02*
X1809523Y-49823214D01*
X1809523Y-49489880D02*
X1761904Y-49537500D01*
X1809523Y-49585119D01*
X1857142Y-49537500D01*
X1809523Y-49489880D01*
X1809523Y-49585119D01*
X2714285Y-50489880D02*
X2714285Y-49489880D01*
X2714285Y-50442261D02*
X2619047Y-50489880D01*
X2428571Y-50489880D01*
X2333333Y-50442261D01*
X2285714Y-50394642D01*
X2238095Y-50299404D01*
X2238095Y-50013690D01*
X2285714Y-49918452D01*
X2333333Y-49870833D01*
X2428571Y-49823214D01*
X2619047Y-49823214D01*
X2714285Y-49870833D01*
X3571428Y-50442261D02*
X3476190Y-50489880D01*
X3285714Y-50489880D01*
X3190476Y-50442261D01*
X3142857Y-50347023D01*
X3142857Y-49966071D01*
X3190476Y-49870833D01*
X3285714Y-49823214D01*
X3476190Y-49823214D01*
X3571428Y-49870833D01*
X3619047Y-49966071D01*
X3619047Y-50061309D01*
X3142857Y-50156547D01*
X15954761Y-50489880D02*
X15478571Y-50489880D01*
X15478571Y-49489880D01*
X16288095Y-50489880D02*
X16288095Y-49823214D01*
X16288095Y-49489880D02*
X16240476Y-49537500D01*
X16288095Y-49585119D01*
X16335714Y-49537500D01*
X16288095Y-49489880D01*
X16288095Y-49585119D01*
X17192857Y-49823214D02*
X17192857Y-50632738D01*
X17145238Y-50727976D01*
X17097619Y-50775595D01*
X17002380Y-50823214D01*
X16859523Y-50823214D01*
X16764285Y-50775595D01*
X17192857Y-50442261D02*
X17097619Y-50489880D01*
X16907142Y-50489880D01*
X16811904Y-50442261D01*
X16764285Y-50394642D01*
X16716666Y-50299404D01*
X16716666Y-50013690D01*
X16764285Y-49918452D01*
X16811904Y-49870833D01*
X16907142Y-49823214D01*
X17097619Y-49823214D01*
X17192857Y-49870833D01*
X17669047Y-50489880D02*
X17669047Y-49489880D01*
X18097619Y-50489880D02*
X18097619Y-49966071D01*
X18050000Y-49870833D01*
X17954761Y-49823214D01*
X17811904Y-49823214D01*
X17716666Y-49870833D01*
X17669047Y-49918452D01*
X18430952Y-49823214D02*
X18811904Y-49823214D01*
X18573809Y-49489880D02*
X18573809Y-50347023D01*
X18621428Y-50442261D01*
X18716666Y-50489880D01*
X18811904Y-50489880D01*
X19859523Y-50442261D02*
X20002380Y-50489880D01*
X20240476Y-50489880D01*
X20335714Y-50442261D01*
X20383333Y-50394642D01*
X20430952Y-50299404D01*
X20430952Y-50204166D01*
X20383333Y-50108928D01*
X20335714Y-50061309D01*
X20240476Y-50013690D01*
X20050000Y-49966071D01*
X19954761Y-49918452D01*
X19907142Y-49870833D01*
X19859523Y-49775595D01*
X19859523Y-49680357D01*
X19907142Y-49585119D01*
X19954761Y-49537500D01*
X20050000Y-49489880D01*
X20288095Y-49489880D01*
X20430952Y-49537500D01*
X20859523Y-50489880D02*
X20859523Y-49823214D01*
X20859523Y-49489880D02*
X20811904Y-49537500D01*
X20859523Y-49585119D01*
X20907142Y-49537500D01*
X20859523Y-49489880D01*
X20859523Y-49585119D01*
X21764285Y-50489880D02*
X21764285Y-49489880D01*
X21764285Y-50442261D02*
X21669047Y-50489880D01*
X21478571Y-50489880D01*
X21383333Y-50442261D01*
X21335714Y-50394642D01*
X21288095Y-50299404D01*
X21288095Y-50013690D01*
X21335714Y-49918452D01*
X21383333Y-49870833D01*
X21478571Y-49823214D01*
X21669047Y-49823214D01*
X21764285Y-49870833D01*
X22621428Y-50442261D02*
X22526190Y-50489880D01*
X22335714Y-50489880D01*
X22240476Y-50442261D01*
X22192857Y-50347023D01*
X22192857Y-49966071D01*
X22240476Y-49870833D01*
X22335714Y-49823214D01*
X22526190Y-49823214D01*
X22621428Y-49870833D01*
X22669047Y-49966071D01*
X22669047Y-50061309D01*
X22192857Y-50156547D01*
X15954761Y-31439880D02*
X15478571Y-31439880D01*
X15478571Y-30439880D01*
X16288095Y-31439880D02*
X16288095Y-30773214D01*
X16288095Y-30439880D02*
X16240476Y-30487500D01*
X16288095Y-30535119D01*
X16335714Y-30487500D01*
X16288095Y-30439880D01*
X16288095Y-30535119D01*
X17192857Y-30773214D02*
X17192857Y-31582738D01*
X17145238Y-31677976D01*
X17097619Y-31725595D01*
X17002380Y-31773214D01*
X16859523Y-31773214D01*
X16764285Y-31725595D01*
X17192857Y-31392261D02*
X17097619Y-31439880D01*
X16907142Y-31439880D01*
X16811904Y-31392261D01*
X16764285Y-31344642D01*
X16716666Y-31249404D01*
X16716666Y-30963690D01*
X16764285Y-30868452D01*
X16811904Y-30820833D01*
X16907142Y-30773214D01*
X17097619Y-30773214D01*
X17192857Y-30820833D01*
X17669047Y-31439880D02*
X17669047Y-30439880D01*
X18097619Y-31439880D02*
X18097619Y-30916071D01*
X18050000Y-30820833D01*
X17954761Y-30773214D01*
X17811904Y-30773214D01*
X17716666Y-30820833D01*
X17669047Y-30868452D01*
X18430952Y-30773214D02*
X18811904Y-30773214D01*
X18573809Y-30439880D02*
X18573809Y-31297023D01*
X18621428Y-31392261D01*
X18716666Y-31439880D01*
X18811904Y-31439880D01*
X19859523Y-31392261D02*
X20002380Y-31439880D01*
X20240476Y-31439880D01*
X20335714Y-31392261D01*
X20383333Y-31344642D01*
X20430952Y-31249404D01*
X20430952Y-31154166D01*
X20383333Y-31058928D01*
X20335714Y-31011309D01*
X20240476Y-30963690D01*
X20050000Y-30916071D01*
X19954761Y-30868452D01*
X19907142Y-30820833D01*
X19859523Y-30725595D01*
X19859523Y-30630357D01*
X19907142Y-30535119D01*
X19954761Y-30487500D01*
X20050000Y-30439880D01*
X20288095Y-30439880D01*
X20430952Y-30487500D01*
X20859523Y-31439880D02*
X20859523Y-30773214D01*
X20859523Y-30439880D02*
X20811904Y-30487500D01*
X20859523Y-30535119D01*
X20907142Y-30487500D01*
X20859523Y-30439880D01*
X20859523Y-30535119D01*
X21764285Y-31439880D02*
X21764285Y-30439880D01*
X21764285Y-31392261D02*
X21669047Y-31439880D01*
X21478571Y-31439880D01*
X21383333Y-31392261D01*
X21335714Y-31344642D01*
X21288095Y-31249404D01*
X21288095Y-30963690D01*
X21335714Y-30868452D01*
X21383333Y-30820833D01*
X21478571Y-30773214D01*
X21669047Y-30773214D01*
X21764285Y-30820833D01*
X22621428Y-31392261D02*
X22526190Y-31439880D01*
X22335714Y-31439880D01*
X22240476Y-31392261D01*
X22192857Y-31297023D01*
X22192857Y-30916071D01*
X22240476Y-30820833D01*
X22335714Y-30773214D01*
X22526190Y-30773214D01*
X22621428Y-30820833D01*
X22669047Y-30916071D01*
X22669047Y-31011309D01*
X22192857Y-31106547D01*
X15954761Y-12389880D02*
X15478571Y-12389880D01*
X15478571Y-11389880D01*
X16288095Y-12389880D02*
X16288095Y-11723214D01*
X16288095Y-11389880D02*
X16240476Y-11437500D01*
X16288095Y-11485119D01*
X16335714Y-11437500D01*
X16288095Y-11389880D01*
X16288095Y-11485119D01*
X17192857Y-11723214D02*
X17192857Y-12532738D01*
X17145238Y-12627976D01*
X17097619Y-12675595D01*
X17002380Y-12723214D01*
X16859523Y-12723214D01*
X16764285Y-12675595D01*
X17192857Y-12342261D02*
X17097619Y-12389880D01*
X16907142Y-12389880D01*
X16811904Y-12342261D01*
X16764285Y-12294642D01*
X16716666Y-12199404D01*
X16716666Y-11913690D01*
X16764285Y-11818452D01*
X16811904Y-11770833D01*
X16907142Y-11723214D01*
X17097619Y-11723214D01*
X17192857Y-11770833D01*
X17669047Y-12389880D02*
X17669047Y-11389880D01*
X18097619Y-12389880D02*
X18097619Y-11866071D01*
X18050000Y-11770833D01*
X17954761Y-11723214D01*
X17811904Y-11723214D01*
X17716666Y-11770833D01*
X17669047Y-11818452D01*
X18430952Y-11723214D02*
X18811904Y-11723214D01*
X18573809Y-11389880D02*
X18573809Y-12247023D01*
X18621428Y-12342261D01*
X18716666Y-12389880D01*
X18811904Y-12389880D01*
X19859523Y-12342261D02*
X20002380Y-12389880D01*
X20240476Y-12389880D01*
X20335714Y-12342261D01*
X20383333Y-12294642D01*
X20430952Y-12199404D01*
X20430952Y-12104166D01*
X20383333Y-12008928D01*
X20335714Y-11961309D01*
X20240476Y-11913690D01*
X20050000Y-11866071D01*
X19954761Y-11818452D01*
X19907142Y-11770833D01*
X19859523Y-11675595D01*
X19859523Y-11580357D01*
X19907142Y-11485119D01*
X19954761Y-11437500D01*
X20050000Y-11389880D01*
X20288095Y-11389880D01*
X20430952Y-11437500D01*
X20859523Y-12389880D02*
X20859523Y-11723214D01*
X20859523Y-11389880D02*
X20811904Y-11437500D01*
X20859523Y-11485119D01*
X20907142Y-11437500D01*
X20859523Y-11389880D01*
X20859523Y-11485119D01*
X21764285Y-12389880D02*
X21764285Y-11389880D01*
X21764285Y-12342261D02*
X21669047Y-12389880D01*
X21478571Y-12389880D01*
X21383333Y-12342261D01*
X21335714Y-12294642D01*
X21288095Y-12199404D01*
X21288095Y-11913690D01*
X21335714Y-11818452D01*
X21383333Y-11770833D01*
X21478571Y-11723214D01*
X21669047Y-11723214D01*
X21764285Y-11770833D01*
X22621428Y-12342261D02*
X22526190Y-12389880D01*
X22335714Y-12389880D01*
X22240476Y-12342261D01*
X22192857Y-12247023D01*
X22192857Y-11866071D01*
X22240476Y-11770833D01*
X22335714Y-11723214D01*
X22526190Y-11723214D01*
X22621428Y-11770833D01*
X22669047Y-11866071D01*
X22669047Y-11961309D01*
X22192857Y-12056547D01*
X15954761Y6660119D02*
X15478571Y6660119D01*
X15478571Y7660119D01*
X16288095Y6660119D02*
X16288095Y7326785D01*
X16288095Y7660119D02*
X16240476Y7612500D01*
X16288095Y7564880D01*
X16335714Y7612500D01*
X16288095Y7660119D01*
X16288095Y7564880D01*
X17192857Y7326785D02*
X17192857Y6517261D01*
X17145238Y6422023D01*
X17097619Y6374404D01*
X17002380Y6326785D01*
X16859523Y6326785D01*
X16764285Y6374404D01*
X17192857Y6707738D02*
X17097619Y6660119D01*
X16907142Y6660119D01*
X16811904Y6707738D01*
X16764285Y6755357D01*
X16716666Y6850595D01*
X16716666Y7136309D01*
X16764285Y7231547D01*
X16811904Y7279166D01*
X16907142Y7326785D01*
X17097619Y7326785D01*
X17192857Y7279166D01*
X17669047Y6660119D02*
X17669047Y7660119D01*
X18097619Y6660119D02*
X18097619Y7183928D01*
X18050000Y7279166D01*
X17954761Y7326785D01*
X17811904Y7326785D01*
X17716666Y7279166D01*
X17669047Y7231547D01*
X18430952Y7326785D02*
X18811904Y7326785D01*
X18573809Y7660119D02*
X18573809Y6802976D01*
X18621428Y6707738D01*
X18716666Y6660119D01*
X18811904Y6660119D01*
X19859523Y6707738D02*
X20002380Y6660119D01*
X20240476Y6660119D01*
X20335714Y6707738D01*
X20383333Y6755357D01*
X20430952Y6850595D01*
X20430952Y6945833D01*
X20383333Y7041071D01*
X20335714Y7088690D01*
X20240476Y7136309D01*
X20050000Y7183928D01*
X19954761Y7231547D01*
X19907142Y7279166D01*
X19859523Y7374404D01*
X19859523Y7469642D01*
X19907142Y7564880D01*
X19954761Y7612500D01*
X20050000Y7660119D01*
X20288095Y7660119D01*
X20430952Y7612500D01*
X20859523Y6660119D02*
X20859523Y7326785D01*
X20859523Y7660119D02*
X20811904Y7612500D01*
X20859523Y7564880D01*
X20907142Y7612500D01*
X20859523Y7660119D01*
X20859523Y7564880D01*
X21764285Y6660119D02*
X21764285Y7660119D01*
X21764285Y6707738D02*
X21669047Y6660119D01*
X21478571Y6660119D01*
X21383333Y6707738D01*
X21335714Y6755357D01*
X21288095Y6850595D01*
X21288095Y7136309D01*
X21335714Y7231547D01*
X21383333Y7279166D01*
X21478571Y7326785D01*
X21669047Y7326785D01*
X21764285Y7279166D01*
X22621428Y6707738D02*
X22526190Y6660119D01*
X22335714Y6660119D01*
X22240476Y6707738D01*
X22192857Y6802976D01*
X22192857Y7183928D01*
X22240476Y7279166D01*
X22335714Y7326785D01*
X22526190Y7326785D01*
X22621428Y7279166D01*
X22669047Y7183928D01*
X22669047Y7088690D01*
X22192857Y6993452D01*
M02*
