M48
; DRILL file {KiCad (5.1.12)-1} date 04/07/22 22:39:19
; FORMAT={-:-/ absolute / metric / decimal}
; #@! TF.CreationDate,2022-04-07T22:39:19+09:00
; #@! TF.GenerationSoftware,Kicad,Pcbnew,(5.1.12)-1
; #@! TF.FileFunction,Plated,1,2,PTH
FMAT,2
METRIC
T1C0.400
T2C0.600
T3C0.813
T4C1.000
T5C2.000
%
G90
G05
T1
X-4.652Y-52.387
X-4.577Y-33.356
X-4.375Y-12.078
X-1.054Y-45.322
X0.476Y-10.546
X0.476Y-30.221
X1.336Y-26.359
X2.6Y4.013
X2.6Y-15.037
X2.6Y-34.087
X2.6Y-53.137
X5.547Y-6.327
X9.513Y-53.092
X9.744Y-33.252
X21.65Y4.013
X21.65Y-15.037
X21.65Y-34.087
X21.65Y-53.137
X23.78Y5.367
X26.693Y-27.238
X29.447Y-15.372
X29.466Y-18.066
X33.143Y-20.788
X36.046Y-45.997
X49.501Y-7.242
X81.837Y-25.255
X86.521Y-13.168
X87.767Y-25.987
X89.556Y-6.937
X89.564Y-25.63
X89.637Y-22.241
X89.637Y-34.119
X89.721Y-9.968
X89.721Y-30.785
X94.143Y-49.88
X94.447Y-12.09
X94.447Y-31.63
X97.32Y-29.716
X99.298Y-11.317
X99.298Y-45.923
X99.993Y-22.295
X101.422Y4.013
X101.422Y-15.037
X101.422Y-34.087
X101.422Y-53.137
X105.822Y-42.79
X116.731Y-3.442
X120.472Y4.013
X120.472Y-15.037
X120.472Y-34.087
X120.472Y-53.137
X122.913Y-6.937
T3
X-3.81Y-8.93
X-3.81Y-27.98
X-3.81Y-47.03
X-3.81Y-66.08
X3.81Y-8.93
X3.81Y-27.98
X3.81Y-47.03
X3.81Y-66.08
X15.24Y-8.93
X15.24Y-27.98
X15.24Y-47.03
X15.24Y-66.08
X22.86Y-8.93
X22.86Y-27.98
X22.86Y-47.03
X22.86Y-66.08
X38.735Y6.064
X38.735Y3.524
X38.735Y0.984
X38.735Y-1.556
X38.735Y-4.096
X38.735Y-6.636
X38.735Y-9.176
X38.735Y-11.716
X38.735Y-14.256
X38.735Y-16.796
X38.735Y-19.336
X38.735Y-21.876
X42.565Y-29.17
X45.105Y-29.17
X47.645Y-29.17
X50.185Y-29.17
X53.975Y6.064
X53.975Y3.524
X53.975Y0.984
X53.975Y-1.556
X53.975Y-4.096
X53.975Y-6.636
X53.975Y-9.176
X53.975Y-11.716
X53.975Y-14.256
X53.975Y-16.796
X53.975Y-19.336
X53.975Y-21.876
X64.036Y6.064
X64.036Y3.524
X64.036Y0.984
X64.036Y-1.556
X64.036Y-4.096
X64.036Y-6.636
X64.036Y-9.176
X64.036Y-11.716
X64.036Y-14.256
X64.036Y-16.796
X64.036Y-19.336
X64.036Y-21.876
X67.866Y-29.17
X70.406Y-29.17
X72.946Y-29.17
X75.486Y-29.17
X79.276Y6.064
X79.276Y3.524
X79.276Y0.984
X79.276Y-1.556
X79.276Y-4.096
X79.276Y-6.636
X79.276Y-9.176
X79.276Y-11.716
X79.276Y-14.256
X79.276Y-16.796
X79.276Y-19.336
X79.276Y-21.876
X95.012Y-8.93
X95.012Y-27.98
X95.012Y-47.03
X95.012Y-66.08
X102.632Y-8.93
X102.632Y-27.98
X102.632Y-47.03
X102.632Y-66.08
X114.062Y-8.93
X114.062Y-27.98
X114.062Y-47.03
X114.062Y-66.08
X121.682Y-8.93
X121.682Y-27.98
X121.682Y-47.03
X121.682Y-66.08
T4
X38.244Y-45.125
X38.244Y-50.125
X52.744Y-45.125
X52.744Y-47.625
X52.744Y-50.125
X65.426Y-45.125
X65.426Y-47.625
X65.426Y-50.125
X79.926Y-45.125
X79.926Y-50.125
T2
G00X31.933Y7.317
M15
G01X31.933Y6.417
M16
G05
G00X31.933Y4.317
M15
G01X31.933Y3.417
M16
G05
G00X31.933Y0.317
M15
G01X31.933Y-0.583
M16
G05
G00X35.933Y-1.183
M15
G01X35.933Y-2.083
M16
G05
G00X44.061Y-37.719
M15
G01X43.161Y-37.719
M16
G05
G00X45.561Y-33.719
M15
G01X44.661Y-33.719
M16
G05
G00X49.561Y-33.719
M15
G01X48.661Y-33.719
M16
G05
G00X52.561Y-33.719
M15
G01X51.661Y-33.719
M16
G05
G00X65.311Y-37.719
M15
G01X66.211Y-37.719
M16
G05
G00X68.311Y-37.719
M15
G01X69.211Y-37.719
M16
G05
G00X72.311Y-37.719
M15
G01X73.211Y-37.719
M16
G05
G00X73.811Y-33.719
M15
G01X74.711Y-33.719
M16
G05
G00X82.237Y7.317
M15
G01X82.237Y6.417
M16
G05
G00X82.237Y4.317
M15
G01X82.237Y3.417
M16
G05
G00X82.237Y0.317
M15
G01X82.237Y-0.583
M16
G05
G00X86.237Y-1.183
M15
G01X86.237Y-2.083
M16
G05
T5
G00X45.644Y-42.025
M15
G01X44.844Y-42.025
M16
G05
G00X45.644Y-53.225
M15
G01X44.844Y-53.225
M16
G05
G00X72.526Y-42.025
M15
G01X73.326Y-42.025
M16
G05
G00X72.526Y-53.225
M15
G01X73.326Y-53.225
M16
G05
T0
M30
