M48
; DRILL file {KiCad (5.1.12)-1} date 04/07/22 22:39:19
; FORMAT={-:-/ absolute / metric / decimal}
; #@! TF.CreationDate,2022-04-07T22:39:19+09:00
; #@! TF.GenerationSoftware,Kicad,Pcbnew,(5.1.12)-1
; #@! TF.FileFunction,NonPlated,1,2,NPTH
FMAT,2
METRIC
T1C0.500
T2C1.200
T3C2.000
T4C2.200
T5C3.000
T6C4.000
%
G90
G05
T1
X-8.746Y-69.949
X-8.746Y-73.521
X-7.996Y-69.949
X-7.996Y-73.521
X-7.246Y-69.949
X-7.246Y-73.521
X-6.496Y-69.949
X-6.496Y-73.521
X-5.746Y-69.949
X-5.746Y-73.521
X-4.996Y-69.949
X-4.996Y-73.521
X49.297Y-69.949
X49.297Y-73.521
X50.047Y-69.949
X50.047Y-73.521
X50.797Y-69.949
X50.797Y-73.521
X51.547Y-69.949
X51.547Y-73.521
X52.297Y-69.949
X52.297Y-73.521
X53.047Y-69.949
X53.047Y-73.521
X57.15Y7.853
X57.15Y7.103
X57.15Y6.353
X57.15Y5.603
X57.15Y4.853
X57.15Y4.103
X57.15Y-62.096
X57.15Y-62.846
X57.15Y-63.596
X57.15Y-64.346
X57.15Y-65.096
X57.15Y-65.846
X57.15Y-77.574
X57.15Y-78.324
X57.15Y-79.074
X57.15Y-79.824
X57.15Y-80.574
X57.15Y-81.324
X57.15Y-147.523
X57.15Y-148.273
X57.15Y-149.023
X57.15Y-149.773
X57.15Y-150.523
X57.15Y-151.273
X60.722Y7.853
X60.722Y7.103
X60.722Y6.353
X60.722Y5.603
X60.722Y4.853
X60.722Y4.103
X60.722Y-62.096
X60.722Y-62.846
X60.722Y-63.596
X60.722Y-64.346
X60.722Y-65.096
X60.722Y-65.846
X60.722Y-77.574
X60.722Y-78.324
X60.722Y-79.074
X60.722Y-79.824
X60.722Y-80.574
X60.722Y-81.324
X60.722Y-147.523
X60.722Y-148.273
X60.722Y-149.023
X60.722Y-149.773
X60.722Y-150.523
X60.722Y-151.273
X64.775Y-69.949
X64.775Y-73.521
X65.525Y-69.949
X65.525Y-73.521
X66.275Y-69.949
X66.275Y-73.521
X67.025Y-69.949
X67.025Y-73.521
X67.775Y-69.949
X67.775Y-73.521
X68.525Y-69.949
X68.525Y-73.521
X122.818Y-69.949
X122.818Y-73.521
X123.568Y-69.949
X123.568Y-73.521
X124.318Y-69.949
X124.318Y-73.521
X125.068Y-69.949
X125.068Y-73.521
X125.818Y-69.949
X125.818Y-73.521
X126.568Y-69.949
X126.568Y-73.521
X130.671Y7.853
X130.671Y7.103
X130.671Y6.353
X130.671Y5.603
X130.671Y4.853
X130.671Y4.103
X130.671Y-62.096
X130.671Y-62.846
X130.671Y-63.596
X130.671Y-64.346
X130.671Y-65.096
X130.671Y-65.846
X130.671Y-77.574
X130.671Y-78.324
X130.671Y-79.074
X130.671Y-79.824
X130.671Y-80.574
X130.671Y-81.324
X130.671Y-147.523
X130.671Y-148.273
X130.671Y-149.023
X130.671Y-149.773
X130.671Y-150.523
X130.671Y-151.273
X134.243Y7.853
X134.243Y7.103
X134.243Y6.353
X134.243Y5.603
X134.243Y4.853
X134.243Y4.103
X134.243Y-62.096
X134.243Y-62.846
X134.243Y-63.596
X134.243Y-64.346
X134.243Y-65.096
X134.243Y-65.846
X134.243Y-77.574
X134.243Y-78.324
X134.243Y-79.074
X134.243Y-79.824
X134.243Y-80.574
X134.243Y-81.324
X134.243Y-147.523
X134.243Y-148.273
X134.243Y-149.023
X134.243Y-149.773
X134.243Y-150.523
X134.243Y-151.273
X138.296Y-69.949
X138.296Y-73.521
X139.046Y-69.949
X139.046Y-73.521
X139.796Y-69.949
X139.796Y-73.521
X140.546Y-69.949
X140.546Y-73.521
X141.296Y-69.949
X141.296Y-73.521
X142.046Y-69.949
X142.046Y-73.521
X170.74Y-69.949
X170.74Y-73.521
X171.49Y-69.949
X171.49Y-73.521
X172.24Y-69.949
X172.24Y-73.521
X172.99Y-69.949
X172.99Y-73.521
X173.74Y-69.949
X173.74Y-73.521
X174.49Y-69.949
X174.49Y-73.521
T2
X33.933Y8.667
X33.933Y1.667
X46.911Y-35.719
X53.911Y-35.719
X63.961Y-35.719
X70.961Y-35.719
X84.237Y8.667
X84.237Y1.667
T3
X-5.08Y0.0
X-5.08Y-19.05
X-5.08Y-38.1
X-5.08Y-57.15
X5.08Y0.0
X5.08Y-19.05
X5.08Y-38.1
X5.08Y-57.15
X13.97Y0.0
X13.97Y-19.05
X13.97Y-38.1
X13.97Y-57.15
X24.13Y0.0
X24.13Y-19.05
X24.13Y-38.1
X24.13Y-57.15
X93.742Y0.0
X93.742Y-19.05
X93.742Y-38.1
X93.742Y-57.15
X103.902Y0.0
X103.902Y-19.05
X103.902Y-38.1
X103.902Y-57.15
X112.792Y0.0
X112.792Y-19.05
X112.792Y-38.1
X112.792Y-57.15
X122.952Y0.0
X122.952Y-19.05
X122.952Y-38.1
X122.952Y-57.15
T4
X-9.227Y8.334
X-9.227Y-66.377
X-9.227Y-77.093
X-9.227Y-151.805
X27.98Y8.334
X27.98Y-66.377
X27.98Y-77.093
X27.98Y-151.805
X38.993Y-35.421
X38.993Y-120.848
X53.578Y-66.377
X53.578Y-151.805
X64.294Y-66.377
X64.294Y-151.805
X79.176Y-36.016
X79.176Y-121.444
X89.892Y8.334
X89.892Y-66.377
X89.892Y-77.093
X89.892Y-151.805
X127.099Y8.334
X127.099Y-66.377
X127.099Y-77.093
X127.099Y-151.805
X137.815Y8.334
X137.815Y-66.377
X137.815Y-77.093
X137.815Y-151.805
X175.022Y8.334
X175.022Y-66.377
X175.022Y-77.093
X175.022Y-151.805
T5
X-2.54Y-5.08
X-2.54Y-24.13
X-2.54Y-43.18
X-2.54Y-62.23
X3.81Y-2.54
X3.81Y-21.59
X3.81Y-40.64
X3.81Y-59.69
X16.51Y-5.08
X16.51Y-24.13
X16.51Y-43.18
X16.51Y-62.23
X22.86Y-2.54
X22.86Y-21.59
X22.86Y-40.64
X22.86Y-59.69
X96.282Y-5.08
X96.282Y-24.13
X96.282Y-43.18
X96.282Y-62.23
X102.632Y-2.54
X102.632Y-21.59
X102.632Y-40.64
X102.632Y-59.69
X115.332Y-5.08
X115.332Y-24.13
X115.332Y-43.18
X115.332Y-62.23
X121.682Y-2.54
X121.682Y-21.59
X121.682Y-40.64
X121.682Y-59.69
T6
X0.0Y0.0
X0.0Y-19.05
X0.0Y-38.1
X0.0Y-57.15
X19.05Y0.0
X19.05Y-19.05
X19.05Y-38.1
X19.05Y-57.15
X98.822Y0.0
X98.822Y-19.05
X98.822Y-38.1
X98.822Y-57.15
X117.872Y0.0
X117.872Y-19.05
X117.872Y-38.1
X117.872Y-57.15
T0
M30
