G04 #@! TF.GenerationSoftware,KiCad,Pcbnew,(5.1.12)-1*
G04 #@! TF.CreationDate,2022-04-06T18:15:02+09:00*
G04 #@! TF.ProjectId,chervil8or,63686572-7669-46c3-986f-722e6b696361,rev?*
G04 #@! TF.SameCoordinates,Original*
G04 #@! TF.FileFunction,Profile,NP*
%FSLAX46Y46*%
G04 Gerber Fmt 4.6, Leading zero omitted, Abs format (unit mm)*
G04 Created by KiCad (PCBNEW (5.1.12)-1) date 2022-04-06 18:15:02*
%MOMM*%
%LPD*%
G01*
G04 APERTURE LIST*
G04 #@! TA.AperFunction,Profile*
%ADD10C,0.100000*%
G04 #@! TD*
G04 #@! TA.AperFunction,Profile*
%ADD11C,0.120000*%
G04 #@! TD*
G04 APERTURE END LIST*
D10*
X-9227336Y-74116344D02*
X-9227336Y-69353848D01*
X-4464840Y-74116344D02*
X-4464840Y-69353848D01*
X170259232Y-74116344D02*
X170259232Y-69353848D01*
X175021728Y-74116344D02*
X175021728Y-69353848D01*
X130075672Y-147042064D02*
X134838168Y-147042064D01*
X130075672Y-151804560D02*
X134838168Y-151804560D01*
X130075672Y8334368D02*
X134838168Y8334368D01*
X130075672Y3571872D02*
X134838168Y3571872D01*
X130075672Y-77092904D02*
X134838168Y-77092904D01*
X130075672Y-81855400D02*
X134838168Y-81855400D01*
X130075672Y-61614792D02*
X134838168Y-61614792D01*
X130075672Y-66377288D02*
X134838168Y-66377288D01*
X137814728Y-74116344D02*
X137814728Y-69353848D01*
X142577224Y-74116344D02*
X142577224Y-69353848D01*
X122336616Y-74116344D02*
X122336616Y-69353848D01*
X127099112Y-74116344D02*
X127099112Y-69353848D01*
X64293696Y-74116344D02*
X64293696Y-69353848D01*
X69056192Y-74116344D02*
X69056192Y-69353848D01*
X48815584Y-74116344D02*
X48815584Y-69353848D01*
X53578080Y-74116344D02*
X53578080Y-69353848D01*
X158799476Y-149572140D02*
X158799476Y-135582308D01*
X172789308Y-149572140D02*
X158799476Y-149572140D01*
X172789308Y-135582308D02*
X172789308Y-149572140D01*
X158799476Y-135582308D02*
X172789308Y-135582308D01*
X139749492Y-135582308D02*
X153739324Y-135582308D01*
X139749492Y-149572140D02*
X139749492Y-135582308D01*
X153739324Y-149572140D02*
X139749492Y-149572140D01*
X153739324Y-135582308D02*
X153739324Y-149572140D01*
X139749492Y-116532324D02*
X153739324Y-116532324D01*
X139749492Y-130522156D02*
X139749492Y-116532324D01*
X153739324Y-130522156D02*
X139749492Y-130522156D01*
X153739324Y-116532324D02*
X153739324Y-130522156D01*
X158799476Y-130522156D02*
X158799476Y-116532324D01*
X172789308Y-130522156D02*
X158799476Y-130522156D01*
X172789308Y-116532324D02*
X172789308Y-130522156D01*
X158799476Y-116532324D02*
X172789308Y-116532324D01*
X139749492Y-97482340D02*
X153739324Y-97482340D01*
X139749492Y-111472172D02*
X139749492Y-97482340D01*
X153739324Y-111472172D02*
X139749492Y-111472172D01*
X153739324Y-97482340D02*
X153739324Y-111472172D01*
X158799476Y-111472172D02*
X158799476Y-97482340D01*
X172789308Y-111472172D02*
X158799476Y-111472172D01*
X172789308Y-97482340D02*
X172789308Y-111472172D01*
X158799476Y-97482340D02*
X172789308Y-97482340D01*
X158799476Y-92422188D02*
X158799476Y-78432356D01*
X172789308Y-92422188D02*
X158799476Y-92422188D01*
X172789308Y-78432356D02*
X172789308Y-92422188D01*
X158799476Y-78432356D02*
X172789308Y-78432356D01*
X139749492Y-92422188D02*
X139749492Y-78432356D01*
X153739324Y-92422188D02*
X139749492Y-92422188D01*
X153739324Y-78432356D02*
X153739324Y-92422188D01*
X139749492Y-78432356D02*
X153739324Y-78432356D01*
X140047148Y-6994916D02*
X154036980Y-6994916D01*
X140047148Y6994916D02*
X140047148Y-6994916D01*
X154036980Y6994916D02*
X140047148Y6994916D01*
X154036980Y-6994916D02*
X154036980Y6994916D01*
X159097132Y6994916D02*
X159097132Y-6994916D01*
X173086964Y6994916D02*
X159097132Y6994916D01*
X173086964Y-6994916D02*
X173086964Y6994916D01*
X159097132Y-6994916D02*
X173086964Y-6994916D01*
X159097132Y-12055068D02*
X159097132Y-26044900D01*
X173086964Y-12055068D02*
X159097132Y-12055068D01*
X173086964Y-26044900D02*
X173086964Y-12055068D01*
X159097132Y-26044900D02*
X173086964Y-26044900D01*
X140047148Y-26044900D02*
X154036980Y-26044900D01*
X140047148Y-12055068D02*
X140047148Y-26044900D01*
X154036980Y-12055068D02*
X140047148Y-12055068D01*
X154036980Y-26044900D02*
X154036980Y-12055068D01*
X140047148Y-45094884D02*
X154036980Y-45094884D01*
X140047148Y-31105052D02*
X140047148Y-45094884D01*
X154036980Y-31105052D02*
X140047148Y-31105052D01*
X154036980Y-45094884D02*
X154036980Y-31105052D01*
X159097132Y-31105052D02*
X159097132Y-45094884D01*
X173086964Y-31105052D02*
X159097132Y-31105052D01*
X173086964Y-45094884D02*
X173086964Y-31105052D01*
X159097132Y-45094884D02*
X173086964Y-45094884D01*
X159097132Y-50155036D02*
X159097132Y-64144868D01*
X173086964Y-50155036D02*
X159097132Y-50155036D01*
X173086964Y-64144868D02*
X173086964Y-50155036D01*
X159097132Y-64144868D02*
X173086964Y-64144868D01*
X140047148Y-64144868D02*
X154036980Y-64144868D01*
X140047148Y-50155036D02*
X140047148Y-64144868D01*
X154036980Y-50155036D02*
X140047148Y-50155036D01*
X154036980Y-64144868D02*
X154036980Y-50155036D01*
X175021728Y11310928D02*
X137814728Y11310928D01*
X142577224Y-74116344D02*
X170259232Y-74116344D01*
X175021728Y-154781120D02*
X137814728Y-154781120D01*
X170259232Y-69353848D02*
X142577224Y-69353848D01*
X134838168Y-77092904D02*
G75*
G02*
X137814728Y-74116344I2976560J0D01*
G01*
X137814728Y-154781120D02*
G75*
G02*
X134838168Y-151804560I0J2976560D01*
G01*
X177998288Y-66377288D02*
G75*
G02*
X175021728Y-69353848I-2976560J0D01*
G01*
X175021728Y11310928D02*
G75*
G02*
X177998288Y8334368I0J-2976560D01*
G01*
X134838168Y-147042064D02*
X134838168Y-81855400D01*
X177998288Y8334368D02*
X177998288Y-66377288D01*
X177998288Y-77092904D02*
X177998288Y-151804560D01*
X177998288Y-151804560D02*
G75*
G02*
X175021728Y-154781120I-2976560J0D01*
G01*
X137814728Y-69353848D02*
G75*
G02*
X134838168Y-66377288I0J2976560D01*
G01*
X175021728Y-74116344D02*
G75*
G02*
X177998288Y-77092904I0J-2976560D01*
G01*
X134838168Y8334368D02*
G75*
G02*
X137814728Y11310928I2976560J0D01*
G01*
X134838168Y-61614792D02*
X134838168Y3571872D01*
X130075672Y-81855400D02*
X130075672Y-147042064D01*
X56554640Y-81855400D02*
X56554640Y-147042064D01*
X61317136Y-147042064D02*
X61317136Y-81855400D01*
X-9227336Y-154781120D02*
X53578080Y-154781120D01*
X64293696Y-154781120D02*
G75*
G02*
X61317136Y-151804560I0J2976560D01*
G01*
X130075672Y-151804560D02*
G75*
G02*
X127099112Y-154781120I-2976560J0D01*
G01*
X-9227336Y-154781120D02*
G75*
G02*
X-12203896Y-151804560I0J2976560D01*
G01*
X69056192Y-74116344D02*
X122336616Y-74116344D01*
X127099112Y-74116344D02*
G75*
G02*
X130075672Y-77092904I0J-2976560D01*
G01*
X64293696Y-154781120D02*
X127099112Y-154781120D01*
X53578080Y-74116344D02*
G75*
G02*
X56554640Y-77092904I0J-2976560D01*
G01*
X61317136Y-77092904D02*
G75*
G02*
X64293696Y-74116344I2976560J0D01*
G01*
X56554640Y-151804560D02*
G75*
G02*
X53578080Y-154781120I-2976560J0D01*
G01*
X-12203896Y-77092904D02*
G75*
G02*
X-9227336Y-74116344I2976560J0D01*
G01*
X-12203896Y-151804560D02*
X-12203896Y-77092904D01*
X-4464840Y-74116344D02*
X48815584Y-74116344D01*
X56554640Y-147042064D02*
X61317136Y-147042064D01*
X56554640Y-77092904D02*
X61317136Y-77092904D01*
X56554640Y-151804560D02*
X61317136Y-151804560D01*
X56554640Y-81855400D02*
X61317136Y-81855400D01*
X56554640Y-61614792D02*
X61317136Y-61614792D01*
X56554640Y-66377288D02*
X61317136Y-66377288D01*
X56554640Y3571872D02*
X61317136Y3571872D01*
X56554640Y8334368D02*
X61317136Y8334368D01*
X61317136Y8334368D02*
G75*
G02*
X64293696Y11310928I2976560J0D01*
G01*
X127099112Y11310928D02*
G75*
G02*
X130075672Y8334368I0J-2976560D01*
G01*
X130075672Y-66377288D02*
G75*
G02*
X127099112Y-69353848I-2976560J0D01*
G01*
X64293696Y-69353848D02*
G75*
G02*
X61317136Y-66377288I0J2976560D01*
G01*
X56554640Y-66377288D02*
G75*
G02*
X53578080Y-69353848I-2976560J0D01*
G01*
X-9227336Y-69353848D02*
G75*
G02*
X-12203896Y-66377288I0J2976560D01*
G01*
X-12203896Y8334368D02*
G75*
G02*
X-9227336Y11310928I2976560J0D01*
G01*
X53578080Y11310928D02*
G75*
G02*
X56554640Y8334368I0J-2976560D01*
G01*
X130075672Y3571872D02*
X130075672Y-61614792D01*
X69056192Y-69353848D02*
X122336616Y-69353848D01*
X61317136Y-61614792D02*
X61317136Y3571872D01*
X64293696Y11310928D02*
X127099112Y11310928D01*
X-9227336Y11310928D02*
X53578080Y11310928D01*
X-12203896Y-66377288D02*
X-12203896Y8334368D01*
X-4464840Y-69353848D02*
X48815584Y-69353848D01*
X56554640Y3571872D02*
X56554640Y-61614792D01*
D11*
X100571900Y6362500D02*
X100571900Y3162500D01*
X100571900Y3162500D02*
X97071900Y3162500D01*
X97071900Y3162500D02*
X97071900Y6362500D01*
X97071900Y6362500D02*
X100571900Y6362500D01*
X100571900Y-12687500D02*
X100571900Y-15887500D01*
X100571900Y-15887500D02*
X97071900Y-15887500D01*
X97071900Y-15887500D02*
X97071900Y-12687500D01*
X97071900Y-12687500D02*
X100571900Y-12687500D01*
X100571900Y-31737500D02*
X100571900Y-34937500D01*
X100571900Y-34937500D02*
X97071900Y-34937500D01*
X97071900Y-34937500D02*
X97071900Y-31737500D01*
X97071900Y-31737500D02*
X100571900Y-31737500D01*
X100571900Y-50787500D02*
X100571900Y-53987500D01*
X100571900Y-53987500D02*
X97071900Y-53987500D01*
X97071900Y-53987500D02*
X97071900Y-50787500D01*
X97071900Y-50787500D02*
X100571900Y-50787500D01*
X119622000Y-50787500D02*
X119622000Y-53987500D01*
X119622000Y-53987500D02*
X116122000Y-53987500D01*
X116122000Y-53987500D02*
X116122000Y-50787500D01*
X116122000Y-50787500D02*
X119622000Y-50787500D01*
X119622000Y-31737500D02*
X119622000Y-34937500D01*
X119622000Y-34937500D02*
X116122000Y-34937500D01*
X116122000Y-34937500D02*
X116122000Y-31737500D01*
X116122000Y-31737500D02*
X119622000Y-31737500D01*
X119622000Y-12687500D02*
X119622000Y-15887500D01*
X119622000Y-15887500D02*
X116122000Y-15887500D01*
X116122000Y-15887500D02*
X116122000Y-12687500D01*
X116122000Y-12687500D02*
X119622000Y-12687500D01*
X119622000Y6362500D02*
X119622000Y3162500D01*
X119622000Y3162500D02*
X116122000Y3162500D01*
X116122000Y3162500D02*
X116122000Y6362500D01*
X116122000Y6362500D02*
X119622000Y6362500D01*
X1750000Y6362500D02*
X1750000Y3162500D01*
X1750000Y3162500D02*
X-1750000Y3162500D01*
X-1750000Y3162500D02*
X-1750000Y6362500D01*
X-1750000Y6362500D02*
X1750000Y6362500D01*
X1750000Y-12687500D02*
X1750000Y-15887500D01*
X1750000Y-15887500D02*
X-1750000Y-15887500D01*
X-1750000Y-15887500D02*
X-1750000Y-12687500D01*
X-1750000Y-12687500D02*
X1750000Y-12687500D01*
X1750000Y-31737500D02*
X1750000Y-34937500D01*
X1750000Y-34937500D02*
X-1750000Y-34937500D01*
X-1750000Y-34937500D02*
X-1750000Y-31737500D01*
X-1750000Y-31737500D02*
X1750000Y-31737500D01*
X1750000Y-50787500D02*
X1750000Y-53987500D01*
X1750000Y-53987500D02*
X-1750000Y-53987500D01*
X-1750000Y-53987500D02*
X-1750000Y-50787500D01*
X-1750000Y-50787500D02*
X1750000Y-50787500D01*
X20800000Y-50787500D02*
X20800000Y-53987500D01*
X20800000Y-53987500D02*
X17300000Y-53987500D01*
X17300000Y-53987500D02*
X17300000Y-50787500D01*
X17300000Y-50787500D02*
X20800000Y-50787500D01*
X20800000Y-31737500D02*
X20800000Y-34937500D01*
X20800000Y-34937500D02*
X17300000Y-34937500D01*
X17300000Y-34937500D02*
X17300000Y-31737500D01*
X17300000Y-31737500D02*
X20800000Y-31737500D01*
X20800000Y-12687500D02*
X20800000Y-15887500D01*
X20800000Y-15887500D02*
X17300000Y-15887500D01*
X17300000Y-15887500D02*
X17300000Y-12687500D01*
X17300000Y-12687500D02*
X20800000Y-12687500D01*
X20800000Y6362500D02*
X20800000Y3162500D01*
X20800000Y3162500D02*
X17300000Y3162500D01*
X17300000Y3162500D02*
X17300000Y6362500D01*
X17300000Y6362500D02*
X20800000Y6362500D01*
M02*
