G04 #@! TF.GenerationSoftware,KiCad,Pcbnew,(5.1.12)-1*
G04 #@! TF.CreationDate,2022-04-07T22:39:11+09:00*
G04 #@! TF.ProjectId,chervil8or,63686572-7669-46c3-986f-722e6b696361,rev?*
G04 #@! TF.SameCoordinates,Original*
G04 #@! TF.FileFunction,Copper,L2,Bot*
G04 #@! TF.FilePolarity,Positive*
%FSLAX46Y46*%
G04 Gerber Fmt 4.6, Leading zero omitted, Abs format (unit mm)*
G04 Created by KiCad (PCBNEW (5.1.12)-1) date 2022-04-07 22:39:11*
%MOMM*%
%LPD*%
G01*
G04 APERTURE LIST*
G04 #@! TA.AperFunction,ComponentPad*
%ADD10C,1.397000*%
G04 #@! TD*
G04 #@! TA.AperFunction,ComponentPad*
%ADD11R,1.397000X1.397000*%
G04 #@! TD*
G04 #@! TA.AperFunction,SMDPad,CuDef*
%ADD12R,1.300000X0.950000*%
G04 #@! TD*
G04 #@! TA.AperFunction,ComponentPad*
%ADD13C,1.524000*%
G04 #@! TD*
G04 #@! TA.AperFunction,ComponentPad*
%ADD14C,2.000000*%
G04 #@! TD*
G04 #@! TA.AperFunction,ComponentPad*
%ADD15R,3.200000X2.500000*%
G04 #@! TD*
G04 #@! TA.AperFunction,SMDPad,CuDef*
%ADD16R,3.300000X3.000000*%
G04 #@! TD*
G04 #@! TA.AperFunction,SMDPad,CuDef*
%ADD17R,2.200000X0.820000*%
G04 #@! TD*
G04 #@! TA.AperFunction,ComponentPad*
%ADD18O,2.200000X1.300000*%
G04 #@! TD*
G04 #@! TA.AperFunction,WasherPad*
%ADD19C,1.210000*%
G04 #@! TD*
G04 #@! TA.AperFunction,ComponentPad*
%ADD20O,1.300000X2.200000*%
G04 #@! TD*
G04 #@! TA.AperFunction,ViaPad*
%ADD21C,0.800000*%
G04 #@! TD*
G04 #@! TA.AperFunction,Conductor*
%ADD22C,0.250000*%
G04 #@! TD*
G04 #@! TA.AperFunction,Conductor*
%ADD23C,0.500000*%
G04 #@! TD*
G04 APERTURE END LIST*
D10*
X15240000Y-66079600D03*
D11*
X22860000Y-66079600D03*
D12*
X20825000Y-66079600D03*
X17275000Y-66079600D03*
D10*
X114062000Y-47029600D03*
D11*
X121682000Y-47029600D03*
D12*
X119647000Y-47029600D03*
X116097000Y-47029600D03*
D10*
X114062000Y-8929700D03*
D11*
X121682000Y-8929700D03*
D12*
X119647000Y-8929700D03*
X116097000Y-8929700D03*
D10*
X114062000Y-66079600D03*
D11*
X121682000Y-66079600D03*
D12*
X119647000Y-66079600D03*
X116097000Y-66079600D03*
D10*
X114062000Y-27979700D03*
D11*
X121682000Y-27979700D03*
D12*
X119647000Y-27979700D03*
X116097000Y-27979700D03*
D10*
X95011800Y-47029600D03*
D11*
X102631800Y-47029600D03*
D12*
X100596800Y-47029600D03*
X97046800Y-47029600D03*
D10*
X95011800Y-8929700D03*
D11*
X102631800Y-8929700D03*
D12*
X100596800Y-8929700D03*
X97046800Y-8929700D03*
D10*
X95011800Y-66079600D03*
D11*
X102631800Y-66079600D03*
D12*
X100596800Y-66079600D03*
X97046800Y-66079600D03*
D10*
X95011800Y-27979700D03*
D11*
X102631800Y-27979700D03*
D12*
X100596800Y-27979700D03*
X97046800Y-27979700D03*
D13*
X79275800Y6064300D03*
X79275800Y3524300D03*
X79275800Y984300D03*
X79275800Y-1555700D03*
X79275800Y-4095700D03*
X79275800Y-6635700D03*
X79275800Y-9175700D03*
X79275800Y-11715700D03*
X79275800Y-14255700D03*
X79275800Y-16795700D03*
X79275800Y-19335700D03*
X79275800Y-21875700D03*
X64035800Y-21875700D03*
X64035800Y-19335700D03*
X64035800Y-16795700D03*
X64035800Y-14255700D03*
X64035800Y-11715700D03*
X64035800Y-9175700D03*
X64035800Y-6635700D03*
X64035800Y-4095700D03*
X64035800Y-1555700D03*
X64035800Y984300D03*
X64035800Y3524300D03*
X64035800Y6064300D03*
X53975000Y6064300D03*
X53975000Y3524300D03*
X53975000Y984300D03*
X53975000Y-1555700D03*
X53975000Y-4095700D03*
X53975000Y-6635700D03*
X53975000Y-9175700D03*
X53975000Y-11715700D03*
X53975000Y-14255700D03*
X53975000Y-16795700D03*
X53975000Y-19335700D03*
X53975000Y-21875700D03*
X38735000Y-21875700D03*
X38735000Y-19335700D03*
X38735000Y-16795700D03*
X38735000Y-14255700D03*
X38735000Y-11715700D03*
X38735000Y-9175700D03*
X38735000Y-6635700D03*
X38735000Y-4095700D03*
X38735000Y-1555700D03*
X38735000Y984300D03*
X38735000Y3524300D03*
X38735000Y6064300D03*
D14*
X79925700Y-50125000D03*
X79925700Y-45125000D03*
D15*
X72925700Y-53225000D03*
X72925700Y-42025000D03*
D14*
X65425700Y-50125000D03*
X65425700Y-47625000D03*
X65425700Y-45125000D03*
D16*
X111722000Y-43220000D03*
X125322000Y-40680000D03*
X111722000Y-5120000D03*
X125322000Y-2580000D03*
X111722000Y-62270000D03*
X125322000Y-59730000D03*
X111722000Y-24170000D03*
X125322000Y-21630000D03*
X92671900Y-43220000D03*
X106271900Y-40680000D03*
X92671900Y-5120000D03*
X106271900Y-2580000D03*
X92671900Y-62270000D03*
X106271900Y-59730000D03*
X92671900Y-24170000D03*
X106271900Y-21630000D03*
D14*
X38243800Y-45125000D03*
X38243800Y-50125000D03*
D15*
X45243800Y-42025000D03*
X45243800Y-53225000D03*
D14*
X52743800Y-45125000D03*
X52743800Y-47625000D03*
X52743800Y-50125000D03*
D16*
X12900000Y-43220000D03*
X26500000Y-40680000D03*
X12900000Y-5120000D03*
X26500000Y-2580000D03*
X12900000Y-62270000D03*
X26500000Y-59730000D03*
X12900000Y-24170000D03*
X26500000Y-21630000D03*
X-6150000Y-43220000D03*
X7450000Y-40680000D03*
X-6150000Y-5120000D03*
X7450000Y-2580000D03*
X-6150000Y-62270000D03*
X7450000Y-59730000D03*
X-6150000Y-24170000D03*
X7450000Y-21630000D03*
D10*
X75485600Y-29170300D03*
X72945600Y-29170300D03*
X70405600Y-29170300D03*
X67865600Y-29170300D03*
X50184800Y-29170300D03*
X47644800Y-29170300D03*
X45104800Y-29170300D03*
X42564800Y-29170300D03*
D17*
X101771900Y5512500D03*
X101771900Y4012500D03*
X95871900Y4012500D03*
X95871900Y5512500D03*
X101771900Y-13537500D03*
X101771900Y-15037500D03*
X95871900Y-15037500D03*
X95871900Y-13537500D03*
X101771900Y-32587500D03*
X101771900Y-34087500D03*
X95871900Y-34087500D03*
X95871900Y-32587500D03*
X101771900Y-51637500D03*
X101771900Y-53137500D03*
X95871900Y-53137500D03*
X95871900Y-51637500D03*
X120822000Y-51637500D03*
X120822000Y-53137500D03*
X114922000Y-53137500D03*
X114922000Y-51637500D03*
X120822000Y-32587500D03*
X120822000Y-34087500D03*
X114922000Y-34087500D03*
X114922000Y-32587500D03*
X120822000Y-13537500D03*
X120822000Y-15037500D03*
X114922000Y-15037500D03*
X114922000Y-13537500D03*
X120822000Y5512500D03*
X120822000Y4012500D03*
X114922000Y4012500D03*
X114922000Y5512500D03*
X2950000Y5512500D03*
X2950000Y4012500D03*
X-2950000Y4012500D03*
X-2950000Y5512500D03*
X2950000Y-13537500D03*
X2950000Y-15037500D03*
X-2950000Y-15037500D03*
X-2950000Y-13537500D03*
X2950000Y-32587500D03*
X2950000Y-34087500D03*
X-2950000Y-34087500D03*
X-2950000Y-32587500D03*
X2950000Y-51637500D03*
X2950000Y-53137500D03*
X-2950000Y-53137500D03*
X-2950000Y-51637500D03*
X22000000Y-51637500D03*
X22000000Y-53137500D03*
X16100000Y-53137500D03*
X16100000Y-51637500D03*
X22000000Y-32587500D03*
X22000000Y-34087500D03*
X16100000Y-34087500D03*
X16100000Y-32587500D03*
X22000000Y-13537500D03*
X22000000Y-15037500D03*
X16100000Y-15037500D03*
X16100000Y-13537500D03*
X22000000Y5512500D03*
X22000000Y4012500D03*
X16100000Y4012500D03*
X16100000Y5512500D03*
D18*
X68760900Y-37718700D03*
X65760900Y-37718700D03*
X74260900Y-33718700D03*
X72760900Y-37718700D03*
D19*
X63960900Y-35718700D03*
X70960900Y-35718700D03*
D20*
X82236600Y3867200D03*
X82236600Y6867200D03*
X86236600Y-1632800D03*
X82236600Y-132800D03*
D19*
X84236600Y8667200D03*
X84236600Y1667200D03*
D18*
X49110900Y-33718700D03*
X52110900Y-33718700D03*
X43610900Y-37718700D03*
X45110900Y-33718700D03*
D19*
X53910900Y-35718700D03*
X46910900Y-35718700D03*
D20*
X31932800Y3867200D03*
X31932800Y6867200D03*
X35932800Y-1632800D03*
X31932800Y-132800D03*
D19*
X33932800Y8667200D03*
X33932800Y1667200D03*
D10*
X15240000Y-47029600D03*
D11*
X22860000Y-47029600D03*
D12*
X20825000Y-47029600D03*
X17275000Y-47029600D03*
X17275000Y-8929700D03*
X20825000Y-8929700D03*
D11*
X22860000Y-8929700D03*
D10*
X15240000Y-8929700D03*
X15240000Y-27979700D03*
D11*
X22860000Y-27979700D03*
D12*
X20825000Y-27979700D03*
X17275000Y-27979700D03*
D10*
X-3810000Y-47029600D03*
D11*
X3810000Y-47029600D03*
D12*
X1775000Y-47029600D03*
X-1775000Y-47029600D03*
D10*
X-3810000Y-8929700D03*
D11*
X3810000Y-8929700D03*
D12*
X1775000Y-8929700D03*
X-1775000Y-8929700D03*
D10*
X-3810000Y-66079600D03*
D11*
X3810000Y-66079600D03*
D12*
X1775000Y-66079600D03*
X-1775000Y-66079600D03*
D10*
X-3810000Y-27979700D03*
D11*
X3810000Y-27979700D03*
D12*
X1775000Y-27979700D03*
X-1775000Y-27979700D03*
D21*
X36045600Y-45997500D03*
X9513500Y-53092000D03*
X1335700Y-26359100D03*
X33143200Y-20788300D03*
X26693400Y-27238100D03*
X5546700Y-6327500D03*
X9743900Y-33251700D03*
X29466000Y-18065700D03*
X29446900Y-15372100D03*
X89721200Y-9968000D03*
X86520900Y-13168300D03*
X89636700Y-22241100D03*
X99992600Y-22294800D03*
X89564300Y-25629600D03*
X87766600Y-25986800D03*
X89636700Y-34119300D03*
X81837200Y-25255400D03*
X89721200Y-30785500D03*
X116731500Y-3441900D03*
X105821900Y-42790200D03*
X89555700Y-6937000D03*
X122912800Y-6937000D03*
X2600000Y-53137500D03*
X21650000Y-53137500D03*
X2600000Y-34087500D03*
X21650000Y-34087500D03*
X2600000Y-15037500D03*
X21650000Y-15037500D03*
X2600000Y4012500D03*
X21650000Y4012500D03*
X49501400Y-7242100D03*
X120472000Y-53137500D03*
X101422000Y-53137500D03*
X120472000Y-34087500D03*
X101422000Y-34087500D03*
X120472000Y-15037500D03*
X101422000Y-15037500D03*
X120472000Y4012500D03*
X101422000Y4012500D03*
X23779800Y5367200D03*
X-1054200Y-45321900D03*
X-4652000Y-52387456D03*
X475700Y-30221300D03*
X-4577400Y-33355900D03*
X475700Y-10545600D03*
X-4375300Y-12078300D03*
X99297600Y-45923300D03*
X94143100Y-49880200D03*
X97319800Y-29716100D03*
X94446600Y-31629500D03*
X99297600Y-11317300D03*
X94446600Y-12090300D03*
D22*
X22860000Y-8929700D02*
X23883800Y-8929700D01*
X23883800Y-8929700D02*
X27939800Y-12985700D01*
X27939800Y-12985700D02*
X39019700Y-12985700D01*
X39019700Y-12985700D02*
X40291500Y-14257500D01*
X40291500Y-14257500D02*
X40291500Y-17779200D01*
X40291500Y-17779200D02*
X38735000Y-19335700D01*
X20825000Y-8929700D02*
X22860000Y-8929700D01*
X1775000Y-8929700D02*
X3810000Y-8929700D01*
X9898700Y-55006000D02*
X14368100Y-59475400D01*
X14368100Y-59475400D02*
X19862700Y-59475400D01*
X19862700Y-59475400D02*
X21974000Y-61586700D01*
X21974000Y-61586700D02*
X28297100Y-61586700D01*
X28297100Y-61586700D02*
X36045600Y-53838200D01*
X36045600Y-53838200D02*
X36045600Y-45997500D01*
X7000000Y-21630000D02*
X2270900Y-26359100D01*
X2270900Y-26359100D02*
X1335700Y-26359100D01*
X9513500Y-54620800D02*
X9898700Y-55006000D01*
X9513500Y-53092000D02*
X9513500Y-54620800D01*
X9524992Y-54768704D02*
X9513500Y-54620800D01*
X8929680Y-55364016D02*
X9524992Y-54768704D01*
X7000000Y-57904700D02*
X8929680Y-55364016D01*
X7000000Y-59730000D02*
X7000000Y-57904700D01*
X-3810000Y-65279300D02*
X-3810000Y-66079600D01*
X-2381248Y-65279300D02*
X-1775000Y-66079600D01*
X-3810000Y-65279300D02*
X-2381248Y-65279300D01*
X-4994000Y-64095300D02*
X-3810000Y-65279300D01*
X-5700000Y-63103072D02*
X-4994000Y-64095300D01*
X-5700000Y-62270000D02*
X-5700000Y-63103072D01*
X38735000Y-16795700D02*
X27551000Y-27979700D01*
X27551000Y-27979700D02*
X22860000Y-27979700D01*
X20825000Y-27979700D02*
X22860000Y-27979700D01*
X1775000Y-27979700D02*
X3810000Y-27979700D01*
X23883800Y-47029600D02*
X24441100Y-47029600D01*
X24441100Y-47029600D02*
X29011600Y-42459100D01*
X29011600Y-42459100D02*
X29011600Y-27502600D01*
X29011600Y-27502600D02*
X38448500Y-18065700D01*
X38448500Y-18065700D02*
X39026100Y-18065700D01*
X39026100Y-18065700D02*
X39841200Y-17250600D01*
X39841200Y-17250600D02*
X39841200Y-15361900D01*
X39841200Y-15361900D02*
X38735000Y-14255700D01*
X22860000Y-47029600D02*
X23883800Y-47029600D01*
X20825000Y-47029600D02*
X22860000Y-47029600D01*
X1775000Y-47029600D02*
X3810000Y-47029600D01*
X-3810000Y-46229300D02*
X-3810000Y-47029600D01*
X-2381248Y-46229300D02*
X-1775000Y-47029600D01*
X-3810000Y-46229300D02*
X-2381248Y-46229300D01*
X-4994000Y-45045300D02*
X-3810000Y-46229300D01*
X-5700000Y-44053088D02*
X-4994000Y-45045300D01*
X-5700000Y-43220000D02*
X-5700000Y-44053088D01*
X23883800Y-66079600D02*
X24441100Y-66079600D01*
X24441100Y-66079600D02*
X36918400Y-53602300D01*
X36918400Y-53602300D02*
X36918400Y-22154300D01*
X36918400Y-22154300D02*
X38467000Y-20605700D01*
X38467000Y-20605700D02*
X39027100Y-20605700D01*
X39027100Y-20605700D02*
X40741900Y-18890900D01*
X40741900Y-18890900D02*
X40741900Y-13722600D01*
X40741900Y-13722600D02*
X38735000Y-11715700D01*
X22860000Y-66079600D02*
X23883800Y-66079600D01*
X20825000Y-66079600D02*
X20825000Y-66879900D01*
X20825000Y-66879900D02*
X20601500Y-67103400D01*
X20601500Y-67103400D02*
X5857600Y-67103400D01*
X5857600Y-67103400D02*
X4833800Y-66079600D01*
X20825000Y-66079600D02*
X22860000Y-66079600D01*
X3810000Y-66079600D02*
X4833800Y-66079600D01*
X1775000Y-66079600D02*
X3810000Y-66079600D01*
X15240000Y-27179400D02*
X15240000Y-27979700D01*
X14055900Y-25995300D02*
X15240000Y-27179400D01*
X13350000Y-25003104D02*
X14055900Y-25995300D01*
X13350000Y-24170000D02*
X13350000Y-25003104D01*
X16073424Y-27179400D02*
X17275000Y-27979700D01*
X15240000Y-27179400D02*
X16073424Y-27179400D01*
X26693400Y-27238100D02*
X33143200Y-20788300D01*
X7000000Y-2580000D02*
X7000000Y-4405300D01*
X7000000Y-4405300D02*
X5546700Y-5858600D01*
X5546700Y-5858600D02*
X5546700Y-6327500D01*
X7000000Y-38854700D02*
X9743900Y-36110800D01*
X9743900Y-36110800D02*
X9743900Y-33251700D01*
X7000000Y-40680000D02*
X7000000Y-38854700D01*
X15240000Y-8929700D02*
X15240000Y-8129400D01*
X16668736Y-8129400D02*
X17275000Y-8929700D01*
X15240000Y-8129400D02*
X16668736Y-8129400D01*
X14055900Y-6945300D02*
X15240000Y-8129400D01*
X13350000Y-5357808D02*
X14055900Y-6945300D01*
X13350000Y-5120000D02*
X13350000Y-5357808D01*
X26050000Y-59730000D02*
X26050000Y-53641100D01*
X26050000Y-53641100D02*
X20961700Y-48552800D01*
X20961700Y-48552800D02*
X20749400Y-48552800D01*
X20749400Y-48552800D02*
X19849200Y-47652600D01*
X19849200Y-47652600D02*
X19849200Y-46397000D01*
X19849200Y-46397000D02*
X22361500Y-43884700D01*
X22361500Y-43884700D02*
X26926400Y-43884700D01*
X26926400Y-43884700D02*
X28505000Y-42306100D01*
X28505000Y-42306100D02*
X28505000Y-36423900D01*
X28505000Y-36423900D02*
X21201400Y-29120300D01*
X21201400Y-29120300D02*
X20373000Y-29120300D01*
X20373000Y-29120300D02*
X19849600Y-28596900D01*
X19849600Y-28596900D02*
X19849600Y-27358900D01*
X19849600Y-27358900D02*
X25578500Y-21630000D01*
X25578500Y-21630000D02*
X26050000Y-21630000D01*
X27727000Y-19804700D02*
X29466000Y-18065700D01*
X26193728Y-22026544D02*
X27727000Y-19804700D01*
X26050000Y-21630000D02*
X26193728Y-22026544D01*
X93121900Y-62270000D02*
X93121900Y-64189700D01*
X93121900Y-64189700D02*
X95011800Y-66079600D01*
X97046800Y-66079600D02*
X95011800Y-66079600D01*
X93121900Y-43220000D02*
X93121900Y-45139700D01*
X93121900Y-45139700D02*
X95011800Y-47029600D01*
X95011800Y-47029600D02*
X96071500Y-47029600D01*
X97046800Y-47029600D02*
X96071500Y-47029600D01*
X114062000Y-27179400D02*
X114062000Y-27979700D01*
X112877900Y-25995300D02*
X114062000Y-27179400D01*
X112172000Y-25003104D02*
X112877900Y-25995300D01*
X112172000Y-24170000D02*
X112172000Y-25003104D01*
X115490528Y-27179400D02*
X116097000Y-27979700D01*
X114094952Y-27179400D02*
X115490528Y-27179400D01*
X23425400Y-15372100D02*
X29446900Y-15372100D01*
X23425400Y-15372100D02*
X23425400Y-12906500D01*
X23425400Y-12906500D02*
X21896700Y-11377800D01*
X21896700Y-11377800D02*
X21678200Y-11377800D01*
X21678200Y-11377800D02*
X19849600Y-9549200D01*
X19849600Y-9549200D02*
X19849600Y-8305000D01*
X19849600Y-8305000D02*
X25574600Y-2580000D01*
X25574600Y-2580000D02*
X26050000Y-2580000D01*
X26050000Y-40680000D02*
X26050000Y-34659500D01*
X26050000Y-34659500D02*
X20988300Y-29597800D01*
X20988300Y-29597800D02*
X20213600Y-29597800D01*
X20213600Y-29597800D02*
X19300500Y-28684700D01*
X19300500Y-28684700D02*
X19300500Y-22619000D01*
X19300500Y-22619000D02*
X16690500Y-20009000D01*
X16690500Y-20009000D02*
X16690500Y-18110200D01*
X16690500Y-18110200D02*
X18180300Y-16620400D01*
X18180300Y-16620400D02*
X22404900Y-16620400D01*
X22404900Y-16620400D02*
X23425400Y-15599900D01*
X23425400Y-15599900D02*
X23425400Y-15372100D01*
X114062000Y-8129400D02*
X114062000Y-8929700D01*
X112877900Y-6945300D02*
X114062000Y-8129400D01*
X112172000Y-5953120D02*
X112877900Y-6945300D01*
X112172000Y-5120000D02*
X112172000Y-5953120D01*
X114895216Y-8129400D02*
X116097000Y-8929700D01*
X114062000Y-8129400D02*
X114895216Y-8129400D01*
X89721200Y-9968000D02*
X86520900Y-13168300D01*
X119647000Y-8929700D02*
X120658200Y-8929700D01*
X121682000Y-8929700D02*
X120658200Y-8929700D01*
X100596800Y-8929700D02*
X102631800Y-8929700D01*
X105821900Y-21630000D02*
X104036500Y-23415400D01*
X104036500Y-23415400D02*
X101113200Y-23415400D01*
X101113200Y-23415400D02*
X99992600Y-22294800D01*
X89636700Y-22241100D02*
X85615600Y-18220000D01*
X85615600Y-18220000D02*
X78843000Y-18220000D01*
X78843000Y-18220000D02*
X78186400Y-18876600D01*
X78186400Y-18876600D02*
X78186400Y-20786300D01*
X78186400Y-20786300D02*
X79275800Y-21875700D01*
X105821900Y-57904700D02*
X105821900Y-57100500D01*
X105821900Y-57100500D02*
X103409600Y-54688200D01*
X103409600Y-54688200D02*
X95360100Y-54688200D01*
X95360100Y-54688200D02*
X80650000Y-39978100D01*
X80650000Y-39978100D02*
X80650000Y-23249900D01*
X80650000Y-23249900D02*
X79275800Y-21875700D01*
X105821900Y-59730000D02*
X105821900Y-57904700D01*
X89564300Y-25629600D02*
X88123800Y-25629600D01*
X88123800Y-25629600D02*
X87766600Y-25986800D01*
X119647000Y-27979700D02*
X121682000Y-27979700D01*
X100596800Y-27979700D02*
X102631800Y-27979700D01*
X81837200Y-25255400D02*
X89636700Y-33054900D01*
X89636700Y-33054900D02*
X89636700Y-34119300D01*
X119647000Y-47029600D02*
X121682000Y-47029600D01*
X100596800Y-47029600D02*
X102631800Y-47029600D01*
X100596800Y-66079600D02*
X100596800Y-66879900D01*
X64035800Y-11715700D02*
X66211300Y-13891200D01*
X66211300Y-13891200D02*
X66211300Y-36218900D01*
X66211300Y-36218900D02*
X67195300Y-37202900D01*
X67195300Y-37202900D02*
X67195300Y-40993300D01*
X67195300Y-40993300D02*
X64047900Y-44140700D01*
X64047900Y-44140700D02*
X64047900Y-50672300D01*
X64047900Y-50672300D02*
X81208300Y-67832700D01*
X81208300Y-67832700D02*
X99644000Y-67832700D01*
X99644000Y-67832700D02*
X100596800Y-66879900D01*
X100596800Y-66079600D02*
X101608000Y-66079600D01*
X102631800Y-66079600D02*
X101608000Y-66079600D01*
X121682000Y-66079600D02*
X120658200Y-66079600D01*
X119647000Y-66479700D02*
X120258100Y-66479700D01*
X120258100Y-66479700D02*
X120658200Y-66079600D01*
X119647000Y-66479700D02*
X119647000Y-66879900D01*
X119647000Y-66079600D02*
X119647000Y-66479700D01*
X102631800Y-66079600D02*
X103655600Y-66079600D01*
X103655600Y-66079600D02*
X104710100Y-67134100D01*
X104710100Y-67134100D02*
X119392800Y-67134100D01*
X119392800Y-67134100D02*
X119647000Y-66879900D01*
X105821900Y-42505300D02*
X105821900Y-42790200D01*
X79275800Y-19335700D02*
X89721200Y-29781100D01*
X89721200Y-29781100D02*
X89721200Y-30785500D01*
X105821900Y-2580000D02*
X115869600Y-2580000D01*
X115869600Y-2580000D02*
X116731500Y-3441900D01*
X105821900Y-40680000D02*
X105821900Y-42505300D01*
X124872000Y-59730000D02*
X124872000Y-57904700D01*
X124872000Y-21630000D02*
X124872000Y-23455300D01*
X124872000Y-23455300D02*
X127297400Y-25880700D01*
X127297400Y-25880700D02*
X127297400Y-55479300D01*
X127297400Y-55479300D02*
X124872000Y-57904700D01*
X118953200Y-61519800D02*
X123082200Y-61519800D01*
X117818800Y-60385400D02*
X118953200Y-61519800D01*
X109930200Y-60385400D02*
X117818800Y-60385400D01*
X108719200Y-61596400D02*
X109930200Y-60385400D01*
X123082200Y-61519800D02*
X124872000Y-59730000D01*
X99972800Y-61596400D02*
X108719200Y-61596400D01*
X95537400Y-57161000D02*
X99972800Y-61596400D01*
X77736000Y-38099968D02*
X95537400Y-55765800D01*
X95537400Y-55765800D02*
X95537400Y-57161000D01*
X77736000Y-18335500D02*
X77736000Y-38099968D01*
X79275800Y-16795700D02*
X77736000Y-18335500D01*
X122912800Y-6937000D02*
X122912800Y-14977300D01*
X122912800Y-14977300D02*
X121269700Y-16620400D01*
X121269700Y-16620400D02*
X117010000Y-16620400D01*
X117010000Y-16620400D02*
X115497100Y-18133300D01*
X115497100Y-18133300D02*
X115497100Y-20055000D01*
X115497100Y-20055000D02*
X118486200Y-23044100D01*
X118486200Y-23044100D02*
X118486200Y-28439300D01*
X118486200Y-28439300D02*
X120474700Y-30427800D01*
X120474700Y-30427800D02*
X120753700Y-30427800D01*
X120753700Y-30427800D02*
X124872000Y-34546100D01*
X124872000Y-34546100D02*
X124872000Y-40680000D01*
X124872000Y-4272700D02*
X124872000Y-4977800D01*
X124872000Y-4977800D02*
X122912800Y-6937000D01*
X79275800Y-14255700D02*
X86594500Y-6937000D01*
X86594500Y-6937000D02*
X89555700Y-6937000D01*
X124872000Y-2580000D02*
X124872000Y-4272700D01*
D23*
X38735000Y984300D02*
X35852100Y3867200D01*
X35852100Y3867200D02*
X31932800Y3867200D01*
X53975000Y3524300D02*
X41275000Y3524300D01*
X41275000Y3524300D02*
X38735000Y984300D01*
D22*
X31932800Y6867200D02*
X35392100Y6867200D01*
X35392100Y6867200D02*
X38735000Y3524300D01*
X52110900Y-33718700D02*
X51917300Y-33525100D01*
X51917300Y-33525100D02*
X51917300Y-9658000D01*
X51917300Y-9658000D02*
X49501400Y-7242100D01*
D23*
X17088700Y6872500D02*
X-1961200Y6872500D01*
X-1961200Y6872500D02*
X-2600000Y6233800D01*
X-2600000Y6233800D02*
X-2600000Y5512500D01*
X17535300Y6872500D02*
X17088700Y6872500D01*
X47644800Y-29170300D02*
X47644800Y-31184800D01*
X47644800Y-31184800D02*
X45110900Y-33718700D01*
X53975000Y-1555700D02*
X47644800Y-7885900D01*
X47644800Y-7885900D02*
X47644800Y-29170300D01*
X-3052500Y-50277500D02*
X-3052500Y-51185000D01*
X-3052500Y-51185000D02*
X-2600000Y-51637500D01*
X-8250000Y-26030000D02*
X-8250000Y-45080000D01*
X-8250000Y-45080000D02*
X-3052500Y-50277500D01*
X-3052500Y-50277500D02*
X15090000Y-50277500D01*
X15090000Y-50277500D02*
X16450000Y-51637500D01*
X-3052500Y-31227500D02*
X-3052500Y-32135000D01*
X-3052500Y-32135000D02*
X-2600000Y-32587500D01*
X-8250000Y-6980000D02*
X-8250000Y-26030000D01*
X-8250000Y-26030000D02*
X-3052500Y-31227500D01*
X-3052500Y-31227500D02*
X15090000Y-31227500D01*
X15090000Y-31227500D02*
X16450000Y-32587500D01*
X-3052500Y-12177500D02*
X-3052500Y-13085000D01*
X-3052500Y-13085000D02*
X-2600000Y-13537500D01*
X-2600000Y5512500D02*
X-3770000Y5512500D01*
X-3770000Y5512500D02*
X-8250000Y1032500D01*
X-8250000Y1032500D02*
X-8250000Y-6980000D01*
X-8250000Y-6980000D02*
X-3052500Y-12177500D01*
X-3052500Y-12177500D02*
X15090000Y-12177500D01*
X15090000Y-12177500D02*
X16450000Y-13537500D01*
X31932800Y-132800D02*
X31932800Y1467200D01*
X31932800Y1467200D02*
X26527500Y6872500D01*
X26527500Y6872500D02*
X17535300Y6872500D01*
X16450000Y5512500D02*
X16450000Y6233800D01*
X16450000Y6233800D02*
X17088700Y6872500D01*
X17088700Y6872500D02*
X17535300Y6872500D01*
X53975000Y-1555700D02*
X52647000Y-227700D01*
X52647000Y-227700D02*
X36533300Y-227700D01*
X36533300Y-227700D02*
X36388400Y-82800D01*
X36388400Y-82800D02*
X31982800Y-82800D01*
X31982800Y-82800D02*
X31932800Y-132800D01*
D22*
X101422000Y4012500D02*
X101421900Y4012500D01*
X101422000Y-15037500D02*
X101421900Y-15037500D01*
X101422000Y-34087500D02*
X101421900Y-34087500D01*
X101422000Y-53137500D02*
X101421900Y-53137500D01*
D23*
X79275800Y3524300D02*
X81893700Y3524300D01*
X81893700Y3524300D02*
X82236600Y3867200D01*
X64035800Y984300D02*
X65247800Y2196300D01*
X65247800Y2196300D02*
X77947800Y2196300D01*
X77947800Y2196300D02*
X79275800Y3524300D01*
D22*
X64035800Y3524300D02*
X62947100Y2435600D01*
X62947100Y2435600D02*
X62947100Y-32420700D01*
X62947100Y-32420700D02*
X65760900Y-35234500D01*
X65760900Y-35234500D02*
X65760900Y-37718700D01*
D23*
X72945600Y-29170300D02*
X72247100Y-29868800D01*
X72247100Y-29868800D02*
X72247100Y-37204900D01*
X72247100Y-37204900D02*
X72760900Y-37718700D01*
X79275800Y-1555700D02*
X72710900Y-8120600D01*
X72710900Y-8120600D02*
X72710900Y-28935600D01*
X72710900Y-28935600D02*
X72945600Y-29170300D01*
X95769400Y-50277500D02*
X95769400Y-51185000D01*
X95769400Y-51185000D02*
X96221900Y-51637500D01*
X90571900Y-26030000D02*
X90571900Y-45080000D01*
X90571900Y-45080000D02*
X95769400Y-50277500D01*
X95769400Y-50277500D02*
X113912000Y-50277500D01*
X113912000Y-50277500D02*
X115272000Y-51637500D01*
X95769400Y-31227500D02*
X95769400Y-32135000D01*
X95769400Y-32135000D02*
X96221900Y-32587500D01*
X90571900Y-6980000D02*
X90571900Y-26030000D01*
X90571900Y-26030000D02*
X95769400Y-31227500D01*
X95769400Y-31227500D02*
X113912000Y-31227500D01*
X113912000Y-31227500D02*
X115272000Y-32587500D01*
X95769400Y-12177500D02*
X95769400Y-13085000D01*
X95769400Y-13085000D02*
X96221900Y-13537500D01*
X90571900Y-6980000D02*
X95769400Y-12177500D01*
X95769400Y-12177500D02*
X113912000Y-12177500D01*
X113912000Y-12177500D02*
X115272000Y-13537500D01*
X94978700Y6872500D02*
X113912000Y6872500D01*
X113912000Y6872500D02*
X115272000Y5512500D01*
X94978700Y6872500D02*
X94978700Y6755700D01*
X94978700Y6755700D02*
X96221900Y5512500D01*
X79275800Y-1555700D02*
X80813700Y-1555700D01*
X80813700Y-1555700D02*
X82236600Y-132800D01*
X92736300Y6872500D02*
X94978700Y6872500D01*
X84484304Y-132800D02*
X84534304Y-82800D01*
X82236600Y-132800D02*
X84484304Y-132800D01*
X89089047Y-1777147D02*
X89089047Y3779625D01*
X90571899Y-3259999D02*
X89089047Y-1777147D01*
X90571900Y-6980000D02*
X90571899Y-3259999D01*
X89089047Y3779625D02*
X92736300Y6872500D01*
X84534304Y-82800D02*
X89089047Y3779625D01*
D22*
X21650000Y5512500D02*
X23634500Y5512500D01*
X23634500Y5512500D02*
X23779800Y5367200D01*
X16450000Y4012500D02*
X16450000Y-2298800D01*
X16450000Y-2298800D02*
X19174300Y-5023100D01*
X19174300Y-5023100D02*
X19174300Y-9877100D01*
X19174300Y-9877100D02*
X21650000Y-12352800D01*
X21650000Y-12352800D02*
X21650000Y-13537500D01*
X16450000Y-15037500D02*
X16240100Y-15247400D01*
X16240100Y-15247400D02*
X16240100Y-21143200D01*
X16240100Y-21143200D02*
X18647400Y-23550500D01*
X18647400Y-23550500D02*
X18647400Y-28862900D01*
X18647400Y-28862900D02*
X21650000Y-31865500D01*
X21650000Y-31865500D02*
X21650000Y-32587500D01*
X16450000Y-34087500D02*
X16450000Y-38818400D01*
X16450000Y-38818400D02*
X18944000Y-41312400D01*
X18944000Y-41312400D02*
X18944000Y-48065400D01*
X18944000Y-48065400D02*
X21650000Y-50771400D01*
X21650000Y-50771400D02*
X21650000Y-51637500D01*
X16450000Y-53137500D02*
X14674700Y-53137500D01*
X14674700Y-53137500D02*
X13174700Y-51637500D01*
X13174700Y-51637500D02*
X2600000Y-51637500D01*
X475700Y-43792000D02*
X-1054200Y-45321900D01*
X2880700Y-37183100D02*
X2880700Y-38605000D01*
X4375300Y-35688500D02*
X2880700Y-37183100D01*
X475700Y-41010000D02*
X475700Y-43792000D01*
X2880700Y-38605000D02*
X475700Y-41010000D01*
X4375300Y-33337472D02*
X4375300Y-35688500D01*
X3571872Y-32742160D02*
X4375300Y-33337472D01*
X-3571872Y-53137500D02*
X-2600000Y-53137500D01*
X-4652000Y-52387456D02*
X-3571872Y-53137500D01*
X2600000Y-13537500D02*
X4375300Y-13537500D01*
X-2600000Y-34087500D02*
X-4375300Y-34087500D01*
X-4375300Y-34087500D02*
X-4375300Y-33558000D01*
X-4375300Y-33558000D02*
X-4577400Y-33355900D01*
X4375300Y-13537500D02*
X4375300Y-17724700D01*
X4375300Y-17724700D02*
X2880700Y-19219300D01*
X2880700Y-19219300D02*
X2880700Y-19555000D01*
X2880700Y-19555000D02*
X475700Y-21960000D01*
X475700Y-21960000D02*
X475700Y-30221300D01*
X475700Y-2910000D02*
X475700Y-10545600D01*
X2880700Y-505000D02*
X475700Y-2910000D01*
X2880700Y-169300D02*
X2880700Y-505000D01*
X4375300Y1325300D02*
X2880700Y-169300D01*
X4375300Y4762496D02*
X4375300Y1325300D01*
X3571872Y5512500D02*
X4375300Y4762496D01*
X-4375300Y-14287488D02*
X-4375300Y-12078300D01*
X-3571872Y-15037500D02*
X-4375300Y-14287488D01*
X120472000Y5512500D02*
X120472000Y5972600D01*
X120472000Y5972600D02*
X118995100Y7449500D01*
X118995100Y7449500D02*
X91075900Y7449500D01*
X91075900Y7449500D02*
X89068200Y5441800D01*
X89068200Y5441800D02*
X81726100Y5441800D01*
X81726100Y5441800D02*
X81240500Y4956200D01*
X81240500Y4956200D02*
X65143900Y4956200D01*
X65143900Y4956200D02*
X64035800Y6064300D01*
X120472000Y-13537500D02*
X120472000Y-13077400D01*
X120472000Y-13077400D02*
X117456800Y-10062200D01*
X117456800Y-10062200D02*
X117456800Y-3141400D01*
X117456800Y-3141400D02*
X115272000Y-956600D01*
X115272000Y-956600D02*
X115272000Y4012500D01*
X115272000Y-15037500D02*
X115046800Y-15262700D01*
X115046800Y-15262700D02*
X115046800Y-21118200D01*
X115046800Y-21118200D02*
X117562000Y-23633400D01*
X117562000Y-23633400D02*
X117562000Y-28492800D01*
X117562000Y-28492800D02*
X120472000Y-31402800D01*
X120472000Y-31402800D02*
X120472000Y-32587500D01*
X115272000Y-34087500D02*
X115272000Y-39464400D01*
X115272000Y-39464400D02*
X118450600Y-42643000D01*
X118450600Y-42643000D02*
X118450600Y-47432000D01*
X118450600Y-47432000D02*
X120472000Y-49453400D01*
X120472000Y-49453400D02*
X120472000Y-51637500D01*
X115272000Y-53137500D02*
X113496700Y-53137500D01*
X113496700Y-53137500D02*
X111996700Y-51637500D01*
X111996700Y-51637500D02*
X101421900Y-51637500D01*
X99297600Y-41010000D02*
X99297600Y-45923300D01*
X101702600Y-38605000D02*
X99297600Y-41010000D01*
X101702600Y-38269300D02*
X101702600Y-38605000D01*
X103197200Y-36774700D02*
X101702600Y-38269300D01*
X103197200Y-33337472D02*
X103197200Y-36774700D01*
X102393664Y-32742160D02*
X103197200Y-33337472D01*
X94446600Y-52387456D02*
X94446600Y-50183700D01*
X94446600Y-50183700D02*
X94143100Y-49880200D01*
X95249920Y-53137500D02*
X94446600Y-52387456D01*
X98156800Y-28879100D02*
X97319800Y-29716100D01*
X98156800Y-23100800D02*
X98156800Y-28879100D01*
X101702600Y-19555000D02*
X98156800Y-23100800D01*
X101702600Y-19219300D02*
X101702600Y-19555000D01*
X103197200Y-14287488D02*
X103197200Y-17724700D01*
X103197200Y-17724700D02*
X101702600Y-19219300D01*
X102393664Y-13692176D02*
X103197200Y-14287488D01*
X94446600Y-33337472D02*
X94446600Y-31629500D01*
X95249920Y-34087500D02*
X94446600Y-33337472D01*
X99297600Y-2910000D02*
X99297600Y-11317300D01*
X101702600Y-505000D02*
X99297600Y-2910000D01*
X101702600Y-169300D02*
X101702600Y-505000D01*
X103197200Y1325300D02*
X101702600Y-169300D01*
X103197200Y4762496D02*
X103197200Y1325300D01*
X102393664Y5357808D02*
X103197200Y4762496D01*
X94446600Y-14287488D02*
X94446600Y-12090300D01*
X95249920Y-14882800D02*
X94446600Y-14287488D01*
X45104800Y-29170300D02*
X44063400Y-30211700D01*
X44063400Y-30211700D02*
X42158100Y-30211700D01*
X42158100Y-30211700D02*
X41529900Y-29583500D01*
X41529900Y-29583500D02*
X41529900Y-9430600D01*
X41529900Y-9430600D02*
X38735000Y-6635700D01*
X42564800Y-29170300D02*
X42564800Y-7925500D01*
X42564800Y-7925500D02*
X38735000Y-4095700D01*
X70405600Y-29170300D02*
X69372200Y-30203700D01*
X69372200Y-30203700D02*
X67392100Y-30203700D01*
X67392100Y-30203700D02*
X66841700Y-29653300D01*
X66841700Y-29653300D02*
X66841700Y-9441600D01*
X66841700Y-9441600D02*
X64035800Y-6635700D01*
X67865600Y-29170300D02*
X67865600Y-7925500D01*
X67865600Y-7925500D02*
X64035800Y-4095700D01*
X38243800Y-45125000D02*
X44577000Y-51458200D01*
X44577000Y-51458200D02*
X53340800Y-51458200D01*
X53340800Y-51458200D02*
X54842800Y-49956200D01*
X54842800Y-49956200D02*
X54842800Y-24942300D01*
X54842800Y-24942300D02*
X52841600Y-22941100D01*
X52841600Y-22941100D02*
X52841600Y-7769100D01*
X52841600Y-7769100D02*
X53975000Y-6635700D01*
X52743800Y-45125000D02*
X52743800Y-44983200D01*
X52743800Y-44983200D02*
X38735000Y-30974400D01*
X38735000Y-30974400D02*
X38735000Y-21875700D01*
X52743800Y-50125000D02*
X54094700Y-48774100D01*
X54094700Y-48774100D02*
X54094700Y-44128000D01*
X54094700Y-44128000D02*
X52937400Y-42970700D01*
X52937400Y-42970700D02*
X52937400Y-35341100D01*
X52937400Y-35341100D02*
X53543900Y-34734600D01*
X53543900Y-34734600D02*
X53543900Y-24318700D01*
X53543900Y-24318700D02*
X52391300Y-23166100D01*
X52391300Y-23166100D02*
X52391300Y-5679400D01*
X52391300Y-5679400D02*
X53975000Y-4095700D01*
X79925700Y-50125000D02*
X77272100Y-47471400D01*
X77272100Y-47471400D02*
X77272100Y-8639400D01*
X77272100Y-8639400D02*
X79275800Y-6635700D01*
X65425700Y-45125000D02*
X71736400Y-38814300D01*
X71736400Y-38814300D02*
X73497300Y-38814300D01*
X73497300Y-38814300D02*
X76516100Y-35795500D01*
X76516100Y-35795500D02*
X76516100Y-6855400D01*
X76516100Y-6855400D02*
X79275800Y-4095700D01*
X-3810000Y-27179400D02*
X-3810000Y-27979700D01*
X-4994100Y-25995300D02*
X-3810000Y-27179400D01*
X-5556236Y-25003104D02*
X-4994100Y-25995300D01*
X-5700000Y-24170000D02*
X-5556236Y-25003104D01*
X-2381248Y-27179400D02*
X-1775000Y-27979700D01*
X-3810000Y-27179400D02*
X-2381248Y-27179400D01*
X-3810000Y-8129400D02*
X-3810000Y-8929700D01*
X-2381248Y-8129400D02*
X-1775000Y-8929700D01*
X-3810000Y-8129400D02*
X-2381248Y-8129400D01*
X-4994100Y-6945300D02*
X-3810000Y-8129400D01*
X-5700000Y-5953120D02*
X-4994100Y-6945300D01*
X-5700000Y-5120000D02*
X-5700000Y-5953120D01*
X15240000Y-65279300D02*
X15240000Y-66079600D01*
X16668736Y-65279300D02*
X17275000Y-66079600D01*
X15240000Y-65279300D02*
X16668736Y-65279300D01*
X14056000Y-64095300D02*
X15240000Y-65279300D01*
X13350000Y-63103072D02*
X14056000Y-64095300D01*
X13350000Y-62270000D02*
X13350000Y-63103072D01*
X15240000Y-46229300D02*
X15240000Y-47029600D01*
X16668736Y-46229300D02*
X17275000Y-47029600D01*
X15240000Y-46229300D02*
X16668736Y-46229300D01*
X14056000Y-45045300D02*
X15240000Y-46229300D01*
X13350000Y-44053088D02*
X14056000Y-45045300D01*
X13350000Y-43220000D02*
X13350000Y-44053088D01*
X93121900Y-24170000D02*
X93121900Y-26089800D01*
X93121900Y-26089800D02*
X95011800Y-27979700D01*
X97046800Y-27979700D02*
X95011800Y-27979700D01*
X95011800Y-8929700D02*
X93121900Y-7039800D01*
X93121900Y-7039800D02*
X93121900Y-5120000D01*
X97046800Y-8929700D02*
X95011800Y-8929700D01*
X114062000Y-65279300D02*
X114062000Y-66079600D01*
X112878000Y-64095300D02*
X114062000Y-65279300D01*
X112172000Y-63103072D02*
X112878000Y-64095300D01*
X112172000Y-62270000D02*
X112172000Y-63103072D01*
X114895216Y-65279300D02*
X116097000Y-66079600D01*
X114062000Y-65279300D02*
X114895216Y-65279300D01*
X114062000Y-46229300D02*
X114062000Y-47029600D01*
X112878000Y-45045300D02*
X114062000Y-46229300D01*
X112172000Y-44053088D02*
X112878000Y-45045300D01*
X112172000Y-43220000D02*
X112172000Y-44053088D01*
X114895216Y-46229300D02*
X116097000Y-47029600D01*
X114062000Y-46229300D02*
X114895216Y-46229300D01*
M02*
