G04 #@! TF.GenerationSoftware,KiCad,Pcbnew,(5.1.12)-1*
G04 #@! TF.CreationDate,2022-04-06T18:15:02+09:00*
G04 #@! TF.ProjectId,chervil8or,63686572-7669-46c3-986f-722e6b696361,rev?*
G04 #@! TF.SameCoordinates,Original*
G04 #@! TF.FileFunction,Legend,Top*
G04 #@! TF.FilePolarity,Positive*
%FSLAX46Y46*%
G04 Gerber Fmt 4.6, Leading zero omitted, Abs format (unit mm)*
G04 Created by KiCad (PCBNEW (5.1.12)-1) date 2022-04-06 18:15:02*
%MOMM*%
%LPD*%
G01*
G04 APERTURE LIST*
%ADD10C,0.150000*%
G04 APERTURE END LIST*
D10*
X77688200Y-42068750D02*
X78481950Y-42068750D01*
X78481950Y-42068750D02*
X78481950Y-42862500D01*
X77688200Y-53181250D02*
X78481950Y-53181250D01*
X78481950Y-53181250D02*
X78481950Y-52387500D01*
X68163200Y-42068750D02*
X67369450Y-42068750D01*
X67369450Y-42068750D02*
X67369450Y-42862500D01*
X67369450Y-52387500D02*
X67369450Y-53181250D01*
X67369450Y-53181250D02*
X68163200Y-53181250D01*
X40481300Y-53181250D02*
X39687550Y-53181250D01*
X39687550Y-53181250D02*
X39687550Y-52387500D01*
X40481300Y-42068750D02*
X39687550Y-42068750D01*
X39687550Y-42068750D02*
X39687550Y-42862500D01*
X50006300Y-53181250D02*
X50800050Y-53181250D01*
X50800050Y-53181250D02*
X50800050Y-52387500D01*
X50800050Y-42862500D02*
X50800050Y-42068750D01*
X50800050Y-42068750D02*
X50006300Y-42068750D01*
X66595600Y-30440300D02*
X66595600Y-27900300D01*
X76755600Y-27900300D02*
X76755600Y-30440300D01*
X66595600Y-27900300D02*
X76755600Y-27900300D01*
X66595600Y-30440300D02*
X76755600Y-30440300D01*
X41294800Y-30440300D02*
X41294800Y-27900300D01*
X51454800Y-27900300D02*
X51454800Y-30440300D01*
X41294800Y-27900300D02*
X51454800Y-27900300D01*
X41294800Y-30440300D02*
X51454800Y-30440300D01*
X70213219Y-26522680D02*
X70403695Y-26522680D01*
X70498933Y-26570300D01*
X70594171Y-26665538D01*
X70641790Y-26856014D01*
X70641790Y-27189347D01*
X70594171Y-27379823D01*
X70498933Y-27475061D01*
X70403695Y-27522680D01*
X70213219Y-27522680D01*
X70117980Y-27475061D01*
X70022742Y-27379823D01*
X69975123Y-27189347D01*
X69975123Y-26856014D01*
X70022742Y-26665538D01*
X70117980Y-26570300D01*
X70213219Y-26522680D01*
X71546552Y-27522680D02*
X71070361Y-27522680D01*
X71070361Y-26522680D01*
X71879885Y-26998871D02*
X72213219Y-26998871D01*
X72356076Y-27522680D02*
X71879885Y-27522680D01*
X71879885Y-26522680D01*
X72356076Y-26522680D01*
X72784647Y-27522680D02*
X72784647Y-26522680D01*
X73022742Y-26522680D01*
X73165600Y-26570300D01*
X73260838Y-26665538D01*
X73308457Y-26760776D01*
X73356076Y-26951252D01*
X73356076Y-27094109D01*
X73308457Y-27284585D01*
X73260838Y-27379823D01*
X73165600Y-27475061D01*
X73022742Y-27522680D01*
X72784647Y-27522680D01*
X44912419Y-26522680D02*
X45102895Y-26522680D01*
X45198133Y-26570300D01*
X45293371Y-26665538D01*
X45340990Y-26856014D01*
X45340990Y-27189347D01*
X45293371Y-27379823D01*
X45198133Y-27475061D01*
X45102895Y-27522680D01*
X44912419Y-27522680D01*
X44817180Y-27475061D01*
X44721942Y-27379823D01*
X44674323Y-27189347D01*
X44674323Y-26856014D01*
X44721942Y-26665538D01*
X44817180Y-26570300D01*
X44912419Y-26522680D01*
X46245752Y-27522680D02*
X45769561Y-27522680D01*
X45769561Y-26522680D01*
X46579085Y-26998871D02*
X46912419Y-26998871D01*
X47055276Y-27522680D02*
X46579085Y-27522680D01*
X46579085Y-26522680D01*
X47055276Y-26522680D01*
X47483847Y-27522680D02*
X47483847Y-26522680D01*
X47721942Y-26522680D01*
X47864800Y-26570300D01*
X47960038Y-26665538D01*
X48007657Y-26760776D01*
X48055276Y-26951252D01*
X48055276Y-27094109D01*
X48007657Y-27284585D01*
X47960038Y-27379823D01*
X47864800Y-27475061D01*
X47721942Y-27522680D01*
X47483847Y-27522680D01*
X95726661Y6660119D02*
X95250471Y6660119D01*
X95250471Y7660119D01*
X96059995Y6660119D02*
X96059995Y7326785D01*
X96059995Y7660119D02*
X96012376Y7612500D01*
X96059995Y7564880D01*
X96107614Y7612500D01*
X96059995Y7660119D01*
X96059995Y7564880D01*
X96964757Y7326785D02*
X96964757Y6517261D01*
X96917138Y6422023D01*
X96869519Y6374404D01*
X96774280Y6326785D01*
X96631423Y6326785D01*
X96536185Y6374404D01*
X96964757Y6707738D02*
X96869519Y6660119D01*
X96679042Y6660119D01*
X96583804Y6707738D01*
X96536185Y6755357D01*
X96488566Y6850595D01*
X96488566Y7136309D01*
X96536185Y7231547D01*
X96583804Y7279166D01*
X96679042Y7326785D01*
X96869519Y7326785D01*
X96964757Y7279166D01*
X97440947Y6660119D02*
X97440947Y7660119D01*
X97869519Y6660119D02*
X97869519Y7183928D01*
X97821900Y7279166D01*
X97726661Y7326785D01*
X97583804Y7326785D01*
X97488566Y7279166D01*
X97440947Y7231547D01*
X98202852Y7326785D02*
X98583804Y7326785D01*
X98345709Y7660119D02*
X98345709Y6802976D01*
X98393328Y6707738D01*
X98488566Y6660119D01*
X98583804Y6660119D01*
X99631423Y6707738D02*
X99774280Y6660119D01*
X100012376Y6660119D01*
X100107614Y6707738D01*
X100155233Y6755357D01*
X100202852Y6850595D01*
X100202852Y6945833D01*
X100155233Y7041071D01*
X100107614Y7088690D01*
X100012376Y7136309D01*
X99821900Y7183928D01*
X99726661Y7231547D01*
X99679042Y7279166D01*
X99631423Y7374404D01*
X99631423Y7469642D01*
X99679042Y7564880D01*
X99726661Y7612500D01*
X99821900Y7660119D01*
X100059995Y7660119D01*
X100202852Y7612500D01*
X100631423Y6660119D02*
X100631423Y7326785D01*
X100631423Y7660119D02*
X100583804Y7612500D01*
X100631423Y7564880D01*
X100679042Y7612500D01*
X100631423Y7660119D01*
X100631423Y7564880D01*
X101536185Y6660119D02*
X101536185Y7660119D01*
X101536185Y6707738D02*
X101440947Y6660119D01*
X101250471Y6660119D01*
X101155233Y6707738D01*
X101107614Y6755357D01*
X101059995Y6850595D01*
X101059995Y7136309D01*
X101107614Y7231547D01*
X101155233Y7279166D01*
X101250471Y7326785D01*
X101440947Y7326785D01*
X101536185Y7279166D01*
X102393328Y6707738D02*
X102298090Y6660119D01*
X102107614Y6660119D01*
X102012376Y6707738D01*
X101964757Y6802976D01*
X101964757Y7183928D01*
X102012376Y7279166D01*
X102107614Y7326785D01*
X102298090Y7326785D01*
X102393328Y7279166D01*
X102440947Y7183928D01*
X102440947Y7088690D01*
X101964757Y6993452D01*
X95726661Y-12389880D02*
X95250471Y-12389880D01*
X95250471Y-11389880D01*
X96059995Y-12389880D02*
X96059995Y-11723214D01*
X96059995Y-11389880D02*
X96012376Y-11437500D01*
X96059995Y-11485119D01*
X96107614Y-11437500D01*
X96059995Y-11389880D01*
X96059995Y-11485119D01*
X96964757Y-11723214D02*
X96964757Y-12532738D01*
X96917138Y-12627976D01*
X96869519Y-12675595D01*
X96774280Y-12723214D01*
X96631423Y-12723214D01*
X96536185Y-12675595D01*
X96964757Y-12342261D02*
X96869519Y-12389880D01*
X96679042Y-12389880D01*
X96583804Y-12342261D01*
X96536185Y-12294642D01*
X96488566Y-12199404D01*
X96488566Y-11913690D01*
X96536185Y-11818452D01*
X96583804Y-11770833D01*
X96679042Y-11723214D01*
X96869519Y-11723214D01*
X96964757Y-11770833D01*
X97440947Y-12389880D02*
X97440947Y-11389880D01*
X97869519Y-12389880D02*
X97869519Y-11866071D01*
X97821900Y-11770833D01*
X97726661Y-11723214D01*
X97583804Y-11723214D01*
X97488566Y-11770833D01*
X97440947Y-11818452D01*
X98202852Y-11723214D02*
X98583804Y-11723214D01*
X98345709Y-11389880D02*
X98345709Y-12247023D01*
X98393328Y-12342261D01*
X98488566Y-12389880D01*
X98583804Y-12389880D01*
X99631423Y-12342261D02*
X99774280Y-12389880D01*
X100012376Y-12389880D01*
X100107614Y-12342261D01*
X100155233Y-12294642D01*
X100202852Y-12199404D01*
X100202852Y-12104166D01*
X100155233Y-12008928D01*
X100107614Y-11961309D01*
X100012376Y-11913690D01*
X99821900Y-11866071D01*
X99726661Y-11818452D01*
X99679042Y-11770833D01*
X99631423Y-11675595D01*
X99631423Y-11580357D01*
X99679042Y-11485119D01*
X99726661Y-11437500D01*
X99821900Y-11389880D01*
X100059995Y-11389880D01*
X100202852Y-11437500D01*
X100631423Y-12389880D02*
X100631423Y-11723214D01*
X100631423Y-11389880D02*
X100583804Y-11437500D01*
X100631423Y-11485119D01*
X100679042Y-11437500D01*
X100631423Y-11389880D01*
X100631423Y-11485119D01*
X101536185Y-12389880D02*
X101536185Y-11389880D01*
X101536185Y-12342261D02*
X101440947Y-12389880D01*
X101250471Y-12389880D01*
X101155233Y-12342261D01*
X101107614Y-12294642D01*
X101059995Y-12199404D01*
X101059995Y-11913690D01*
X101107614Y-11818452D01*
X101155233Y-11770833D01*
X101250471Y-11723214D01*
X101440947Y-11723214D01*
X101536185Y-11770833D01*
X102393328Y-12342261D02*
X102298090Y-12389880D01*
X102107614Y-12389880D01*
X102012376Y-12342261D01*
X101964757Y-12247023D01*
X101964757Y-11866071D01*
X102012376Y-11770833D01*
X102107614Y-11723214D01*
X102298090Y-11723214D01*
X102393328Y-11770833D01*
X102440947Y-11866071D01*
X102440947Y-11961309D01*
X101964757Y-12056547D01*
X95726661Y-31439880D02*
X95250471Y-31439880D01*
X95250471Y-30439880D01*
X96059995Y-31439880D02*
X96059995Y-30773214D01*
X96059995Y-30439880D02*
X96012376Y-30487500D01*
X96059995Y-30535119D01*
X96107614Y-30487500D01*
X96059995Y-30439880D01*
X96059995Y-30535119D01*
X96964757Y-30773214D02*
X96964757Y-31582738D01*
X96917138Y-31677976D01*
X96869519Y-31725595D01*
X96774280Y-31773214D01*
X96631423Y-31773214D01*
X96536185Y-31725595D01*
X96964757Y-31392261D02*
X96869519Y-31439880D01*
X96679042Y-31439880D01*
X96583804Y-31392261D01*
X96536185Y-31344642D01*
X96488566Y-31249404D01*
X96488566Y-30963690D01*
X96536185Y-30868452D01*
X96583804Y-30820833D01*
X96679042Y-30773214D01*
X96869519Y-30773214D01*
X96964757Y-30820833D01*
X97440947Y-31439880D02*
X97440947Y-30439880D01*
X97869519Y-31439880D02*
X97869519Y-30916071D01*
X97821900Y-30820833D01*
X97726661Y-30773214D01*
X97583804Y-30773214D01*
X97488566Y-30820833D01*
X97440947Y-30868452D01*
X98202852Y-30773214D02*
X98583804Y-30773214D01*
X98345709Y-30439880D02*
X98345709Y-31297023D01*
X98393328Y-31392261D01*
X98488566Y-31439880D01*
X98583804Y-31439880D01*
X99631423Y-31392261D02*
X99774280Y-31439880D01*
X100012376Y-31439880D01*
X100107614Y-31392261D01*
X100155233Y-31344642D01*
X100202852Y-31249404D01*
X100202852Y-31154166D01*
X100155233Y-31058928D01*
X100107614Y-31011309D01*
X100012376Y-30963690D01*
X99821900Y-30916071D01*
X99726661Y-30868452D01*
X99679042Y-30820833D01*
X99631423Y-30725595D01*
X99631423Y-30630357D01*
X99679042Y-30535119D01*
X99726661Y-30487500D01*
X99821900Y-30439880D01*
X100059995Y-30439880D01*
X100202852Y-30487500D01*
X100631423Y-31439880D02*
X100631423Y-30773214D01*
X100631423Y-30439880D02*
X100583804Y-30487500D01*
X100631423Y-30535119D01*
X100679042Y-30487500D01*
X100631423Y-30439880D01*
X100631423Y-30535119D01*
X101536185Y-31439880D02*
X101536185Y-30439880D01*
X101536185Y-31392261D02*
X101440947Y-31439880D01*
X101250471Y-31439880D01*
X101155233Y-31392261D01*
X101107614Y-31344642D01*
X101059995Y-31249404D01*
X101059995Y-30963690D01*
X101107614Y-30868452D01*
X101155233Y-30820833D01*
X101250471Y-30773214D01*
X101440947Y-30773214D01*
X101536185Y-30820833D01*
X102393328Y-31392261D02*
X102298090Y-31439880D01*
X102107614Y-31439880D01*
X102012376Y-31392261D01*
X101964757Y-31297023D01*
X101964757Y-30916071D01*
X102012376Y-30820833D01*
X102107614Y-30773214D01*
X102298090Y-30773214D01*
X102393328Y-30820833D01*
X102440947Y-30916071D01*
X102440947Y-31011309D01*
X101964757Y-31106547D01*
X95726661Y-50489880D02*
X95250471Y-50489880D01*
X95250471Y-49489880D01*
X96059995Y-50489880D02*
X96059995Y-49823214D01*
X96059995Y-49489880D02*
X96012376Y-49537500D01*
X96059995Y-49585119D01*
X96107614Y-49537500D01*
X96059995Y-49489880D01*
X96059995Y-49585119D01*
X96964757Y-49823214D02*
X96964757Y-50632738D01*
X96917138Y-50727976D01*
X96869519Y-50775595D01*
X96774280Y-50823214D01*
X96631423Y-50823214D01*
X96536185Y-50775595D01*
X96964757Y-50442261D02*
X96869519Y-50489880D01*
X96679042Y-50489880D01*
X96583804Y-50442261D01*
X96536185Y-50394642D01*
X96488566Y-50299404D01*
X96488566Y-50013690D01*
X96536185Y-49918452D01*
X96583804Y-49870833D01*
X96679042Y-49823214D01*
X96869519Y-49823214D01*
X96964757Y-49870833D01*
X97440947Y-50489880D02*
X97440947Y-49489880D01*
X97869519Y-50489880D02*
X97869519Y-49966071D01*
X97821900Y-49870833D01*
X97726661Y-49823214D01*
X97583804Y-49823214D01*
X97488566Y-49870833D01*
X97440947Y-49918452D01*
X98202852Y-49823214D02*
X98583804Y-49823214D01*
X98345709Y-49489880D02*
X98345709Y-50347023D01*
X98393328Y-50442261D01*
X98488566Y-50489880D01*
X98583804Y-50489880D01*
X99631423Y-50442261D02*
X99774280Y-50489880D01*
X100012376Y-50489880D01*
X100107614Y-50442261D01*
X100155233Y-50394642D01*
X100202852Y-50299404D01*
X100202852Y-50204166D01*
X100155233Y-50108928D01*
X100107614Y-50061309D01*
X100012376Y-50013690D01*
X99821900Y-49966071D01*
X99726661Y-49918452D01*
X99679042Y-49870833D01*
X99631423Y-49775595D01*
X99631423Y-49680357D01*
X99679042Y-49585119D01*
X99726661Y-49537500D01*
X99821900Y-49489880D01*
X100059995Y-49489880D01*
X100202852Y-49537500D01*
X100631423Y-50489880D02*
X100631423Y-49823214D01*
X100631423Y-49489880D02*
X100583804Y-49537500D01*
X100631423Y-49585119D01*
X100679042Y-49537500D01*
X100631423Y-49489880D01*
X100631423Y-49585119D01*
X101536185Y-50489880D02*
X101536185Y-49489880D01*
X101536185Y-50442261D02*
X101440947Y-50489880D01*
X101250471Y-50489880D01*
X101155233Y-50442261D01*
X101107614Y-50394642D01*
X101059995Y-50299404D01*
X101059995Y-50013690D01*
X101107614Y-49918452D01*
X101155233Y-49870833D01*
X101250471Y-49823214D01*
X101440947Y-49823214D01*
X101536185Y-49870833D01*
X102393328Y-50442261D02*
X102298090Y-50489880D01*
X102107614Y-50489880D01*
X102012376Y-50442261D01*
X101964757Y-50347023D01*
X101964757Y-49966071D01*
X102012376Y-49870833D01*
X102107614Y-49823214D01*
X102298090Y-49823214D01*
X102393328Y-49870833D01*
X102440947Y-49966071D01*
X102440947Y-50061309D01*
X101964757Y-50156547D01*
X114776761Y-50489880D02*
X114300571Y-50489880D01*
X114300571Y-49489880D01*
X115110095Y-50489880D02*
X115110095Y-49823214D01*
X115110095Y-49489880D02*
X115062476Y-49537500D01*
X115110095Y-49585119D01*
X115157714Y-49537500D01*
X115110095Y-49489880D01*
X115110095Y-49585119D01*
X116014857Y-49823214D02*
X116014857Y-50632738D01*
X115967238Y-50727976D01*
X115919619Y-50775595D01*
X115824380Y-50823214D01*
X115681523Y-50823214D01*
X115586285Y-50775595D01*
X116014857Y-50442261D02*
X115919619Y-50489880D01*
X115729142Y-50489880D01*
X115633904Y-50442261D01*
X115586285Y-50394642D01*
X115538666Y-50299404D01*
X115538666Y-50013690D01*
X115586285Y-49918452D01*
X115633904Y-49870833D01*
X115729142Y-49823214D01*
X115919619Y-49823214D01*
X116014857Y-49870833D01*
X116491047Y-50489880D02*
X116491047Y-49489880D01*
X116919619Y-50489880D02*
X116919619Y-49966071D01*
X116872000Y-49870833D01*
X116776761Y-49823214D01*
X116633904Y-49823214D01*
X116538666Y-49870833D01*
X116491047Y-49918452D01*
X117252952Y-49823214D02*
X117633904Y-49823214D01*
X117395809Y-49489880D02*
X117395809Y-50347023D01*
X117443428Y-50442261D01*
X117538666Y-50489880D01*
X117633904Y-50489880D01*
X118681523Y-50442261D02*
X118824380Y-50489880D01*
X119062476Y-50489880D01*
X119157714Y-50442261D01*
X119205333Y-50394642D01*
X119252952Y-50299404D01*
X119252952Y-50204166D01*
X119205333Y-50108928D01*
X119157714Y-50061309D01*
X119062476Y-50013690D01*
X118872000Y-49966071D01*
X118776761Y-49918452D01*
X118729142Y-49870833D01*
X118681523Y-49775595D01*
X118681523Y-49680357D01*
X118729142Y-49585119D01*
X118776761Y-49537500D01*
X118872000Y-49489880D01*
X119110095Y-49489880D01*
X119252952Y-49537500D01*
X119681523Y-50489880D02*
X119681523Y-49823214D01*
X119681523Y-49489880D02*
X119633904Y-49537500D01*
X119681523Y-49585119D01*
X119729142Y-49537500D01*
X119681523Y-49489880D01*
X119681523Y-49585119D01*
X120586285Y-50489880D02*
X120586285Y-49489880D01*
X120586285Y-50442261D02*
X120491047Y-50489880D01*
X120300571Y-50489880D01*
X120205333Y-50442261D01*
X120157714Y-50394642D01*
X120110095Y-50299404D01*
X120110095Y-50013690D01*
X120157714Y-49918452D01*
X120205333Y-49870833D01*
X120300571Y-49823214D01*
X120491047Y-49823214D01*
X120586285Y-49870833D01*
X121443428Y-50442261D02*
X121348190Y-50489880D01*
X121157714Y-50489880D01*
X121062476Y-50442261D01*
X121014857Y-50347023D01*
X121014857Y-49966071D01*
X121062476Y-49870833D01*
X121157714Y-49823214D01*
X121348190Y-49823214D01*
X121443428Y-49870833D01*
X121491047Y-49966071D01*
X121491047Y-50061309D01*
X121014857Y-50156547D01*
X114776761Y-31439880D02*
X114300571Y-31439880D01*
X114300571Y-30439880D01*
X115110095Y-31439880D02*
X115110095Y-30773214D01*
X115110095Y-30439880D02*
X115062476Y-30487500D01*
X115110095Y-30535119D01*
X115157714Y-30487500D01*
X115110095Y-30439880D01*
X115110095Y-30535119D01*
X116014857Y-30773214D02*
X116014857Y-31582738D01*
X115967238Y-31677976D01*
X115919619Y-31725595D01*
X115824380Y-31773214D01*
X115681523Y-31773214D01*
X115586285Y-31725595D01*
X116014857Y-31392261D02*
X115919619Y-31439880D01*
X115729142Y-31439880D01*
X115633904Y-31392261D01*
X115586285Y-31344642D01*
X115538666Y-31249404D01*
X115538666Y-30963690D01*
X115586285Y-30868452D01*
X115633904Y-30820833D01*
X115729142Y-30773214D01*
X115919619Y-30773214D01*
X116014857Y-30820833D01*
X116491047Y-31439880D02*
X116491047Y-30439880D01*
X116919619Y-31439880D02*
X116919619Y-30916071D01*
X116872000Y-30820833D01*
X116776761Y-30773214D01*
X116633904Y-30773214D01*
X116538666Y-30820833D01*
X116491047Y-30868452D01*
X117252952Y-30773214D02*
X117633904Y-30773214D01*
X117395809Y-30439880D02*
X117395809Y-31297023D01*
X117443428Y-31392261D01*
X117538666Y-31439880D01*
X117633904Y-31439880D01*
X118681523Y-31392261D02*
X118824380Y-31439880D01*
X119062476Y-31439880D01*
X119157714Y-31392261D01*
X119205333Y-31344642D01*
X119252952Y-31249404D01*
X119252952Y-31154166D01*
X119205333Y-31058928D01*
X119157714Y-31011309D01*
X119062476Y-30963690D01*
X118872000Y-30916071D01*
X118776761Y-30868452D01*
X118729142Y-30820833D01*
X118681523Y-30725595D01*
X118681523Y-30630357D01*
X118729142Y-30535119D01*
X118776761Y-30487500D01*
X118872000Y-30439880D01*
X119110095Y-30439880D01*
X119252952Y-30487500D01*
X119681523Y-31439880D02*
X119681523Y-30773214D01*
X119681523Y-30439880D02*
X119633904Y-30487500D01*
X119681523Y-30535119D01*
X119729142Y-30487500D01*
X119681523Y-30439880D01*
X119681523Y-30535119D01*
X120586285Y-31439880D02*
X120586285Y-30439880D01*
X120586285Y-31392261D02*
X120491047Y-31439880D01*
X120300571Y-31439880D01*
X120205333Y-31392261D01*
X120157714Y-31344642D01*
X120110095Y-31249404D01*
X120110095Y-30963690D01*
X120157714Y-30868452D01*
X120205333Y-30820833D01*
X120300571Y-30773214D01*
X120491047Y-30773214D01*
X120586285Y-30820833D01*
X121443428Y-31392261D02*
X121348190Y-31439880D01*
X121157714Y-31439880D01*
X121062476Y-31392261D01*
X121014857Y-31297023D01*
X121014857Y-30916071D01*
X121062476Y-30820833D01*
X121157714Y-30773214D01*
X121348190Y-30773214D01*
X121443428Y-30820833D01*
X121491047Y-30916071D01*
X121491047Y-31011309D01*
X121014857Y-31106547D01*
X114776761Y-12389880D02*
X114300571Y-12389880D01*
X114300571Y-11389880D01*
X115110095Y-12389880D02*
X115110095Y-11723214D01*
X115110095Y-11389880D02*
X115062476Y-11437500D01*
X115110095Y-11485119D01*
X115157714Y-11437500D01*
X115110095Y-11389880D01*
X115110095Y-11485119D01*
X116014857Y-11723214D02*
X116014857Y-12532738D01*
X115967238Y-12627976D01*
X115919619Y-12675595D01*
X115824380Y-12723214D01*
X115681523Y-12723214D01*
X115586285Y-12675595D01*
X116014857Y-12342261D02*
X115919619Y-12389880D01*
X115729142Y-12389880D01*
X115633904Y-12342261D01*
X115586285Y-12294642D01*
X115538666Y-12199404D01*
X115538666Y-11913690D01*
X115586285Y-11818452D01*
X115633904Y-11770833D01*
X115729142Y-11723214D01*
X115919619Y-11723214D01*
X116014857Y-11770833D01*
X116491047Y-12389880D02*
X116491047Y-11389880D01*
X116919619Y-12389880D02*
X116919619Y-11866071D01*
X116872000Y-11770833D01*
X116776761Y-11723214D01*
X116633904Y-11723214D01*
X116538666Y-11770833D01*
X116491047Y-11818452D01*
X117252952Y-11723214D02*
X117633904Y-11723214D01*
X117395809Y-11389880D02*
X117395809Y-12247023D01*
X117443428Y-12342261D01*
X117538666Y-12389880D01*
X117633904Y-12389880D01*
X118681523Y-12342261D02*
X118824380Y-12389880D01*
X119062476Y-12389880D01*
X119157714Y-12342261D01*
X119205333Y-12294642D01*
X119252952Y-12199404D01*
X119252952Y-12104166D01*
X119205333Y-12008928D01*
X119157714Y-11961309D01*
X119062476Y-11913690D01*
X118872000Y-11866071D01*
X118776761Y-11818452D01*
X118729142Y-11770833D01*
X118681523Y-11675595D01*
X118681523Y-11580357D01*
X118729142Y-11485119D01*
X118776761Y-11437500D01*
X118872000Y-11389880D01*
X119110095Y-11389880D01*
X119252952Y-11437500D01*
X119681523Y-12389880D02*
X119681523Y-11723214D01*
X119681523Y-11389880D02*
X119633904Y-11437500D01*
X119681523Y-11485119D01*
X119729142Y-11437500D01*
X119681523Y-11389880D01*
X119681523Y-11485119D01*
X120586285Y-12389880D02*
X120586285Y-11389880D01*
X120586285Y-12342261D02*
X120491047Y-12389880D01*
X120300571Y-12389880D01*
X120205333Y-12342261D01*
X120157714Y-12294642D01*
X120110095Y-12199404D01*
X120110095Y-11913690D01*
X120157714Y-11818452D01*
X120205333Y-11770833D01*
X120300571Y-11723214D01*
X120491047Y-11723214D01*
X120586285Y-11770833D01*
X121443428Y-12342261D02*
X121348190Y-12389880D01*
X121157714Y-12389880D01*
X121062476Y-12342261D01*
X121014857Y-12247023D01*
X121014857Y-11866071D01*
X121062476Y-11770833D01*
X121157714Y-11723214D01*
X121348190Y-11723214D01*
X121443428Y-11770833D01*
X121491047Y-11866071D01*
X121491047Y-11961309D01*
X121014857Y-12056547D01*
X114776761Y6660119D02*
X114300571Y6660119D01*
X114300571Y7660119D01*
X115110095Y6660119D02*
X115110095Y7326785D01*
X115110095Y7660119D02*
X115062476Y7612500D01*
X115110095Y7564880D01*
X115157714Y7612500D01*
X115110095Y7660119D01*
X115110095Y7564880D01*
X116014857Y7326785D02*
X116014857Y6517261D01*
X115967238Y6422023D01*
X115919619Y6374404D01*
X115824380Y6326785D01*
X115681523Y6326785D01*
X115586285Y6374404D01*
X116014857Y6707738D02*
X115919619Y6660119D01*
X115729142Y6660119D01*
X115633904Y6707738D01*
X115586285Y6755357D01*
X115538666Y6850595D01*
X115538666Y7136309D01*
X115586285Y7231547D01*
X115633904Y7279166D01*
X115729142Y7326785D01*
X115919619Y7326785D01*
X116014857Y7279166D01*
X116491047Y6660119D02*
X116491047Y7660119D01*
X116919619Y6660119D02*
X116919619Y7183928D01*
X116872000Y7279166D01*
X116776761Y7326785D01*
X116633904Y7326785D01*
X116538666Y7279166D01*
X116491047Y7231547D01*
X117252952Y7326785D02*
X117633904Y7326785D01*
X117395809Y7660119D02*
X117395809Y6802976D01*
X117443428Y6707738D01*
X117538666Y6660119D01*
X117633904Y6660119D01*
X118681523Y6707738D02*
X118824380Y6660119D01*
X119062476Y6660119D01*
X119157714Y6707738D01*
X119205333Y6755357D01*
X119252952Y6850595D01*
X119252952Y6945833D01*
X119205333Y7041071D01*
X119157714Y7088690D01*
X119062476Y7136309D01*
X118872000Y7183928D01*
X118776761Y7231547D01*
X118729142Y7279166D01*
X118681523Y7374404D01*
X118681523Y7469642D01*
X118729142Y7564880D01*
X118776761Y7612500D01*
X118872000Y7660119D01*
X119110095Y7660119D01*
X119252952Y7612500D01*
X119681523Y6660119D02*
X119681523Y7326785D01*
X119681523Y7660119D02*
X119633904Y7612500D01*
X119681523Y7564880D01*
X119729142Y7612500D01*
X119681523Y7660119D01*
X119681523Y7564880D01*
X120586285Y6660119D02*
X120586285Y7660119D01*
X120586285Y6707738D02*
X120491047Y6660119D01*
X120300571Y6660119D01*
X120205333Y6707738D01*
X120157714Y6755357D01*
X120110095Y6850595D01*
X120110095Y7136309D01*
X120157714Y7231547D01*
X120205333Y7279166D01*
X120300571Y7326785D01*
X120491047Y7326785D01*
X120586285Y7279166D01*
X121443428Y6707738D02*
X121348190Y6660119D01*
X121157714Y6660119D01*
X121062476Y6707738D01*
X121014857Y6802976D01*
X121014857Y7183928D01*
X121062476Y7279166D01*
X121157714Y7326785D01*
X121348190Y7326785D01*
X121443428Y7279166D01*
X121491047Y7183928D01*
X121491047Y7088690D01*
X121014857Y6993452D01*
X-3095238Y6660119D02*
X-3571428Y6660119D01*
X-3571428Y7660119D01*
X-2761904Y6660119D02*
X-2761904Y7326785D01*
X-2761904Y7660119D02*
X-2809523Y7612500D01*
X-2761904Y7564880D01*
X-2714285Y7612500D01*
X-2761904Y7660119D01*
X-2761904Y7564880D01*
X-1857142Y7326785D02*
X-1857142Y6517261D01*
X-1904761Y6422023D01*
X-1952380Y6374404D01*
X-2047619Y6326785D01*
X-2190476Y6326785D01*
X-2285714Y6374404D01*
X-1857142Y6707738D02*
X-1952380Y6660119D01*
X-2142857Y6660119D01*
X-2238095Y6707738D01*
X-2285714Y6755357D01*
X-2333333Y6850595D01*
X-2333333Y7136309D01*
X-2285714Y7231547D01*
X-2238095Y7279166D01*
X-2142857Y7326785D01*
X-1952380Y7326785D01*
X-1857142Y7279166D01*
X-1380952Y6660119D02*
X-1380952Y7660119D01*
X-952380Y6660119D02*
X-952380Y7183928D01*
X-999999Y7279166D01*
X-1095238Y7326785D01*
X-1238095Y7326785D01*
X-1333333Y7279166D01*
X-1380952Y7231547D01*
X-619047Y7326785D02*
X-238095Y7326785D01*
X-476190Y7660119D02*
X-476190Y6802976D01*
X-428571Y6707738D01*
X-333333Y6660119D01*
X-238095Y6660119D01*
X809523Y6707738D02*
X952380Y6660119D01*
X1190476Y6660119D01*
X1285714Y6707738D01*
X1333333Y6755357D01*
X1380952Y6850595D01*
X1380952Y6945833D01*
X1333333Y7041071D01*
X1285714Y7088690D01*
X1190476Y7136309D01*
X1000000Y7183928D01*
X904761Y7231547D01*
X857142Y7279166D01*
X809523Y7374404D01*
X809523Y7469642D01*
X857142Y7564880D01*
X904761Y7612500D01*
X1000000Y7660119D01*
X1238095Y7660119D01*
X1380952Y7612500D01*
X1809523Y6660119D02*
X1809523Y7326785D01*
X1809523Y7660119D02*
X1761904Y7612500D01*
X1809523Y7564880D01*
X1857142Y7612500D01*
X1809523Y7660119D01*
X1809523Y7564880D01*
X2714285Y6660119D02*
X2714285Y7660119D01*
X2714285Y6707738D02*
X2619047Y6660119D01*
X2428571Y6660119D01*
X2333333Y6707738D01*
X2285714Y6755357D01*
X2238095Y6850595D01*
X2238095Y7136309D01*
X2285714Y7231547D01*
X2333333Y7279166D01*
X2428571Y7326785D01*
X2619047Y7326785D01*
X2714285Y7279166D01*
X3571428Y6707738D02*
X3476190Y6660119D01*
X3285714Y6660119D01*
X3190476Y6707738D01*
X3142857Y6802976D01*
X3142857Y7183928D01*
X3190476Y7279166D01*
X3285714Y7326785D01*
X3476190Y7326785D01*
X3571428Y7279166D01*
X3619047Y7183928D01*
X3619047Y7088690D01*
X3142857Y6993452D01*
X-3095238Y-12389880D02*
X-3571428Y-12389880D01*
X-3571428Y-11389880D01*
X-2761904Y-12389880D02*
X-2761904Y-11723214D01*
X-2761904Y-11389880D02*
X-2809523Y-11437500D01*
X-2761904Y-11485119D01*
X-2714285Y-11437500D01*
X-2761904Y-11389880D01*
X-2761904Y-11485119D01*
X-1857142Y-11723214D02*
X-1857142Y-12532738D01*
X-1904761Y-12627976D01*
X-1952380Y-12675595D01*
X-2047619Y-12723214D01*
X-2190476Y-12723214D01*
X-2285714Y-12675595D01*
X-1857142Y-12342261D02*
X-1952380Y-12389880D01*
X-2142857Y-12389880D01*
X-2238095Y-12342261D01*
X-2285714Y-12294642D01*
X-2333333Y-12199404D01*
X-2333333Y-11913690D01*
X-2285714Y-11818452D01*
X-2238095Y-11770833D01*
X-2142857Y-11723214D01*
X-1952380Y-11723214D01*
X-1857142Y-11770833D01*
X-1380952Y-12389880D02*
X-1380952Y-11389880D01*
X-952380Y-12389880D02*
X-952380Y-11866071D01*
X-999999Y-11770833D01*
X-1095238Y-11723214D01*
X-1238095Y-11723214D01*
X-1333333Y-11770833D01*
X-1380952Y-11818452D01*
X-619047Y-11723214D02*
X-238095Y-11723214D01*
X-476190Y-11389880D02*
X-476190Y-12247023D01*
X-428571Y-12342261D01*
X-333333Y-12389880D01*
X-238095Y-12389880D01*
X809523Y-12342261D02*
X952380Y-12389880D01*
X1190476Y-12389880D01*
X1285714Y-12342261D01*
X1333333Y-12294642D01*
X1380952Y-12199404D01*
X1380952Y-12104166D01*
X1333333Y-12008928D01*
X1285714Y-11961309D01*
X1190476Y-11913690D01*
X1000000Y-11866071D01*
X904761Y-11818452D01*
X857142Y-11770833D01*
X809523Y-11675595D01*
X809523Y-11580357D01*
X857142Y-11485119D01*
X904761Y-11437500D01*
X1000000Y-11389880D01*
X1238095Y-11389880D01*
X1380952Y-11437500D01*
X1809523Y-12389880D02*
X1809523Y-11723214D01*
X1809523Y-11389880D02*
X1761904Y-11437500D01*
X1809523Y-11485119D01*
X1857142Y-11437500D01*
X1809523Y-11389880D01*
X1809523Y-11485119D01*
X2714285Y-12389880D02*
X2714285Y-11389880D01*
X2714285Y-12342261D02*
X2619047Y-12389880D01*
X2428571Y-12389880D01*
X2333333Y-12342261D01*
X2285714Y-12294642D01*
X2238095Y-12199404D01*
X2238095Y-11913690D01*
X2285714Y-11818452D01*
X2333333Y-11770833D01*
X2428571Y-11723214D01*
X2619047Y-11723214D01*
X2714285Y-11770833D01*
X3571428Y-12342261D02*
X3476190Y-12389880D01*
X3285714Y-12389880D01*
X3190476Y-12342261D01*
X3142857Y-12247023D01*
X3142857Y-11866071D01*
X3190476Y-11770833D01*
X3285714Y-11723214D01*
X3476190Y-11723214D01*
X3571428Y-11770833D01*
X3619047Y-11866071D01*
X3619047Y-11961309D01*
X3142857Y-12056547D01*
X-3095238Y-31439880D02*
X-3571428Y-31439880D01*
X-3571428Y-30439880D01*
X-2761904Y-31439880D02*
X-2761904Y-30773214D01*
X-2761904Y-30439880D02*
X-2809523Y-30487500D01*
X-2761904Y-30535119D01*
X-2714285Y-30487500D01*
X-2761904Y-30439880D01*
X-2761904Y-30535119D01*
X-1857142Y-30773214D02*
X-1857142Y-31582738D01*
X-1904761Y-31677976D01*
X-1952380Y-31725595D01*
X-2047619Y-31773214D01*
X-2190476Y-31773214D01*
X-2285714Y-31725595D01*
X-1857142Y-31392261D02*
X-1952380Y-31439880D01*
X-2142857Y-31439880D01*
X-2238095Y-31392261D01*
X-2285714Y-31344642D01*
X-2333333Y-31249404D01*
X-2333333Y-30963690D01*
X-2285714Y-30868452D01*
X-2238095Y-30820833D01*
X-2142857Y-30773214D01*
X-1952380Y-30773214D01*
X-1857142Y-30820833D01*
X-1380952Y-31439880D02*
X-1380952Y-30439880D01*
X-952380Y-31439880D02*
X-952380Y-30916071D01*
X-999999Y-30820833D01*
X-1095238Y-30773214D01*
X-1238095Y-30773214D01*
X-1333333Y-30820833D01*
X-1380952Y-30868452D01*
X-619047Y-30773214D02*
X-238095Y-30773214D01*
X-476190Y-30439880D02*
X-476190Y-31297023D01*
X-428571Y-31392261D01*
X-333333Y-31439880D01*
X-238095Y-31439880D01*
X809523Y-31392261D02*
X952380Y-31439880D01*
X1190476Y-31439880D01*
X1285714Y-31392261D01*
X1333333Y-31344642D01*
X1380952Y-31249404D01*
X1380952Y-31154166D01*
X1333333Y-31058928D01*
X1285714Y-31011309D01*
X1190476Y-30963690D01*
X1000000Y-30916071D01*
X904761Y-30868452D01*
X857142Y-30820833D01*
X809523Y-30725595D01*
X809523Y-30630357D01*
X857142Y-30535119D01*
X904761Y-30487500D01*
X1000000Y-30439880D01*
X1238095Y-30439880D01*
X1380952Y-30487500D01*
X1809523Y-31439880D02*
X1809523Y-30773214D01*
X1809523Y-30439880D02*
X1761904Y-30487500D01*
X1809523Y-30535119D01*
X1857142Y-30487500D01*
X1809523Y-30439880D01*
X1809523Y-30535119D01*
X2714285Y-31439880D02*
X2714285Y-30439880D01*
X2714285Y-31392261D02*
X2619047Y-31439880D01*
X2428571Y-31439880D01*
X2333333Y-31392261D01*
X2285714Y-31344642D01*
X2238095Y-31249404D01*
X2238095Y-30963690D01*
X2285714Y-30868452D01*
X2333333Y-30820833D01*
X2428571Y-30773214D01*
X2619047Y-30773214D01*
X2714285Y-30820833D01*
X3571428Y-31392261D02*
X3476190Y-31439880D01*
X3285714Y-31439880D01*
X3190476Y-31392261D01*
X3142857Y-31297023D01*
X3142857Y-30916071D01*
X3190476Y-30820833D01*
X3285714Y-30773214D01*
X3476190Y-30773214D01*
X3571428Y-30820833D01*
X3619047Y-30916071D01*
X3619047Y-31011309D01*
X3142857Y-31106547D01*
X-3095238Y-50489880D02*
X-3571428Y-50489880D01*
X-3571428Y-49489880D01*
X-2761904Y-50489880D02*
X-2761904Y-49823214D01*
X-2761904Y-49489880D02*
X-2809523Y-49537500D01*
X-2761904Y-49585119D01*
X-2714285Y-49537500D01*
X-2761904Y-49489880D01*
X-2761904Y-49585119D01*
X-1857142Y-49823214D02*
X-1857142Y-50632738D01*
X-1904761Y-50727976D01*
X-1952380Y-50775595D01*
X-2047619Y-50823214D01*
X-2190476Y-50823214D01*
X-2285714Y-50775595D01*
X-1857142Y-50442261D02*
X-1952380Y-50489880D01*
X-2142857Y-50489880D01*
X-2238095Y-50442261D01*
X-2285714Y-50394642D01*
X-2333333Y-50299404D01*
X-2333333Y-50013690D01*
X-2285714Y-49918452D01*
X-2238095Y-49870833D01*
X-2142857Y-49823214D01*
X-1952380Y-49823214D01*
X-1857142Y-49870833D01*
X-1380952Y-50489880D02*
X-1380952Y-49489880D01*
X-952380Y-50489880D02*
X-952380Y-49966071D01*
X-999999Y-49870833D01*
X-1095238Y-49823214D01*
X-1238095Y-49823214D01*
X-1333333Y-49870833D01*
X-1380952Y-49918452D01*
X-619047Y-49823214D02*
X-238095Y-49823214D01*
X-476190Y-49489880D02*
X-476190Y-50347023D01*
X-428571Y-50442261D01*
X-333333Y-50489880D01*
X-238095Y-50489880D01*
X809523Y-50442261D02*
X952380Y-50489880D01*
X1190476Y-50489880D01*
X1285714Y-50442261D01*
X1333333Y-50394642D01*
X1380952Y-50299404D01*
X1380952Y-50204166D01*
X1333333Y-50108928D01*
X1285714Y-50061309D01*
X1190476Y-50013690D01*
X1000000Y-49966071D01*
X904761Y-49918452D01*
X857142Y-49870833D01*
X809523Y-49775595D01*
X809523Y-49680357D01*
X857142Y-49585119D01*
X904761Y-49537500D01*
X1000000Y-49489880D01*
X1238095Y-49489880D01*
X1380952Y-49537500D01*
X1809523Y-50489880D02*
X1809523Y-49823214D01*
X1809523Y-49489880D02*
X1761904Y-49537500D01*
X1809523Y-49585119D01*
X1857142Y-49537500D01*
X1809523Y-49489880D01*
X1809523Y-49585119D01*
X2714285Y-50489880D02*
X2714285Y-49489880D01*
X2714285Y-50442261D02*
X2619047Y-50489880D01*
X2428571Y-50489880D01*
X2333333Y-50442261D01*
X2285714Y-50394642D01*
X2238095Y-50299404D01*
X2238095Y-50013690D01*
X2285714Y-49918452D01*
X2333333Y-49870833D01*
X2428571Y-49823214D01*
X2619047Y-49823214D01*
X2714285Y-49870833D01*
X3571428Y-50442261D02*
X3476190Y-50489880D01*
X3285714Y-50489880D01*
X3190476Y-50442261D01*
X3142857Y-50347023D01*
X3142857Y-49966071D01*
X3190476Y-49870833D01*
X3285714Y-49823214D01*
X3476190Y-49823214D01*
X3571428Y-49870833D01*
X3619047Y-49966071D01*
X3619047Y-50061309D01*
X3142857Y-50156547D01*
X15954761Y-50489880D02*
X15478571Y-50489880D01*
X15478571Y-49489880D01*
X16288095Y-50489880D02*
X16288095Y-49823214D01*
X16288095Y-49489880D02*
X16240476Y-49537500D01*
X16288095Y-49585119D01*
X16335714Y-49537500D01*
X16288095Y-49489880D01*
X16288095Y-49585119D01*
X17192857Y-49823214D02*
X17192857Y-50632738D01*
X17145238Y-50727976D01*
X17097619Y-50775595D01*
X17002380Y-50823214D01*
X16859523Y-50823214D01*
X16764285Y-50775595D01*
X17192857Y-50442261D02*
X17097619Y-50489880D01*
X16907142Y-50489880D01*
X16811904Y-50442261D01*
X16764285Y-50394642D01*
X16716666Y-50299404D01*
X16716666Y-50013690D01*
X16764285Y-49918452D01*
X16811904Y-49870833D01*
X16907142Y-49823214D01*
X17097619Y-49823214D01*
X17192857Y-49870833D01*
X17669047Y-50489880D02*
X17669047Y-49489880D01*
X18097619Y-50489880D02*
X18097619Y-49966071D01*
X18050000Y-49870833D01*
X17954761Y-49823214D01*
X17811904Y-49823214D01*
X17716666Y-49870833D01*
X17669047Y-49918452D01*
X18430952Y-49823214D02*
X18811904Y-49823214D01*
X18573809Y-49489880D02*
X18573809Y-50347023D01*
X18621428Y-50442261D01*
X18716666Y-50489880D01*
X18811904Y-50489880D01*
X19859523Y-50442261D02*
X20002380Y-50489880D01*
X20240476Y-50489880D01*
X20335714Y-50442261D01*
X20383333Y-50394642D01*
X20430952Y-50299404D01*
X20430952Y-50204166D01*
X20383333Y-50108928D01*
X20335714Y-50061309D01*
X20240476Y-50013690D01*
X20050000Y-49966071D01*
X19954761Y-49918452D01*
X19907142Y-49870833D01*
X19859523Y-49775595D01*
X19859523Y-49680357D01*
X19907142Y-49585119D01*
X19954761Y-49537500D01*
X20050000Y-49489880D01*
X20288095Y-49489880D01*
X20430952Y-49537500D01*
X20859523Y-50489880D02*
X20859523Y-49823214D01*
X20859523Y-49489880D02*
X20811904Y-49537500D01*
X20859523Y-49585119D01*
X20907142Y-49537500D01*
X20859523Y-49489880D01*
X20859523Y-49585119D01*
X21764285Y-50489880D02*
X21764285Y-49489880D01*
X21764285Y-50442261D02*
X21669047Y-50489880D01*
X21478571Y-50489880D01*
X21383333Y-50442261D01*
X21335714Y-50394642D01*
X21288095Y-50299404D01*
X21288095Y-50013690D01*
X21335714Y-49918452D01*
X21383333Y-49870833D01*
X21478571Y-49823214D01*
X21669047Y-49823214D01*
X21764285Y-49870833D01*
X22621428Y-50442261D02*
X22526190Y-50489880D01*
X22335714Y-50489880D01*
X22240476Y-50442261D01*
X22192857Y-50347023D01*
X22192857Y-49966071D01*
X22240476Y-49870833D01*
X22335714Y-49823214D01*
X22526190Y-49823214D01*
X22621428Y-49870833D01*
X22669047Y-49966071D01*
X22669047Y-50061309D01*
X22192857Y-50156547D01*
X15954761Y-31439880D02*
X15478571Y-31439880D01*
X15478571Y-30439880D01*
X16288095Y-31439880D02*
X16288095Y-30773214D01*
X16288095Y-30439880D02*
X16240476Y-30487500D01*
X16288095Y-30535119D01*
X16335714Y-30487500D01*
X16288095Y-30439880D01*
X16288095Y-30535119D01*
X17192857Y-30773214D02*
X17192857Y-31582738D01*
X17145238Y-31677976D01*
X17097619Y-31725595D01*
X17002380Y-31773214D01*
X16859523Y-31773214D01*
X16764285Y-31725595D01*
X17192857Y-31392261D02*
X17097619Y-31439880D01*
X16907142Y-31439880D01*
X16811904Y-31392261D01*
X16764285Y-31344642D01*
X16716666Y-31249404D01*
X16716666Y-30963690D01*
X16764285Y-30868452D01*
X16811904Y-30820833D01*
X16907142Y-30773214D01*
X17097619Y-30773214D01*
X17192857Y-30820833D01*
X17669047Y-31439880D02*
X17669047Y-30439880D01*
X18097619Y-31439880D02*
X18097619Y-30916071D01*
X18050000Y-30820833D01*
X17954761Y-30773214D01*
X17811904Y-30773214D01*
X17716666Y-30820833D01*
X17669047Y-30868452D01*
X18430952Y-30773214D02*
X18811904Y-30773214D01*
X18573809Y-30439880D02*
X18573809Y-31297023D01*
X18621428Y-31392261D01*
X18716666Y-31439880D01*
X18811904Y-31439880D01*
X19859523Y-31392261D02*
X20002380Y-31439880D01*
X20240476Y-31439880D01*
X20335714Y-31392261D01*
X20383333Y-31344642D01*
X20430952Y-31249404D01*
X20430952Y-31154166D01*
X20383333Y-31058928D01*
X20335714Y-31011309D01*
X20240476Y-30963690D01*
X20050000Y-30916071D01*
X19954761Y-30868452D01*
X19907142Y-30820833D01*
X19859523Y-30725595D01*
X19859523Y-30630357D01*
X19907142Y-30535119D01*
X19954761Y-30487500D01*
X20050000Y-30439880D01*
X20288095Y-30439880D01*
X20430952Y-30487500D01*
X20859523Y-31439880D02*
X20859523Y-30773214D01*
X20859523Y-30439880D02*
X20811904Y-30487500D01*
X20859523Y-30535119D01*
X20907142Y-30487500D01*
X20859523Y-30439880D01*
X20859523Y-30535119D01*
X21764285Y-31439880D02*
X21764285Y-30439880D01*
X21764285Y-31392261D02*
X21669047Y-31439880D01*
X21478571Y-31439880D01*
X21383333Y-31392261D01*
X21335714Y-31344642D01*
X21288095Y-31249404D01*
X21288095Y-30963690D01*
X21335714Y-30868452D01*
X21383333Y-30820833D01*
X21478571Y-30773214D01*
X21669047Y-30773214D01*
X21764285Y-30820833D01*
X22621428Y-31392261D02*
X22526190Y-31439880D01*
X22335714Y-31439880D01*
X22240476Y-31392261D01*
X22192857Y-31297023D01*
X22192857Y-30916071D01*
X22240476Y-30820833D01*
X22335714Y-30773214D01*
X22526190Y-30773214D01*
X22621428Y-30820833D01*
X22669047Y-30916071D01*
X22669047Y-31011309D01*
X22192857Y-31106547D01*
X15954761Y-12389880D02*
X15478571Y-12389880D01*
X15478571Y-11389880D01*
X16288095Y-12389880D02*
X16288095Y-11723214D01*
X16288095Y-11389880D02*
X16240476Y-11437500D01*
X16288095Y-11485119D01*
X16335714Y-11437500D01*
X16288095Y-11389880D01*
X16288095Y-11485119D01*
X17192857Y-11723214D02*
X17192857Y-12532738D01*
X17145238Y-12627976D01*
X17097619Y-12675595D01*
X17002380Y-12723214D01*
X16859523Y-12723214D01*
X16764285Y-12675595D01*
X17192857Y-12342261D02*
X17097619Y-12389880D01*
X16907142Y-12389880D01*
X16811904Y-12342261D01*
X16764285Y-12294642D01*
X16716666Y-12199404D01*
X16716666Y-11913690D01*
X16764285Y-11818452D01*
X16811904Y-11770833D01*
X16907142Y-11723214D01*
X17097619Y-11723214D01*
X17192857Y-11770833D01*
X17669047Y-12389880D02*
X17669047Y-11389880D01*
X18097619Y-12389880D02*
X18097619Y-11866071D01*
X18050000Y-11770833D01*
X17954761Y-11723214D01*
X17811904Y-11723214D01*
X17716666Y-11770833D01*
X17669047Y-11818452D01*
X18430952Y-11723214D02*
X18811904Y-11723214D01*
X18573809Y-11389880D02*
X18573809Y-12247023D01*
X18621428Y-12342261D01*
X18716666Y-12389880D01*
X18811904Y-12389880D01*
X19859523Y-12342261D02*
X20002380Y-12389880D01*
X20240476Y-12389880D01*
X20335714Y-12342261D01*
X20383333Y-12294642D01*
X20430952Y-12199404D01*
X20430952Y-12104166D01*
X20383333Y-12008928D01*
X20335714Y-11961309D01*
X20240476Y-11913690D01*
X20050000Y-11866071D01*
X19954761Y-11818452D01*
X19907142Y-11770833D01*
X19859523Y-11675595D01*
X19859523Y-11580357D01*
X19907142Y-11485119D01*
X19954761Y-11437500D01*
X20050000Y-11389880D01*
X20288095Y-11389880D01*
X20430952Y-11437500D01*
X20859523Y-12389880D02*
X20859523Y-11723214D01*
X20859523Y-11389880D02*
X20811904Y-11437500D01*
X20859523Y-11485119D01*
X20907142Y-11437500D01*
X20859523Y-11389880D01*
X20859523Y-11485119D01*
X21764285Y-12389880D02*
X21764285Y-11389880D01*
X21764285Y-12342261D02*
X21669047Y-12389880D01*
X21478571Y-12389880D01*
X21383333Y-12342261D01*
X21335714Y-12294642D01*
X21288095Y-12199404D01*
X21288095Y-11913690D01*
X21335714Y-11818452D01*
X21383333Y-11770833D01*
X21478571Y-11723214D01*
X21669047Y-11723214D01*
X21764285Y-11770833D01*
X22621428Y-12342261D02*
X22526190Y-12389880D01*
X22335714Y-12389880D01*
X22240476Y-12342261D01*
X22192857Y-12247023D01*
X22192857Y-11866071D01*
X22240476Y-11770833D01*
X22335714Y-11723214D01*
X22526190Y-11723214D01*
X22621428Y-11770833D01*
X22669047Y-11866071D01*
X22669047Y-11961309D01*
X22192857Y-12056547D01*
X15954761Y6660119D02*
X15478571Y6660119D01*
X15478571Y7660119D01*
X16288095Y6660119D02*
X16288095Y7326785D01*
X16288095Y7660119D02*
X16240476Y7612500D01*
X16288095Y7564880D01*
X16335714Y7612500D01*
X16288095Y7660119D01*
X16288095Y7564880D01*
X17192857Y7326785D02*
X17192857Y6517261D01*
X17145238Y6422023D01*
X17097619Y6374404D01*
X17002380Y6326785D01*
X16859523Y6326785D01*
X16764285Y6374404D01*
X17192857Y6707738D02*
X17097619Y6660119D01*
X16907142Y6660119D01*
X16811904Y6707738D01*
X16764285Y6755357D01*
X16716666Y6850595D01*
X16716666Y7136309D01*
X16764285Y7231547D01*
X16811904Y7279166D01*
X16907142Y7326785D01*
X17097619Y7326785D01*
X17192857Y7279166D01*
X17669047Y6660119D02*
X17669047Y7660119D01*
X18097619Y6660119D02*
X18097619Y7183928D01*
X18050000Y7279166D01*
X17954761Y7326785D01*
X17811904Y7326785D01*
X17716666Y7279166D01*
X17669047Y7231547D01*
X18430952Y7326785D02*
X18811904Y7326785D01*
X18573809Y7660119D02*
X18573809Y6802976D01*
X18621428Y6707738D01*
X18716666Y6660119D01*
X18811904Y6660119D01*
X19859523Y6707738D02*
X20002380Y6660119D01*
X20240476Y6660119D01*
X20335714Y6707738D01*
X20383333Y6755357D01*
X20430952Y6850595D01*
X20430952Y6945833D01*
X20383333Y7041071D01*
X20335714Y7088690D01*
X20240476Y7136309D01*
X20050000Y7183928D01*
X19954761Y7231547D01*
X19907142Y7279166D01*
X19859523Y7374404D01*
X19859523Y7469642D01*
X19907142Y7564880D01*
X19954761Y7612500D01*
X20050000Y7660119D01*
X20288095Y7660119D01*
X20430952Y7612500D01*
X20859523Y6660119D02*
X20859523Y7326785D01*
X20859523Y7660119D02*
X20811904Y7612500D01*
X20859523Y7564880D01*
X20907142Y7612500D01*
X20859523Y7660119D01*
X20859523Y7564880D01*
X21764285Y6660119D02*
X21764285Y7660119D01*
X21764285Y6707738D02*
X21669047Y6660119D01*
X21478571Y6660119D01*
X21383333Y6707738D01*
X21335714Y6755357D01*
X21288095Y6850595D01*
X21288095Y7136309D01*
X21335714Y7231547D01*
X21383333Y7279166D01*
X21478571Y7326785D01*
X21669047Y7326785D01*
X21764285Y7279166D01*
X22621428Y6707738D02*
X22526190Y6660119D01*
X22335714Y6660119D01*
X22240476Y6707738D01*
X22192857Y6802976D01*
X22192857Y7183928D01*
X22240476Y7279166D01*
X22335714Y7326785D01*
X22526190Y7326785D01*
X22621428Y7279166D01*
X22669047Y7183928D01*
X22669047Y7088690D01*
X22192857Y6993452D01*
M02*
